<svg width="245" height="213" viewBox="0 0 245 213" fill="none" xmlns="http://www.w3.org/2000/svg">
<g opacity="0.3">
<path opacity="0.2" d="M170.148 141.788L157.605 139.598C156.724 139.444 156.137 138.608 156.291 137.727L158.907 122.74C159.061 121.859 159.897 121.272 160.778 121.426L173.321 123.615C174.202 123.769 174.789 124.605 174.635 125.486L172.019 140.473C171.865 141.354 171.029 141.941 170.148 141.788Z" fill="#241228"/>
<path opacity="0.2" fill-rule="evenodd" clip-rule="evenodd" d="M160.752 121.575C159.953 121.436 159.196 121.968 159.056 122.766L156.44 137.753C156.301 138.552 156.833 139.309 157.631 139.449L170.174 141.638C170.973 141.778 171.73 141.245 171.87 140.447L174.486 125.46C174.625 124.661 174.093 123.904 173.295 123.764L160.752 121.575ZM158.757 122.714C158.926 121.751 159.84 121.108 160.804 121.276L173.347 123.466C174.31 123.634 174.953 124.549 174.785 125.512L172.168 140.499C172 141.462 171.086 142.105 170.122 141.937L157.579 139.747C156.616 139.579 155.973 138.665 156.141 137.701L158.757 122.714Z" fill="#241228"/>
<path d="M171.146 139.89L158.603 137.7C157.722 137.546 157.135 136.71 157.289 135.829L159.641 122.356C159.795 121.475 160.631 120.887 161.512 121.041L174.054 123.231C174.935 123.384 175.523 124.22 175.369 125.101L173.017 138.575C172.863 139.456 172.027 140.044 171.146 139.89Z" fill="#FDA22F"/>
<path d="M171.146 139.89L158.603 137.7C157.722 137.546 157.135 136.71 157.289 135.829L159.641 122.356C159.795 121.475 160.631 120.887 161.512 121.041L174.054 123.231C174.935 123.384 175.523 124.22 175.369 125.101L173.017 138.575C172.863 139.456 172.027 140.044 171.146 139.89Z" fill="#FDA22F"/>
<path d="M158.219 135.992L160.571 122.518C160.725 121.637 161.561 121.05 162.442 121.203L161.512 121.041C160.631 120.887 159.795 121.475 159.641 122.356L157.289 135.829C157.135 136.71 157.722 137.546 158.603 137.7L159.534 137.863C158.653 137.709 158.066 136.873 158.219 135.992Z" fill="#FC9435"/>
<path d="M174.054 123.231L173.124 123.068C174.005 123.222 174.592 124.058 174.438 124.939L172.086 138.413C171.933 139.294 171.097 139.881 170.216 139.727L171.146 139.89C172.027 140.044 172.863 139.456 173.017 138.575L175.369 125.101C175.523 124.22 174.935 123.384 174.054 123.231Z" fill="#FFB331"/>
<path fill-rule="evenodd" clip-rule="evenodd" d="M161.485 121.19C160.687 121.051 159.929 121.583 159.79 122.382L157.438 135.856C157.299 136.654 157.831 137.412 158.63 137.551L171.172 139.741C171.971 139.88 172.729 139.348 172.868 138.549L175.22 125.075C175.359 124.277 174.827 123.519 174.028 123.38L161.485 121.19ZM159.491 122.33C159.66 121.366 160.574 120.724 161.538 120.892L174.081 123.081C175.044 123.249 175.687 124.164 175.519 125.127L173.167 138.601C172.998 139.565 172.084 140.207 171.12 140.039L158.577 137.85C157.614 137.681 156.971 136.767 157.139 135.803L159.491 122.33Z" fill="#511C64"/>
<path d="M172.439 128.37L161.29 126.424C161.071 126.385 160.923 126.175 160.961 125.956L161.413 123.368C161.451 123.149 161.662 123.001 161.881 123.039L173.03 124.985C173.249 125.023 173.397 125.234 173.359 125.453L172.907 128.041C172.869 128.26 172.658 128.408 172.439 128.37Z" fill="#A5F3FF"/>
<path d="M171.459 125.558L171.382 125.441L171.493 125.363L172.225 125.491L172.306 125.587L172.186 125.684L171.459 125.558Z" fill="#511C64"/>
<path opacity="0.2" d="M171.107 126.277L171.235 125.545L171.346 125.467L171.424 125.578L171.296 126.31L171.185 126.388L171.107 126.277Z" fill="#511C64"/>
<path d="M172.083 126.446L172.21 125.714L172.325 125.616L172.4 125.747L172.272 126.479L172.161 126.557L172.083 126.446Z" fill="#511C64"/>
<path opacity="0.2" d="M171.289 126.528L171.211 126.417L171.322 126.339L172.049 126.466L172.132 126.578L172.015 126.655L171.289 126.528Z" fill="#511C64"/>
<path opacity="0.2" d="M170.934 127.266L171.062 126.535L171.173 126.457L171.251 126.568L171.123 127.299L171.012 127.378L170.934 127.266Z" fill="#511C64"/>
<path d="M171.91 127.436L172.038 126.704L172.151 126.611L172.227 126.737L172.099 127.469L171.988 127.547L171.91 127.436Z" fill="#511C64"/>
<path opacity="0.2" d="M171.115 127.523L171.038 127.407L171.149 127.329L171.876 127.456L171.959 127.568L171.842 127.65L171.115 127.523Z" fill="#511C64"/>
<path d="M169.737 125.256L169.655 125.139L169.771 125.062L170.498 125.189L170.578 125.285L170.464 125.383L169.737 125.256Z" fill="#511C64"/>
<path opacity="0.2" d="M169.385 125.976L169.512 125.244L169.624 125.166L169.702 125.277L169.574 126.009L169.463 126.087L169.385 125.976Z" fill="#511C64"/>
<path d="M170.361 126.145L170.488 125.414L170.603 125.316L170.677 125.447L170.55 126.178L170.439 126.256L170.361 126.145Z" fill="#511C64"/>
<path d="M169.567 126.227L169.484 126.115L169.6 126.038L170.326 126.165L170.404 126.276L170.293 126.354L169.567 126.227Z" fill="#511C64"/>
<path opacity="0.2" d="M169.212 126.965L169.34 126.234L169.451 126.156L169.529 126.267L169.401 126.998L169.29 127.076L169.212 126.965Z" fill="#511C64"/>
<path d="M170.188 127.135L170.315 126.404L170.429 126.311L170.504 126.437L170.377 127.169L170.266 127.247L170.188 127.135Z" fill="#511C64"/>
<path d="M169.393 127.223L169.311 127.106L169.427 127.028L170.153 127.155L170.231 127.266L170.12 127.349L169.393 127.223Z" fill="#511C64"/>
<g opacity="0.2">
<path opacity="0.2" d="M166.278 124.653L166.201 124.537L166.312 124.459L167.044 124.587L167.124 124.683L167.01 124.781L166.278 124.653Z" fill="#511C64"/>
<path opacity="0.2" d="M165.926 125.372L166.053 124.641L166.169 124.563L166.247 124.674L166.12 125.406L166.009 125.484L165.926 125.372Z" fill="#511C64"/>
<path opacity="0.2" d="M166.901 125.541L167.029 124.81L167.144 124.712L167.223 124.844L167.095 125.575L166.979 125.652L166.901 125.541Z" fill="#511C64"/>
<path opacity="0.2" d="M166.107 125.623L166.029 125.512L166.14 125.434L166.872 125.562L166.95 125.673L166.839 125.751L166.107 125.623Z" fill="#511C64"/>
<path opacity="0.2" d="M165.753 126.361L165.881 125.63L165.997 125.553L166.075 125.664L165.947 126.395L165.836 126.473L165.753 126.361Z" fill="#511C64"/>
<path opacity="0.2" d="M166.728 126.532L166.856 125.8L166.97 125.707L167.05 125.834L166.922 126.566L166.806 126.643L166.728 126.532Z" fill="#511C64"/>
<path opacity="0.2" d="M165.934 126.619L165.856 126.503L165.967 126.425L166.699 126.553L166.777 126.664L166.665 126.747L165.934 126.619Z" fill="#511C64"/>
</g>
<g opacity="0.2">
<path opacity="0.2" d="M168.005 124.955L167.928 124.839L168.039 124.761L168.771 124.888L168.851 124.985L168.732 125.082L168.005 124.955Z" fill="#511C64"/>
<path opacity="0.2" d="M167.653 125.674L167.78 124.942L167.891 124.864L167.974 124.976L167.847 125.708L167.731 125.785L167.653 125.674Z" fill="#511C64"/>
<path opacity="0.2" d="M168.628 125.843L168.756 125.111L168.871 125.013L168.95 125.145L168.823 125.877L168.706 125.954L168.628 125.843Z" fill="#511C64"/>
<path opacity="0.2" d="M167.834 125.925L167.756 125.814L167.867 125.736L168.599 125.863L168.677 125.974L168.566 126.052L167.834 125.925Z" fill="#511C64"/>
<path opacity="0.2" d="M167.48 126.663L167.608 125.931L167.719 125.853L167.802 125.965L167.674 126.697L167.558 126.774L167.48 126.663Z" fill="#511C64"/>
<path opacity="0.2" d="M168.456 126.833L168.583 126.102L168.697 126.009L168.777 126.136L168.65 126.867L168.534 126.944L168.456 126.833Z" fill="#511C64"/>
<path opacity="0.2" d="M167.661 126.92L167.584 126.804L167.695 126.726L168.426 126.854L168.504 126.965L168.392 127.048L167.661 126.92Z" fill="#511C64"/>
</g>
<g opacity="0.2">
<path opacity="0.2" d="M162.829 124.051L162.746 123.934L162.863 123.856L163.589 123.983L163.67 124.079L163.555 124.177L162.829 124.051Z" fill="#511C64"/>
<path opacity="0.2" d="M162.476 124.77L162.604 124.038L162.715 123.96L162.793 124.071L162.665 124.803L162.554 124.881L162.476 124.77Z" fill="#511C64"/>
<path opacity="0.2" d="M163.452 124.939L163.58 124.208L163.694 124.11L163.769 124.241L163.641 124.972L163.53 125.05L163.452 124.939Z" fill="#511C64"/>
<path opacity="0.2" d="M162.658 125.021L162.575 124.91L162.691 124.832L163.418 124.959L163.496 125.07L163.385 125.148L162.658 125.021Z" fill="#511C64"/>
<path opacity="0.2" d="M162.304 125.759L162.431 125.028L162.542 124.949L162.62 125.061L162.493 125.792L162.382 125.87L162.304 125.759Z" fill="#511C64"/>
<path opacity="0.2" d="M163.279 125.93L163.407 125.198L163.52 125.105L163.596 125.231L163.468 125.963L163.357 126.041L163.279 125.93Z" fill="#511C64"/>
<path opacity="0.2" d="M162.484 126.017L162.402 125.9L162.518 125.823L163.245 125.95L163.323 126.061L163.211 126.144L162.484 126.017Z" fill="#511C64"/>
</g>
<g opacity="0.2">
<path opacity="0.2" d="M164.551 124.352L164.474 124.236L164.585 124.158L165.316 124.285L165.397 124.381L165.282 124.479L164.551 124.352Z" fill="#511C64"/>
<path opacity="0.2" d="M164.203 125.072L164.331 124.34L164.442 124.262L164.52 124.373L164.392 125.105L164.281 125.183L164.203 125.072Z" fill="#511C64"/>
<path opacity="0.2" d="M165.174 125.24L165.302 124.508L165.421 124.411L165.496 124.542L165.368 125.274L165.257 125.352L165.174 125.24Z" fill="#511C64"/>
<path opacity="0.2" d="M164.38 125.322L164.302 125.211L164.413 125.132L165.145 125.26L165.223 125.371L165.112 125.449L164.38 125.322Z" fill="#511C64"/>
<path opacity="0.2" d="M164.031 126.061L164.158 125.329L164.269 125.251L164.347 125.362L164.22 126.094L164.109 126.172L164.031 126.061Z" fill="#511C64"/>
<path opacity="0.2" d="M165.001 126.231L165.129 125.499L165.248 125.407L165.323 125.533L165.195 126.265L165.084 126.343L165.001 126.231Z" fill="#511C64"/>
<path opacity="0.2" d="M164.206 126.317L164.129 126.201L164.24 126.123L164.972 126.251L165.05 126.362L164.938 126.445L164.206 126.317Z" fill="#511C64"/>
</g>
<path opacity="0.43" d="M172.839 126.08L161.69 124.134C161.471 124.096 161.323 123.885 161.361 123.666L161.413 123.368C161.451 123.149 161.662 123.001 161.881 123.039L173.03 124.985C173.249 125.023 173.397 125.234 173.359 125.453L173.307 125.752C173.268 125.971 173.058 126.119 172.839 126.08Z" fill="#D2FCFB"/>
<path fill-rule="evenodd" clip-rule="evenodd" d="M161.855 123.188C161.718 123.164 161.586 123.257 161.562 123.394L161.111 125.982C161.087 126.118 161.18 126.25 161.316 126.274L172.465 128.221C172.602 128.244 172.734 128.152 172.758 128.015L173.209 125.427C173.233 125.29 173.141 125.158 173.004 125.135L161.855 123.188ZM161.264 123.342C161.316 123.04 161.605 122.837 161.907 122.89L173.056 124.836C173.358 124.889 173.561 125.178 173.508 125.479L173.056 128.067C173.004 128.369 172.715 128.572 172.413 128.519L161.264 126.573C160.962 126.52 160.759 126.231 160.812 125.93L161.264 123.342Z" fill="#511C64"/>
<path d="M162.455 131.797L160.066 131.38C159.847 131.342 159.699 131.131 159.737 130.912L160.154 128.523C160.192 128.304 160.403 128.156 160.622 128.195L163.011 128.612C163.23 128.65 163.378 128.86 163.34 129.079L162.923 131.469C162.883 131.693 162.674 131.835 162.455 131.797Z" fill="#FC9435"/>
<path fill-rule="evenodd" clip-rule="evenodd" d="M160.596 128.344C160.459 128.32 160.327 128.413 160.303 128.549L159.886 130.938C159.863 131.075 159.955 131.207 160.092 131.231L162.481 131.648C162.619 131.672 162.749 131.583 162.773 131.442L163.19 129.053C163.214 128.917 163.121 128.785 162.985 128.761L160.596 128.344ZM160.005 128.497C160.057 128.196 160.346 127.993 160.648 128.045L163.037 128.462C163.338 128.515 163.542 128.804 163.489 129.105L163.072 131.495C163.018 131.802 162.729 131.999 162.429 131.946L160.04 131.529C159.738 131.477 159.535 131.188 159.588 130.886L160.005 128.497Z" fill="#FC9435"/>
<path d="M166.865 132.567L164.476 132.15C164.257 132.112 164.109 131.901 164.147 131.682L164.564 129.293C164.602 129.074 164.813 128.926 165.032 128.964L167.421 129.381C167.64 129.42 167.788 129.63 167.75 129.849L167.333 132.238C167.293 132.462 167.084 132.605 166.865 132.567Z" fill="#FC9435"/>
<path fill-rule="evenodd" clip-rule="evenodd" d="M165.006 129.114C164.869 129.09 164.737 129.183 164.713 129.319L164.296 131.709C164.273 131.845 164.365 131.977 164.502 132.001L166.891 132.418C167.029 132.442 167.159 132.353 167.183 132.212L167.6 129.823C167.624 129.687 167.531 129.555 167.395 129.531L165.006 129.114ZM164.415 129.267C164.467 128.966 164.756 128.763 165.058 128.815L167.447 129.232C167.748 129.285 167.952 129.574 167.899 129.875L167.482 132.265C167.428 132.572 167.139 132.769 166.839 132.717L164.45 132.299C164.148 132.247 163.945 131.958 163.998 131.656L164.415 129.267Z" fill="#FC9435"/>
<path d="M161.686 136.202L159.297 135.785C159.078 135.747 158.93 135.536 158.968 135.317L159.385 132.928C159.423 132.709 159.634 132.561 159.853 132.599L162.242 133.016C162.461 133.055 162.609 133.265 162.571 133.484L162.154 135.873C162.115 136.097 161.905 136.24 161.686 136.202Z" fill="#FC9435"/>
<path fill-rule="evenodd" clip-rule="evenodd" d="M159.827 132.749C159.69 132.725 159.558 132.818 159.534 132.955L159.117 135.344C159.094 135.48 159.186 135.612 159.323 135.636L161.712 136.053C161.85 136.077 161.98 135.988 162.004 135.848L162.421 133.458C162.445 133.322 162.352 133.19 162.216 133.166L159.827 132.749ZM159.236 132.902C159.288 132.601 159.577 132.398 159.879 132.45L162.268 132.867C162.57 132.92 162.773 133.209 162.72 133.511L162.303 135.9C162.249 136.207 161.96 136.404 161.66 136.352L159.271 135.935C158.969 135.882 158.766 135.593 158.819 135.292L159.236 132.902Z" fill="#FC9435"/>
<path d="M166.096 136.972L163.707 136.555C163.488 136.517 163.34 136.306 163.378 136.087L163.795 133.698C163.833 133.479 164.044 133.331 164.263 133.369L166.652 133.786C166.871 133.825 167.019 134.035 166.981 134.254L166.564 136.643C166.524 136.867 166.315 137.01 166.096 136.972Z" fill="#FC9435"/>
<path fill-rule="evenodd" clip-rule="evenodd" d="M164.237 133.519C164.1 133.495 163.968 133.587 163.944 133.724L163.527 136.113C163.504 136.25 163.596 136.382 163.733 136.405L166.122 136.823C166.26 136.847 166.39 136.757 166.414 136.617L166.831 134.228C166.855 134.091 166.762 133.959 166.626 133.936L164.237 133.519ZM163.646 133.672C163.698 133.37 163.987 133.167 164.289 133.22L166.678 133.637C166.979 133.69 167.183 133.979 167.13 134.28L166.713 136.669C166.659 136.977 166.37 137.174 166.07 137.121L163.681 136.704C163.379 136.651 163.176 136.363 163.229 136.061L163.646 133.672Z" fill="#FC9435"/>
<path d="M170.476 137.736L168.087 137.319C167.868 137.281 167.72 137.07 167.758 136.851L168.944 130.057C168.982 129.838 169.193 129.69 169.412 129.729L171.801 130.146C172.02 130.184 172.168 130.394 172.13 130.613L170.944 137.408C170.905 137.632 170.695 137.774 170.476 137.736Z" fill="#FC9435"/>
<path fill-rule="evenodd" clip-rule="evenodd" d="M169.386 129.878C169.249 129.855 169.117 129.947 169.093 130.084L167.907 136.878C167.884 137.015 167.976 137.146 168.113 137.17L170.502 137.587C170.64 137.611 170.77 137.522 170.794 137.382L171.98 130.588C172.004 130.451 171.911 130.319 171.775 130.296L169.386 129.878ZM168.795 130.032C168.847 129.73 169.136 129.527 169.438 129.58L171.827 129.997C172.129 130.05 172.332 130.338 172.279 130.64L171.093 137.434C171.039 137.742 170.75 137.938 170.45 137.886L168.061 137.469C167.759 137.416 167.556 137.127 167.609 136.826L168.795 130.032Z" fill="#FC9435"/>
<path d="M167.235 132.324L164.846 131.907C164.627 131.869 164.479 131.658 164.518 131.439L164.935 129.05C164.973 128.831 165.183 128.683 165.402 128.721L167.792 129.139C168.011 129.177 168.158 129.387 168.12 129.606L167.703 131.995C167.664 132.219 167.454 132.362 167.235 132.324Z" fill="#FF82A0"/>
<path d="M170.852 137.47L168.463 137.053C168.244 137.015 168.096 136.805 168.134 136.586L169.316 129.816C169.354 129.597 169.565 129.449 169.784 129.488L172.173 129.905C172.392 129.943 172.54 130.153 172.502 130.372L171.32 137.142C171.281 137.366 171.071 137.509 170.852 137.47Z" fill="#B078FD"/>
<path d="M168.718 136.739C168.613 136.721 168.539 136.62 168.558 136.511L169.784 129.488C169.565 129.449 169.354 129.597 169.316 129.816L168.134 136.586C168.096 136.805 168.244 137.015 168.463 137.053L170.852 137.47C171.056 137.506 171.247 137.38 171.306 137.191L168.718 136.739Z" fill="#A270F2"/>
<path fill-rule="evenodd" clip-rule="evenodd" d="M169.756 129.635C169.62 129.611 169.488 129.704 169.464 129.841L168.283 136.61C168.259 136.746 168.351 136.878 168.488 136.902L170.877 137.319C171.015 137.343 171.145 137.254 171.169 137.114L172.351 130.345C172.375 130.208 172.282 130.076 172.146 130.052L169.756 129.635ZM169.166 129.788C169.218 129.487 169.507 129.284 169.809 129.337L172.198 129.754C172.499 129.806 172.702 130.095 172.65 130.397L171.468 137.166C171.414 137.474 171.125 137.67 170.825 137.618L168.436 137.201C168.134 137.148 167.931 136.859 167.984 136.558L169.166 129.788Z" fill="#511C64"/>
<path d="M171.145 132.966L169.711 132.715L169.649 133.074L171.082 133.324L171.145 132.966Z" fill="#511C64"/>
<path d="M171.051 133.503L169.617 133.253L169.555 133.611L170.988 133.862L171.051 133.503Z" fill="#511C64"/>
<path fill-rule="evenodd" clip-rule="evenodd" d="M171.394 130.214C171.401 130.172 171.441 130.145 171.482 130.152L171.721 130.194C171.946 130.233 172.097 130.448 172.058 130.673L171.887 131.654C171.879 131.695 171.84 131.723 171.799 131.715C171.758 131.708 171.73 131.669 171.737 131.628L171.908 130.647C171.933 130.504 171.838 130.368 171.695 130.343L171.456 130.301C171.415 130.294 171.387 130.255 171.394 130.214Z" fill="white"/>
<path d="M165.101 131.592C164.997 131.574 164.922 131.474 164.941 131.364L165.402 128.721C165.183 128.683 164.973 128.831 164.935 129.05L164.518 131.439C164.479 131.658 164.627 131.869 164.846 131.907L167.235 132.324C167.44 132.36 167.631 132.234 167.69 132.044L165.101 131.592Z" fill="#F27095"/>
<path fill-rule="evenodd" clip-rule="evenodd" d="M165.376 128.871C165.24 128.847 165.108 128.94 165.084 129.076L164.667 131.465C164.643 131.602 164.736 131.734 164.872 131.758L167.262 132.175C167.399 132.199 167.529 132.109 167.554 131.969L167.971 129.58C167.995 129.443 167.902 129.312 167.765 129.288L165.376 128.871ZM164.785 129.024C164.838 128.722 165.127 128.519 165.428 128.572L167.818 128.989C168.119 129.042 168.322 129.331 168.27 129.632L167.853 132.021C167.799 132.329 167.51 132.526 167.209 132.473L164.82 132.056C164.519 132.004 164.316 131.715 164.368 131.413L164.785 129.024Z" fill="#511C64"/>
<path d="M166.968 130.477L165.719 130.259L165.664 130.572L166.913 130.79L166.968 130.477Z" fill="#511C64"/>
<path fill-rule="evenodd" clip-rule="evenodd" d="M167.253 129.491C167.26 129.449 167.3 129.422 167.341 129.429L167.45 129.448C167.616 129.477 167.73 129.639 167.701 129.805L167.641 130.148C167.634 130.189 167.594 130.217 167.553 130.21C167.512 130.203 167.484 130.163 167.492 130.122L167.552 129.779C167.566 129.695 167.507 129.612 167.424 129.597L167.315 129.578C167.273 129.571 167.246 129.532 167.253 129.491Z" fill="white"/>
<path d="M162.857 131.561L160.467 131.144C160.248 131.106 160.101 130.895 160.139 130.676L160.556 128.287C160.594 128.068 160.805 127.92 161.024 127.958L163.413 128.375C163.632 128.414 163.78 128.624 163.741 128.843L163.324 131.232C163.285 131.456 163.076 131.599 162.857 131.561Z" fill="#FF82A0"/>
<path d="M160.722 130.829C160.618 130.811 160.543 130.711 160.562 130.601L161.024 127.958C160.805 127.92 160.594 128.068 160.556 128.287L160.139 130.676C160.101 130.895 160.248 131.106 160.467 131.144L162.857 131.561C163.061 131.597 163.252 131.471 163.311 131.281L160.722 130.829Z" fill="#F27095"/>
<path fill-rule="evenodd" clip-rule="evenodd" d="M160.996 128.106C160.86 128.082 160.728 128.175 160.704 128.311L160.287 130.7C160.263 130.837 160.356 130.969 160.492 130.993L162.881 131.41C163.019 131.434 163.149 131.345 163.174 131.204L163.591 128.815C163.615 128.679 163.522 128.547 163.385 128.523L160.996 128.106ZM160.405 128.259C160.458 127.958 160.747 127.755 161.048 127.807L163.438 128.224C163.739 128.277 163.942 128.566 163.89 128.867L163.472 131.257C163.419 131.564 163.13 131.761 162.829 131.708L160.44 131.291C160.139 131.239 159.936 130.95 159.988 130.648L160.405 128.259Z" fill="#511C64"/>
<path d="M162.518 129.7L161.269 129.482L161.214 129.796L162.464 130.014L162.518 129.7Z" fill="#511C64"/>
<path d="M161.913 130.4L162.131 129.151L161.817 129.096L161.599 130.346L161.913 130.4Z" fill="#511C64"/>
<path fill-rule="evenodd" clip-rule="evenodd" d="M162.848 128.722C162.855 128.68 162.895 128.653 162.936 128.66L163.045 128.679C163.211 128.708 163.325 128.87 163.296 129.036L163.236 129.379C163.229 129.42 163.19 129.448 163.148 129.441C163.107 129.434 163.079 129.394 163.087 129.353L163.147 129.01C163.161 128.926 163.102 128.843 163.019 128.828L162.91 128.809C162.869 128.802 162.841 128.763 162.848 128.722Z" fill="white"/>
<path d="M162.091 135.939L159.702 135.522C159.483 135.484 159.335 135.273 159.373 135.054L159.79 132.665C159.828 132.446 160.039 132.298 160.258 132.336L162.647 132.753C162.866 132.792 163.014 133.002 162.976 133.221L162.558 135.61C162.519 135.834 162.31 135.977 162.091 135.939Z" fill="#FF82A0"/>
<path d="M159.957 135.207C159.852 135.189 159.777 135.089 159.796 134.979L160.258 132.336C160.039 132.298 159.828 132.446 159.79 132.665L159.373 135.054C159.335 135.273 159.483 135.484 159.702 135.522L162.091 135.939C162.295 135.975 162.486 135.849 162.545 135.659L159.957 135.207Z" fill="#F27095"/>
<path fill-rule="evenodd" clip-rule="evenodd" d="M160.232 132.486C160.095 132.462 159.963 132.555 159.939 132.692L159.522 135.081C159.498 135.217 159.591 135.349 159.728 135.373L162.117 135.79C162.255 135.814 162.385 135.725 162.409 135.585L162.826 133.196C162.85 133.059 162.757 132.927 162.621 132.903L160.232 132.486ZM159.641 132.64C159.693 132.338 159.982 132.135 160.284 132.188L162.673 132.605C162.974 132.657 163.178 132.946 163.125 133.248L162.708 135.637C162.654 135.945 162.365 136.141 162.065 136.089L159.676 135.672C159.374 135.619 159.171 135.33 159.224 135.029L159.641 132.64Z" fill="#511C64"/>
<path d="M161.666 134.565L160.936 133.527L160.676 133.71L161.405 134.748L161.666 134.565Z" fill="#511C64"/>
<path d="M160.748 134.633L161.786 133.904L161.603 133.643L160.565 134.373L160.748 134.633Z" fill="#511C64"/>
<path fill-rule="evenodd" clip-rule="evenodd" d="M162.077 133.136C162.085 133.095 162.124 133.067 162.165 133.075L162.275 133.094C162.44 133.123 162.554 133.285 162.525 133.45L162.465 133.794C162.458 133.835 162.419 133.863 162.378 133.855C162.336 133.848 162.309 133.809 162.316 133.768L162.376 133.424C162.39 133.341 162.332 133.258 162.249 133.243L162.139 133.224C162.098 133.217 162.07 133.177 162.077 133.136Z" fill="white"/>
<path d="M166.472 136.706L164.083 136.288C163.864 136.25 163.716 136.04 163.754 135.821L164.171 133.432C164.21 133.213 164.42 133.065 164.639 133.103L167.028 133.52C167.247 133.558 167.395 133.769 167.357 133.988L166.94 136.377C166.901 136.601 166.691 136.744 166.472 136.706Z" fill="#FF82A0"/>
<path d="M164.338 135.974C164.233 135.956 164.159 135.855 164.178 135.746L164.639 133.103C164.42 133.065 164.21 133.213 164.171 133.432L163.754 135.821C163.716 136.04 163.864 136.25 164.083 136.288L166.472 136.706C166.676 136.741 166.867 136.616 166.926 136.426L164.338 135.974Z" fill="#F27095"/>
<path fill-rule="evenodd" clip-rule="evenodd" d="M164.612 133.251C164.475 133.227 164.343 133.32 164.319 133.456L163.902 135.845C163.879 135.982 163.971 136.114 164.108 136.138L166.497 136.555C166.635 136.579 166.765 136.489 166.789 136.349L167.206 133.96C167.23 133.823 167.137 133.692 167.001 133.668L164.612 133.251ZM164.021 133.404C164.073 133.102 164.362 132.899 164.664 132.952L167.053 133.369C167.355 133.422 167.558 133.711 167.505 134.012L167.088 136.401C167.034 136.709 166.745 136.906 166.445 136.853L164.056 136.436C163.754 136.384 163.551 136.095 163.604 135.793L164.021 133.404Z" fill="#511C64"/>
<path d="M166.203 134.857L164.954 134.639L164.899 134.952L166.149 135.17L166.203 134.857Z" fill="#511C64"/>
<path d="M165.603 135.556L165.657 135.243L165.344 135.188L165.289 135.501L165.603 135.556Z" fill="#511C64"/>
<path d="M165.764 134.617L165.818 134.303L165.505 134.248L165.45 134.562L165.764 134.617Z" fill="#511C64"/>
<path fill-rule="evenodd" clip-rule="evenodd" d="M166.482 133.905C166.49 133.864 166.529 133.837 166.57 133.844L166.68 133.863C166.845 133.892 166.959 134.054 166.93 134.22L166.87 134.563C166.863 134.604 166.824 134.632 166.783 134.625C166.741 134.617 166.714 134.578 166.721 134.537L166.781 134.194C166.795 134.11 166.737 134.027 166.654 134.012L166.544 133.993C166.503 133.986 166.475 133.947 166.482 133.905Z" fill="white"/>
<path d="M195.254 98.8112C176.497 98.8112 149.539 98.8112 130.782 98.8112C125.764 98.8112 121.335 102.099 119.985 106.909C118.289 112.965 118.289 119.263 119.985 125.285C121.335 130.095 125.764 133.383 130.782 133.383L195.254 133.383C198.091 133.383 200.41 131.203 200.583 128.399C201.137 120.198 201.137 111.962 200.583 103.76C200.41 100.991 198.057 98.8112 195.254 98.8112Z" fill="#7D7D7D"/>
<path fill-rule="evenodd" clip-rule="evenodd" d="M118.652 106.535C120.174 101.113 125.159 97.427 130.782 97.427L195.254 97.427C198.771 97.427 201.742 100.158 201.964 103.669C202.522 111.931 202.522 120.227 201.964 128.489C201.744 132.025 198.816 134.767 195.254 134.767L130.782 134.767C125.16 134.767 120.175 131.082 118.653 125.66M121.318 107.282C122.496 103.084 126.37 100.195 130.782 100.195L195.254 100.195C197.341 100.195 199.075 101.823 199.201 103.846L199.202 103.853C199.751 111.993 199.751 120.167 199.202 128.306L199.201 128.314C199.074 130.383 197.365 131.999 195.254 131.999L130.782 131.999C126.37 131.999 122.496 129.109 121.318 124.911L121.318 124.91C119.691 119.135 119.691 113.095 121.318 107.283M118.652 106.535L118.652 106.536L118.652 106.535ZM118.652 106.536C116.888 112.835 116.888 119.392 118.653 125.66L118.652 106.536Z" fill="#7D7D7D"/>
<path d="M154.453 126.98C153.069 119.782 153.069 112.411 154.453 105.213C179.958 105.213 214.529 105.213 240.069 105.213C240.069 110.196 238.961 118.329 235.985 124.004C235.016 125.838 233.147 126.98 231.071 126.98L154.453 126.98Z" fill="#7D7D7D"/>
<path fill-rule="evenodd" clip-rule="evenodd" d="M153.094 104.952C153.219 104.3 153.789 103.829 154.453 103.829L240.069 103.829C240.833 103.829 241.453 104.449 241.453 105.213C241.453 110.313 240.332 118.697 237.211 124.647L237.209 124.651C236.004 126.933 233.668 128.365 231.071 128.365L154.453 128.365C153.769 128.365 153.201 127.869 153.089 127.217C151.676 119.854 151.678 112.314 153.094 104.952ZM155.608 125.596L231.071 125.596C232.627 125.596 234.027 124.745 234.76 123.36C237.336 118.446 238.473 111.479 238.657 106.597L155.608 106.597C154.529 112.89 154.529 119.303 155.608 125.596Z" fill="#7D7D7D"/>
<path d="M207.331 124.039L201.137 124.039L201.137 130.51L207.331 130.51L207.331 124.039Z" fill="#7D7D7D"/>
<path fill-rule="evenodd" clip-rule="evenodd" d="M199.752 124.039C199.752 123.275 200.372 122.655 201.137 122.655L207.331 122.655C208.096 122.655 208.715 123.275 208.715 124.039L208.715 130.511C208.715 131.275 208.096 131.895 207.331 131.895L201.137 131.895C200.372 131.895 199.752 131.275 199.752 130.511L199.752 124.039ZM202.521 125.424L202.521 129.126L205.947 129.126L205.947 125.424L202.521 125.424Z" fill="#7D7D7D"/>
<path d="M207.331 103.517L201.137 103.517L201.137 109.989L207.331 109.989L207.331 103.517Z" fill="#7D7D7D"/>
<path fill-rule="evenodd" clip-rule="evenodd" d="M199.752 103.518C199.752 102.753 200.372 102.133 201.137 102.133L207.331 102.133C208.096 102.133 208.715 102.753 208.715 103.518L208.715 109.989C208.715 110.753 208.096 111.373 207.331 111.373L201.137 111.373C200.372 111.373 199.752 110.753 199.752 109.989L199.752 103.518ZM202.521 104.902L202.521 108.605L205.947 108.605L205.947 104.902L202.521 104.902Z" fill="#7D7D7D"/>
<path fill-rule="evenodd" clip-rule="evenodd" d="M40.4601 143.315C40.4601 142.55 41.0799 141.93 41.8444 141.93L99.8444 141.93C100.609 141.93 101.229 142.55 101.229 143.315C101.229 144.079 100.609 144.699 99.8444 144.699L41.8444 144.699C41.0799 144.699 40.4601 144.079 40.4601 143.315Z" fill="#7D7D7D"/>
<path d="M72.5747 150.375L69.0449 150.375C68.2143 150.375 67.5568 149.717 67.5568 148.886L67.5568 138.262C67.5568 137.432 68.2143 136.774 69.0449 136.774L72.5747 136.774C73.4052 136.774 74.0628 137.432 74.0628 138.262L74.0628 148.886C74.0628 149.717 73.3706 150.375 72.5747 150.375Z" fill="#7D7D7D"/>
<path fill-rule="evenodd" clip-rule="evenodd" d="M68.9682 138.185C68.9548 138.199 68.941 138.221 68.941 138.262L68.941 148.886C68.941 148.928 68.9548 148.949 68.9682 148.963C68.9816 148.976 69.0035 148.99 69.0449 148.99L72.5747 148.99C72.5884 148.99 72.6173 148.984 72.6462 148.955C72.672 148.93 72.6785 148.906 72.6785 148.886L72.6785 138.262C72.6785 138.221 72.6648 138.199 72.6514 138.185C72.638 138.172 72.6161 138.158 72.5747 138.158L69.0449 138.158C69.0035 138.158 68.9816 138.172 68.9682 138.185ZM66.1725 138.262C66.1725 136.667 67.4498 135.39 69.0449 135.39L72.5747 135.39C74.1698 135.39 75.447 136.667 75.447 138.262L75.447 148.886C75.447 150.502 74.1142 151.759 72.5747 151.759L69.0449 151.759C67.4498 151.759 66.1725 150.481 66.1725 148.886L66.1725 138.262Z" fill="#7D7D7D"/>
<path fill-rule="evenodd" clip-rule="evenodd" d="M105.947 203.093C106.666 202.833 107.46 203.204 107.721 203.922L111.389 214.027C111.65 214.746 111.279 215.54 110.56 215.801C109.842 216.062 109.047 215.691 108.787 214.972L105.118 204.867C104.858 204.148 105.229 203.354 105.947 203.093Z" fill="#7D7D7D"/>
<path d="M102.786 180.966L96.3145 183.354L68.4911 106.978L78.5962 103.31L96.7298 153.143L102.786 180.966Z" fill="#7D7D7D"/>
<path fill-rule="evenodd" clip-rule="evenodd" d="M78.1238 102.009C78.8421 101.748 79.6357 102.119 79.897 102.837L98.0306 152.67C98.0519 152.728 98.0692 152.788 98.0824 152.849L104.138 180.672C104.285 181.347 103.913 182.026 103.265 182.265L96.7937 184.653C96.4484 184.78 96.0665 184.765 95.7325 184.61C95.3985 184.455 95.1399 184.174 95.0139 183.828L67.1906 107.452C67.0648 107.107 67.0814 106.726 67.2368 106.393C67.3922 106.06 67.6735 105.803 68.0188 105.677L78.1238 102.009ZM70.2662 107.807L97.1394 181.574L101.177 180.085L95.3971 153.529L77.7684 105.083L70.2662 107.807Z" fill="#7D7D7D"/>
<path d="M104.184 191.516L99.8594 193.09L104.049 204.602L108.374 203.028L104.184 191.516Z" fill="#7D7D7D"/>
<path fill-rule="evenodd" clip-rule="evenodd" d="M98.5586 193.563C98.2972 192.845 98.6676 192.051 99.386 191.789L103.711 190.215C104.429 189.954 105.224 190.324 105.485 191.042L109.675 202.554C109.936 203.273 109.566 204.067 108.848 204.329L104.523 205.903C103.804 206.164 103.01 205.794 102.748 205.075L98.5586 193.563ZM101.634 193.917L104.876 202.828L106.6 202.2L103.357 193.29L101.634 193.917Z" fill="#7D7D7D"/>
<path d="M101.575 193.494C105.378 193.494 108.461 190.411 108.461 186.607C108.461 182.804 105.378 179.721 101.575 179.721C97.7713 179.721 94.688 182.804 94.688 186.607C94.688 190.411 97.7713 193.494 101.575 193.494Z" fill="#7D7D7D"/>
<path fill-rule="evenodd" clip-rule="evenodd" d="M101.575 181.105C98.5358 181.105 96.0723 183.569 96.0723 186.607C96.0723 189.646 98.5358 192.11 101.575 192.11C104.614 192.11 107.077 189.646 107.077 186.607C107.077 183.569 104.614 181.105 101.575 181.105ZM93.3038 186.607C93.3038 182.04 97.0068 178.337 101.575 178.337C106.143 178.337 109.846 182.04 109.846 186.607C109.846 191.175 106.143 194.878 101.575 194.878C97.0068 194.878 93.3038 191.175 93.3038 186.607Z" fill="#7D7D7D"/>
<path d="M38.9029 180.966L45.4089 183.354L73.1976 106.978L63.1272 103.31L44.959 153.143L38.9029 180.966Z" fill="#7D7D7D"/>
<path fill-rule="evenodd" clip-rule="evenodd" d="M61.8267 102.836C62.0885 102.118 62.8828 101.748 63.601 102.01L73.6714 105.678C74.3895 105.939 74.7597 106.733 74.4984 107.452L46.7096 183.828C46.5839 184.173 46.3258 184.455 45.9922 184.61C45.6587 184.765 45.2772 184.781 44.9319 184.654L38.4259 182.266C37.777 182.028 37.4033 181.347 37.5503 180.672L43.6064 152.849C43.6197 152.788 43.637 152.728 43.6584 152.669L61.8267 102.836ZM63.9537 105.084L46.2916 153.529L40.5119 180.082L44.5826 181.577L71.4237 107.805L63.9537 105.084Z" fill="#7D7D7D"/>
<path d="M37.5054 191.523L33.3157 203.035L37.6408 204.609L41.8305 193.097L37.5054 191.523Z" fill="#7D7D7D"/>
<path fill-rule="evenodd" clip-rule="evenodd" d="M32.8423 204.335C32.1239 204.074 31.7535 203.28 32.0149 202.561L36.2046 191.049C36.4661 190.331 37.2604 189.961 37.9788 190.222L42.3039 191.796C43.0223 192.058 43.3928 192.852 43.1313 193.57L38.9416 205.082C38.6801 205.801 37.8858 206.171 37.1674 205.91L32.8423 204.335ZM35.0899 202.207L36.8135 202.835L40.0563 193.924L38.3328 193.297L35.0899 202.207Z" fill="#7D7D7D"/>
<path fill-rule="evenodd" clip-rule="evenodd" d="M35.7416 203.093C36.4602 203.354 36.8313 204.148 36.5704 204.867L32.9021 214.972C32.6413 215.691 31.8472 216.062 31.1286 215.801C30.41 215.54 30.0389 214.746 30.2998 214.027L33.9681 203.922C34.2289 203.204 35.0229 202.833 35.7416 203.093Z" fill="#7D7D7D"/>
<path d="M40.1487 193.494C43.9521 193.494 47.0353 190.411 47.0353 186.607C47.0353 182.804 43.9521 179.721 40.1487 179.721C36.3453 179.721 33.2621 182.804 33.2621 186.607C33.2621 190.411 36.3453 193.494 40.1487 193.494Z" fill="#7D7D7D"/>
<path fill-rule="evenodd" clip-rule="evenodd" d="M40.1487 181.105C37.1098 181.105 34.6463 183.569 34.6463 186.607C34.6463 189.646 37.1098 192.11 40.1487 192.11C43.1876 192.11 45.6511 189.646 45.6511 186.607C45.6511 183.569 43.1876 181.105 40.1487 181.105ZM31.8778 186.607C31.8778 182.04 35.5808 178.337 40.1487 178.337C44.7166 178.337 48.4196 182.04 48.4196 186.607C48.4196 191.175 44.7166 194.878 40.1487 194.878C35.5808 194.878 31.8778 191.175 31.8778 186.607Z" fill="#7D7D7D"/>
<path d="M76.2083 124.697C72.6439 124.697 69.0449 124.697 65.4804 124.697C63.7501 124.697 62.089 123.382 61.6737 121.651C59.7704 113.623 58.4554 105.49 58.5938 97.4618C58.663 95.42 60.6356 93.6205 62.6773 93.6205C68.1451 93.6205 73.6129 93.6205 79.0807 93.6205C81.1224 93.6205 83.095 95.42 83.1642 97.4618C83.3026 105.49 81.9876 113.623 80.0842 121.651C79.5997 123.382 77.9386 124.697 76.2083 124.697Z" fill="#7D7D7D"/>
<path fill-rule="evenodd" clip-rule="evenodd" d="M59.9776 97.4985C59.8436 105.361 61.1317 113.364 63.0201 121.33C63.2897 122.45 64.4037 123.312 65.4804 123.312L76.2083 123.312C77.269 123.312 78.407 122.463 78.7444 121.302C80.6292 113.345 81.9142 105.352 81.7804 97.4985C81.7574 96.9131 81.455 96.2878 80.9187 95.7882C80.3788 95.2854 79.7014 95.0046 79.0807 95.0046L62.6773 95.0046C62.0566 95.0046 61.3792 95.2854 60.8393 95.7882C60.303 96.2878 60.0006 96.9131 59.9776 97.4985ZM58.9524 93.7624C59.9265 92.8551 61.2563 92.2361 62.6773 92.2361L79.0807 92.2361C80.5017 92.2361 81.8315 92.8551 82.8056 93.7624C83.7802 94.6702 84.4984 95.9613 84.5476 97.4147C84.5479 97.4224 84.5481 97.4301 84.5482 97.4378C84.6894 105.627 83.3481 113.885 81.4311 121.971C81.4286 121.981 81.4259 121.992 81.4231 122.003C81.4212 122.01 81.4192 122.017 81.4172 122.025C80.7768 124.312 78.601 126.081 76.2083 126.081L65.4804 126.081C63.097 126.081 60.8893 124.314 60.3277 121.974L60.3268 121.971C58.4099 113.885 57.0685 105.627 57.2097 97.4378C57.2099 97.4301 57.2101 97.4224 57.2103 97.4147C57.2596 95.9613 57.9777 94.6702 58.9524 93.7624Z" fill="#7D7D7D"/>
<path d="M76.8312 61.056L64.5807 61.056L64.5807 88.2565L76.8312 88.2565L76.8312 61.056Z" fill="#7D7D7D"/>
<path fill-rule="evenodd" clip-rule="evenodd" d="M63.1964 61.0556C63.1964 60.2911 63.8162 59.6714 64.5807 59.6714L76.8313 59.6714C77.5958 59.6714 78.2155 60.2911 78.2155 61.0556L78.2155 88.2561C78.2155 89.0206 77.5958 89.6404 76.8313 89.6404L64.5807 89.6404C63.8162 89.6404 63.1964 89.0206 63.1964 88.2561L63.1964 61.0556ZM65.9649 62.4399L65.9649 86.8719L75.447 86.8719L75.447 62.4399L65.9649 62.4399Z" fill="#7D7D7D"/>
<path d="M73.9935 88.2566L67.4876 88.2566L67.4876 93.6206L73.9935 93.6206L73.9935 88.2566Z" fill="#7D7D7D"/>
<path fill-rule="evenodd" clip-rule="evenodd" d="M66.1033 88.2568C66.1033 87.4923 66.7231 86.8726 67.4876 86.8726L73.9935 86.8726C74.758 86.8726 75.3778 87.4923 75.3778 88.2568L75.3778 93.6208C75.3778 94.3853 74.758 95.005 73.9935 95.005L67.4876 95.005C66.7231 95.005 66.1033 94.3853 66.1033 93.6208L66.1033 88.2568ZM68.8718 89.6411L68.8718 92.2365L72.6093 92.2365L72.6093 89.6411L68.8718 89.6411Z" fill="#7D7D7D"/>
<path fill-rule="evenodd" clip-rule="evenodd" d="M36.9995 141.584C36.9995 140.82 37.6193 140.2 38.3838 140.2L96.3838 140.2C97.1483 140.2 97.768 140.82 97.768 141.584C97.768 142.349 97.1483 142.969 96.3838 142.969L38.3838 142.969C37.6193 142.969 36.9995 142.349 36.9995 141.584Z" fill="#340600"/>
<path d="M69.1141 148.644L65.5842 148.644C64.7537 148.644 64.0962 147.987 64.0962 147.156L64.0962 136.532C64.0962 135.702 64.7537 135.044 65.5842 135.044L69.1141 135.044C69.9446 135.044 70.6021 135.702 70.6021 136.532L70.6021 147.156C70.6021 147.987 69.91 148.644 69.1141 148.644Z" fill="#BFBFBF"/>
<path d="M64.7191 135.286C64.3384 135.563 64.0616 136.013 64.0616 136.532L64.0616 147.156C64.0616 147.675 64.3384 148.125 64.7191 148.402C65.8265 147.398 66.657 144.837 66.657 141.861C66.657 138.85 65.8611 136.29 64.7191 135.286Z" fill="white"/>
<path fill-rule="evenodd" clip-rule="evenodd" d="M65.5842 136.082C65.3271 136.082 65.1344 136.275 65.1344 136.532L65.1344 147.156C65.1344 147.413 65.3271 147.606 65.5842 147.606L69.1141 147.606C69.3523 147.606 69.5639 147.398 69.5639 147.156L69.5639 136.532C69.5639 136.275 69.3712 136.082 69.1141 136.082L65.5842 136.082ZM63.058 136.532C63.058 135.128 64.1803 134.006 65.5842 134.006L69.1141 134.006C70.518 134.006 71.6403 135.128 71.6403 136.532L71.6403 147.156C71.6403 148.575 70.4677 149.682 69.1141 149.682L65.5842 149.682C64.1803 149.682 63.058 148.56 63.058 147.156L63.058 136.532Z" fill="#340600"/>
<path d="M99.3253 179.236L92.8539 181.624L65.0305 105.248L75.1355 101.58L93.2692 151.413L99.3253 179.236Z" fill="white"/>
<path d="M93.2692 151.413L75.1355 101.58L72.367 102.583L90.1546 151.413L96.2107 179.236L92.4732 180.62L92.8539 181.624L99.3253 179.236L93.2692 151.413Z" fill="#BFBFBF"/>
<path d="M75.4816 101.234L65.3766 104.902L73.1976 126.427C76.6582 126.358 79.7728 123.901 80.6033 120.475C80.8456 119.402 81.0878 118.364 81.33 117.326L75.4816 101.234Z" fill="#BFBFBF"/>
<path fill-rule="evenodd" clip-rule="evenodd" d="M102.487 201.364C103.205 201.103 103.999 201.474 104.26 202.193L107.928 212.298C108.189 213.016 107.818 213.81 107.099 214.071C106.381 214.332 105.587 213.961 105.326 213.242L101.658 203.137C101.397 202.419 101.768 201.625 102.487 201.364Z" fill="#340600"/>
<path d="M100.724 189.785L96.3988 191.359L100.589 202.871L104.914 201.297L100.724 189.785Z" fill="#BFBFBF"/>
<path fill-rule="evenodd" clip-rule="evenodd" d="M74.6632 100.279C75.3814 100.018 76.1751 100.389 76.4364 101.107L94.57 150.94C94.5913 150.998 94.6086 151.058 94.6218 151.118L100.678 178.942C100.825 179.616 100.452 180.296 99.8045 180.535L93.3331 182.923C92.9878 183.05 92.6059 183.035 92.2719 182.88C91.9379 182.725 91.6793 182.444 91.5533 182.098L63.7299 105.722C63.6042 105.377 63.6208 104.996 63.7762 104.663C63.9315 104.33 64.2129 104.072 64.5582 103.947L74.6632 100.279ZM66.8055 106.076L93.6788 179.844L97.7167 178.354L91.9365 151.798L74.3077 103.353L66.8055 106.076Z" fill="#340600"/>
<path fill-rule="evenodd" clip-rule="evenodd" d="M95.098 191.833C94.8366 191.115 95.207 190.32 95.9254 190.059L100.251 188.485C100.969 188.223 101.763 188.594 102.025 189.312L106.214 200.824C106.476 201.542 106.105 202.337 105.387 202.598L101.062 204.172C100.344 204.434 99.5492 204.063 99.2878 203.345L95.098 191.833ZM98.173 192.187L101.416 201.097L103.139 200.47L99.8966 191.56L98.173 192.187Z" fill="#340600"/>
<path d="M98.1141 191.764C101.917 191.764 105.001 188.68 105.001 184.877C105.001 181.074 101.917 177.99 98.1141 177.99C94.3107 177.99 91.2274 181.074 91.2274 184.877C91.2274 188.68 94.3107 191.764 98.1141 191.764Z" fill="white"/>
<path d="M99.879 182.039C96.3146 183.354 94.4458 187.299 95.7609 190.898C95.8301 191.106 95.8993 191.279 96.0031 191.452C97.422 191.902 98.9792 191.902 100.467 191.383C104.032 190.067 105.9 186.122 104.585 182.523C104.516 182.316 104.447 182.143 104.343 181.97C102.959 181.485 101.402 181.485 99.879 182.039Z" fill="#BFBFBF"/>
<path fill-rule="evenodd" clip-rule="evenodd" d="M98.1141 179.374C95.0752 179.374 92.6117 181.838 92.6117 184.877C92.6117 187.916 95.0752 190.379 98.1141 190.379C101.153 190.379 103.616 187.916 103.616 184.877C103.616 181.838 101.153 179.374 98.1141 179.374ZM89.8432 184.877C89.8432 180.309 93.5462 176.606 98.1141 176.606C102.682 176.606 106.385 180.309 106.385 184.877C106.385 189.445 102.682 193.148 98.1141 193.148C93.5462 193.148 89.8432 189.445 89.8432 184.877Z" fill="#340600"/>
<path d="M35.4423 179.236L41.9482 181.624L69.737 105.248L59.6666 101.58L41.4983 151.413L35.4423 179.236Z" fill="white"/>
<path d="M35.4423 179.236L41.9482 181.624L69.737 105.248L59.6666 101.58L41.4983 151.413L35.4423 179.236Z" fill="white"/>
<path d="M59.6666 101.58L59.2859 102.583L66.6224 105.248L39.1797 180.62L41.9482 181.624L69.737 105.248L59.6666 101.58Z" fill="#BFBFBF"/>
<path d="M60.3587 101.234L54.5103 117.326C54.7179 118.364 54.9601 119.402 55.237 120.475C56.0675 123.866 59.1821 126.323 62.6427 126.392L70.4637 104.867L60.3587 101.234Z" fill="#BFBFBF"/>
<path fill-rule="evenodd" clip-rule="evenodd" d="M58.3661 101.106C58.6279 100.388 59.4222 100.018 60.1404 100.279L70.2108 103.948C70.9289 104.209 71.2991 105.003 71.0378 105.721L43.249 182.097C43.1233 182.443 42.8651 182.724 42.5316 182.879C42.1981 183.034 41.8166 183.05 41.4713 182.924L34.9653 180.536C34.3164 180.298 33.9427 179.617 34.0897 178.942L40.1458 151.118C40.159 151.057 40.1764 150.997 40.1978 150.939L58.3661 101.106ZM60.4931 103.354L42.831 151.799L37.0513 178.352L41.122 179.846L67.9631 106.075L60.4931 103.354Z" fill="#340600"/>
<path d="M34.0449 189.792L29.8552 201.304L34.1803 202.878L38.37 191.366L34.0449 189.792Z" fill="#BFBFBF"/>
<path fill-rule="evenodd" clip-rule="evenodd" d="M29.3817 202.605C28.6633 202.343 28.2929 201.549 28.5544 200.831L32.7441 189.319C33.0055 188.6 33.7999 188.23 34.5183 188.491L38.8434 190.066C39.5618 190.327 39.9322 191.121 39.6707 191.84L35.481 203.352C35.2196 204.07 34.4252 204.44 33.7068 204.179L29.3817 202.605ZM31.6293 200.477L33.3529 201.104L36.5958 192.194L34.8722 191.566L31.6293 200.477Z" fill="#340600"/>
<path fill-rule="evenodd" clip-rule="evenodd" d="M32.2809 201.364C32.9995 201.625 33.3706 202.419 33.1098 203.137L29.4415 213.242C29.1806 213.961 28.3866 214.332 27.668 214.071C26.9494 213.81 26.5783 213.016 26.8392 212.298L30.5074 202.193C30.7683 201.474 31.5623 201.103 32.2809 201.364Z" fill="#340600"/>
<path d="M43.5601 185.108C43.6867 181.307 40.7079 178.123 36.9068 177.996C33.1057 177.87 29.9217 180.849 29.7952 184.65C29.6686 188.451 32.6474 191.635 36.4485 191.761C40.2496 191.888 43.4336 188.909 43.5601 185.108Z" fill="white"/>
<path d="M43.5601 185.108C43.6867 181.307 40.7079 178.123 36.9068 177.996C33.1057 177.87 29.9217 180.849 29.7952 184.65C29.6686 188.451 32.6474 191.635 36.4485 191.761C40.2496 191.888 43.4336 188.909 43.5601 185.108Z" fill="white"/>
<path d="M43.1594 187.23C43.8169 185.43 43.6785 183.562 42.9172 181.97C39.3873 180.828 35.5807 182.662 34.3348 186.157C33.6773 187.957 33.8157 189.825 34.5771 191.417C38.0723 192.559 41.879 190.725 43.1594 187.23Z" fill="#BFBFBF"/>
<path fill-rule="evenodd" clip-rule="evenodd" d="M31.1786 184.696C31.0774 187.733 33.4575 190.277 36.4945 190.378C39.5316 190.479 42.0756 188.099 42.1767 185.062C42.2779 182.025 39.8978 179.481 36.8608 179.38C33.8237 179.279 31.2797 181.659 31.1786 184.696ZM36.4024 193.145C31.8373 192.993 28.2597 189.169 28.4117 184.604C28.5638 180.039 32.3877 176.461 36.9529 176.613C41.518 176.765 45.0956 180.589 44.9436 185.154C44.7916 189.72 40.9675 193.297 36.4024 193.145Z" fill="#340600"/>
<path d="M72.7477 122.966C69.1833 122.966 65.5843 122.966 62.0198 122.966C60.2895 122.966 58.6284 121.651 58.2131 119.921C56.3098 111.892 54.9948 103.76 55.1332 95.7312C55.2024 93.6894 57.1749 91.8899 59.2167 91.8899C64.6845 91.8899 70.1523 91.8899 75.62 91.8899C77.6618 91.8899 79.6344 93.6894 79.7036 95.7312C79.842 103.76 78.527 111.892 76.6236 119.921C76.1391 121.651 74.478 122.966 72.7477 122.966Z" fill="#BFBFBF"/>
<path d="M58.0747 119.921C56.1713 111.892 54.8563 103.76 54.9947 95.7312C55.0639 93.6894 57.0365 91.8899 59.0783 91.8899C62.9888 91.8899 66.8646 91.8899 70.7751 91.8899C71.7095 96.1811 71.7095 100.818 70.5329 105.421C68.768 112.411 66.484 121.963 59.3551 121.963C58.7322 121.444 58.2823 120.717 58.0747 119.921Z" fill="white"/>
<path fill-rule="evenodd" clip-rule="evenodd" d="M56.517 95.7683C56.383 103.631 57.6711 111.634 59.5595 119.6C59.8291 120.72 60.9431 121.582 62.0198 121.582L72.7477 121.582C73.8084 121.582 74.9464 120.733 75.2838 119.572C77.1686 111.615 78.4536 103.622 78.3197 95.7683C78.2967 95.1829 77.9943 94.5576 77.458 94.058C76.9181 93.5551 76.2408 93.2744 75.62 93.2744L59.2167 93.2744C58.5959 93.2744 57.9186 93.5551 57.3787 94.058C56.8424 94.5576 56.54 95.1829 56.517 95.7683ZM55.4917 92.0322C56.4659 91.1248 57.7957 90.5059 59.2167 90.5059L75.62 90.5059C77.041 90.5059 78.3708 91.1248 79.345 92.0322C80.3196 92.94 81.0377 94.231 81.087 95.6845C81.0873 95.6922 81.0875 95.6999 81.0876 95.7075C81.2288 103.897 79.8875 112.154 77.9705 120.24C77.968 120.251 77.9653 120.262 77.9624 120.273C77.9606 120.28 77.9586 120.287 77.9566 120.294C77.3162 122.581 75.1404 124.351 72.7477 124.351L62.0198 124.351C59.6364 124.351 57.4287 122.584 56.8671 120.244L56.8662 120.24C54.9492 112.154 53.6079 103.897 53.7491 95.7075C53.7492 95.6999 53.7494 95.6922 53.7497 95.6845C53.799 94.231 54.5171 92.94 55.4917 92.0322Z" fill="#340600"/>
<path d="M73.3706 59.3252L61.12 59.3252L61.12 86.5257L73.3706 86.5257L73.3706 59.3252Z" fill="#BFBFBF"/>
<path d="M64.5806 59.3252L61.12 59.3252L61.12 86.5257L64.5806 86.5257L64.5806 59.3252Z" fill="#BFBFBF"/>
<path d="M73.4052 59.3252L69.0795 59.3252L69.0795 86.5257L73.4052 86.5257L73.4052 59.3252Z" fill="#BFBFBF"/>
<path fill-rule="evenodd" clip-rule="evenodd" d="M59.7358 59.3254C59.7358 58.5609 60.3555 57.9412 61.12 57.9412L73.3706 57.9412C74.1351 57.9412 74.7549 58.5609 74.7549 59.3254L74.7549 86.5259C74.7549 87.2904 74.1351 87.9101 73.3706 87.9101L61.12 87.9101C60.3555 87.9101 59.7358 87.2904 59.7358 86.5259L59.7358 59.3254ZM62.5043 60.7097L62.5043 85.1416L71.9864 85.1416L71.9864 60.7097L62.5043 60.7097Z" fill="#340600"/>
<path d="M70.5329 86.5262L64.0269 86.5262L64.0269 91.8902L70.5329 91.8902L70.5329 86.5262Z" fill="#606060"/>
<path fill-rule="evenodd" clip-rule="evenodd" d="M62.6427 86.526C62.6427 85.7615 63.2624 85.1417 64.0269 85.1417L70.5329 85.1417C71.2974 85.1417 71.9172 85.7615 71.9172 86.526L71.9172 91.8899C71.9172 92.6544 71.2974 93.2742 70.5329 93.2742L64.0269 93.2742C63.2624 93.2742 62.6427 92.6544 62.6427 91.8899L62.6427 86.526ZM65.4112 87.9102L65.4112 90.5057L69.1487 90.5057L69.1487 87.9102L65.4112 87.9102Z" fill="#340600"/>
<path fill-rule="evenodd" clip-rule="evenodd" d="M65.0305 63.132C65.6039 63.132 66.0687 63.5968 66.0687 64.1701L66.0687 79.8814C66.0687 80.4547 65.6039 80.9195 65.0305 80.9195C64.4572 80.9195 63.9923 80.4547 63.9923 79.8814L63.9923 64.1701C63.9923 63.5968 64.4572 63.132 65.0305 63.132Z" fill="#340600"/>
<path d="M67.9028 110.958C69.9097 110.958 71.5365 109.331 71.5365 107.324C71.5365 105.318 69.9097 103.691 67.9028 103.691C65.896 103.691 64.2692 105.318 64.2692 107.324C64.2692 109.331 65.896 110.958 67.9028 110.958Z" fill="#606060"/>
<path fill-rule="evenodd" clip-rule="evenodd" d="M67.9028 105.075C66.6605 105.075 65.6534 106.082 65.6534 107.324C65.6534 108.566 66.6605 109.574 67.9028 109.574C69.1452 109.574 70.1522 108.566 70.1522 107.324C70.1522 106.082 69.1452 105.075 67.9028 105.075ZM62.8849 107.324C62.8849 104.553 65.1315 102.306 67.9028 102.306C70.6742 102.306 72.9207 104.553 72.9207 107.324C72.9207 110.095 70.6742 112.342 67.9028 112.342C65.1315 112.342 62.8849 110.095 62.8849 107.324Z" fill="#340600"/>
<path d="M193.523 94.6583C174.767 94.6583 147.809 94.6583 129.052 94.6583C124.034 94.6583 119.605 97.9459 118.255 102.756C116.559 108.812 116.559 115.111 118.255 121.132C119.605 125.942 124.034 129.23 129.052 129.23L193.523 129.23C196.361 129.23 198.68 127.05 198.853 124.247C199.406 116.045 199.406 107.809 198.853 99.607C198.68 96.8385 196.326 94.6583 193.523 94.6583Z" fill="#1D4928"/>
<path fill-rule="evenodd" clip-rule="evenodd" d="M116.922 102.382C118.443 96.9602 123.429 93.2743 129.052 93.2743L193.523 93.2743C197.04 93.2743 200.012 96.0049 200.234 99.5162C200.792 107.778 200.792 116.075 200.234 124.337C200.013 127.872 197.086 130.614 193.523 130.614L129.052 130.614C123.429 130.614 118.444 126.929 116.922 121.507M119.588 103.13C120.766 98.9318 124.64 96.0428 129.052 96.0428L193.523 96.0428C195.611 96.0428 197.345 97.6701 197.471 99.6936L197.472 99.7005C198.021 107.84 198.021 116.014 197.472 124.154L197.471 124.162C197.343 126.23 195.634 127.846 193.523 127.846L129.052 127.846C124.639 127.846 120.766 124.957 119.588 120.758L119.587 120.757C117.961 114.982 117.96 108.943 119.588 103.13M116.922 102.382L116.922 102.383L116.922 102.382ZM116.922 102.383C115.158 108.682 115.157 115.239 116.922 121.507L116.922 102.383Z" fill="#340600"/>
<path fill-rule="evenodd" clip-rule="evenodd" d="M116.922 102.382C118.443 96.9602 123.429 93.2743 129.052 93.2743L193.523 93.2743C197.04 93.2743 200.012 96.0049 200.234 99.5162C200.792 107.778 200.792 116.075 200.234 124.337C200.013 127.872 197.086 130.614 193.523 130.614L129.052 130.614C123.429 130.614 118.444 126.929 116.922 121.507M119.588 103.13C120.766 98.9318 124.64 96.0428 129.052 96.0428L193.523 96.0428C195.611 96.0428 197.345 97.6701 197.471 99.6936L197.472 99.7005C198.021 107.84 198.021 116.014 197.472 124.154L197.471 124.162C197.343 126.23 195.634 127.846 193.523 127.846L129.052 127.846C124.639 127.846 120.766 124.957 119.588 120.758L119.587 120.757C117.961 114.982 117.96 108.943 119.588 103.13M116.922 102.382L116.922 102.383L116.922 102.382ZM116.922 102.383C115.158 108.682 115.157 115.239 116.922 121.507L116.922 102.383Z" fill="#340600"/>
<path d="M152.723 122.827C151.338 115.629 151.338 108.258 152.723 101.06C178.227 101.06 212.799 101.06 238.338 101.06C238.338 106.043 237.231 114.176 234.255 119.851C233.286 121.685 231.417 122.827 229.341 122.827L152.723 122.827Z" fill="#C4C4C4"/>
<path opacity="0.77" d="M236.089 101.06C235.743 105.94 234.566 112.342 232.109 117.083C231.14 118.917 229.272 120.059 227.195 120.059L152.238 120.059C152.377 120.993 152.515 121.928 152.688 122.862L229.306 122.862C231.383 122.862 233.251 121.72 234.22 119.886C237.196 114.211 238.304 106.078 238.304 101.095C237.577 101.06 236.85 101.06 236.089 101.06Z" fill="#C4C4C4"/>
<path fill-rule="evenodd" clip-rule="evenodd" d="M151.363 100.799C151.489 100.147 152.059 99.6761 152.723 99.6761L238.338 99.6761C239.103 99.6761 239.723 100.296 239.723 101.06C239.723 106.161 238.601 114.544 235.481 120.494L235.479 120.498C234.273 122.78 231.937 124.212 229.341 124.212L152.723 124.212C152.039 124.212 151.471 123.716 151.359 123.064C149.946 115.701 149.947 108.161 151.363 100.799ZM153.878 121.443L229.341 121.443C230.896 121.443 232.297 120.592 233.03 119.207C235.606 114.293 236.743 107.326 236.927 102.445L153.878 102.445C152.799 108.738 152.799 115.151 153.878 121.443Z" fill="#340600"/>
<path d="M238.027 105.836C238.2 104.106 238.304 102.444 238.304 101.06C212.799 101.06 178.227 101.06 152.688 101.06C152.377 102.652 152.169 104.244 151.996 105.836C178.124 105.836 211.726 105.836 238.027 105.836Z" fill="white"/>
<path fill-rule="evenodd" clip-rule="evenodd" d="M151.33 100.795C151.457 100.145 152.026 99.6761 152.688 99.6761L238.304 99.6761C239.068 99.6761 239.688 100.296 239.688 101.06C239.688 102.506 239.58 104.216 239.404 105.974C239.334 106.681 238.738 107.22 238.027 107.22L151.996 107.22C151.603 107.22 151.228 107.053 150.966 106.76C150.703 106.468 150.577 106.077 150.62 105.686C150.795 104.077 151.007 102.441 151.33 100.795ZM153.844 102.445C153.733 103.111 153.638 103.779 153.552 104.452L236.763 104.452C236.819 103.752 236.862 103.078 236.889 102.445L153.844 102.445Z" fill="#340600"/>
<path fill-rule="evenodd" clip-rule="evenodd" d="M155.641 105.2C156.374 105.417 156.793 106.187 156.577 106.92L151.766 123.219C151.55 123.953 150.78 124.372 150.047 124.155C149.314 123.939 148.895 123.169 149.111 122.436L153.921 106.136C154.138 105.403 154.907 104.984 155.641 105.2Z" fill="#340600"/>
<path fill-rule="evenodd" clip-rule="evenodd" d="M164.708 105.2C165.441 105.417 165.86 106.187 165.643 106.92L160.833 123.219C160.617 123.953 159.847 124.372 159.114 124.155C158.38 123.939 157.961 123.169 158.178 122.436L162.988 106.136C163.204 105.403 163.974 104.984 164.708 105.2Z" fill="#340600"/>
<path fill-rule="evenodd" clip-rule="evenodd" d="M173.74 105.2C174.473 105.417 174.892 106.187 174.676 106.92L169.865 123.219C169.649 123.953 168.879 124.372 168.146 124.155C167.413 123.939 166.994 123.169 167.21 122.436L172.02 106.136C172.237 105.403 173.007 104.984 173.74 105.2Z" fill="#340600"/>
<path fill-rule="evenodd" clip-rule="evenodd" d="M182.807 105.2C183.54 105.417 183.959 106.187 183.742 106.92L178.932 123.219C178.716 123.953 177.946 124.372 177.213 124.155C176.479 123.939 176.06 123.169 176.277 122.436L181.087 106.136C181.304 105.403 182.073 104.984 182.807 105.2Z" fill="#340600"/>
<path fill-rule="evenodd" clip-rule="evenodd" d="M191.873 105.2C192.607 105.417 193.026 106.187 192.809 106.92L187.999 123.219C187.783 123.953 187.013 124.372 186.28 124.155C185.546 123.939 185.127 123.169 185.344 122.436L190.154 106.136C190.37 105.403 191.14 104.984 191.873 105.2Z" fill="#340600"/>
<path fill-rule="evenodd" clip-rule="evenodd" d="M200.906 105.2C201.639 105.417 202.058 106.187 201.841 106.92L197.031 123.219C196.815 123.953 196.045 124.372 195.312 124.155C194.579 123.939 194.16 123.169 194.376 122.436L199.186 106.136C199.403 105.403 200.172 104.984 200.906 105.2Z" fill="#340600"/>
<path fill-rule="evenodd" clip-rule="evenodd" d="M209.972 105.2C210.706 105.417 211.125 106.187 210.908 106.92L206.098 123.219C205.882 123.953 205.112 124.372 204.379 124.155C203.645 123.939 203.226 123.169 203.443 122.436L208.253 106.136C208.469 105.403 209.239 104.984 209.972 105.2Z" fill="#340600"/>
<path fill-rule="evenodd" clip-rule="evenodd" d="M219.039 105.2C219.772 105.417 220.191 106.187 219.975 106.92L215.165 123.219C214.948 123.953 214.179 124.372 213.445 124.155C212.712 123.939 212.293 123.169 212.51 122.436L217.32 106.136C217.536 105.403 218.306 104.984 219.039 105.2Z" fill="#340600"/>
<path fill-rule="evenodd" clip-rule="evenodd" d="M228.071 105.2C228.805 105.417 229.224 106.187 229.007 106.92L224.197 123.219C223.981 123.953 223.211 124.372 222.478 124.155C221.744 123.939 221.325 123.169 221.542 122.436L226.352 106.136C226.568 105.403 227.338 104.984 228.071 105.2Z" fill="#340600"/>
<path d="M199.199 106.528C199.13 104.244 199.026 101.926 198.853 99.6416C198.68 96.8385 196.326 94.6583 193.523 94.6583C174.767 94.6583 147.809 94.6583 129.052 94.6583C124.034 94.6583 119.605 97.9459 118.255 102.756C117.909 104.002 117.632 105.248 117.424 106.528L199.199 106.528Z" fill="#47A942"/>
<path d="M130.229 99.6412C148.985 99.6412 175.943 99.6412 194.7 99.6412C196.43 99.6412 197.953 100.472 198.956 101.718C198.922 101.129 198.887 100.541 198.853 99.9527C198.68 97.1496 196.326 94.9694 193.523 94.9694C174.767 94.9694 147.809 94.9694 129.052 94.9694C124.034 94.9694 119.605 98.257 118.255 103.067C117.909 104.313 117.632 105.559 117.424 106.839L119.743 106.839C121.335 102.548 125.522 99.6412 130.229 99.6412Z" fill="#81C347"/>
<path d="M198.853 99.9878C198.68 97.1847 196.326 95.0045 193.523 95.0045C174.767 95.0045 147.809 95.0045 129.052 95.0045C124.034 95.0045 119.605 98.2921 118.255 103.102C117.909 104.348 117.632 105.594 117.424 106.874L117.494 106.874C117.597 106.459 117.701 106.044 117.805 105.629C119.155 100.818 123.584 97.5308 128.602 97.5308C147.359 97.5308 174.317 97.5308 193.073 97.5308C195.288 97.5308 197.192 98.8458 197.988 100.784C198.334 101.061 198.68 101.372 198.956 101.753C198.922 101.13 198.887 100.576 198.853 99.9878Z" fill="#CADB2A"/>
<path fill-rule="evenodd" clip-rule="evenodd" d="M116.925 102.382C118.446 96.9602 123.432 93.2743 129.055 93.2743L193.526 93.2743C197.047 93.2743 200.013 96.0078 200.237 99.5464C200.411 101.855 200.516 104.193 200.585 106.487C200.597 106.861 200.456 107.224 200.195 107.492C199.935 107.761 199.576 107.913 199.202 107.913L117.427 107.913C117.021 107.913 116.636 107.735 116.373 107.426C116.11 107.116 115.996 106.708 116.061 106.307C116.277 104.974 116.565 103.678 116.924 102.386L116.925 102.382ZM119.591 103.129C119.405 103.799 119.24 104.469 119.095 105.144L197.77 105.144C197.703 103.341 197.611 101.531 197.475 99.7464C197.475 99.74 197.474 99.7335 197.474 99.7271C197.347 97.6644 195.608 96.0428 193.526 96.0428L129.055 96.0428C124.643 96.0428 120.77 98.9313 119.591 103.129Z" fill="#340600"/>
<path d="M198.853 124.281C199.026 121.79 199.13 119.263 199.199 116.772L197.33 115.595L192.174 118.883L187.017 115.595L181.861 118.883L176.705 115.595L171.548 118.883L166.392 115.595L161.236 118.883L156.079 115.595L150.923 118.883L145.767 115.595L140.61 118.883L135.454 115.595L130.298 118.883L125.141 115.595L119.985 118.883L117.32 117.187C117.528 118.537 117.805 119.852 118.186 121.167C119.535 125.977 123.965 129.265 128.983 129.265L193.454 129.265C196.326 129.23 198.68 127.05 198.853 124.281Z" fill="#47A942"/>
<path d="M198.922 116.564C198.853 117.879 198.784 119.194 198.714 120.509C198.541 123.312 196.188 125.492 193.385 125.492L128.879 125.492C123.965 125.492 119.605 122.309 118.151 117.671L117.355 117.152C117.563 118.502 117.84 119.817 118.22 121.132C119.57 125.942 124 129.23 129.017 129.23L193.489 129.23C196.326 129.23 198.645 127.05 198.818 124.247C198.991 121.755 199.095 119.229 199.164 116.737L198.922 116.564Z" fill="#26863F"/>
<path fill-rule="evenodd" clip-rule="evenodd" d="M124.397 114.428C124.851 114.138 125.432 114.138 125.886 114.428L130.298 117.241L134.71 114.428C135.164 114.138 135.744 114.138 136.198 114.428L140.61 117.241L145.023 114.428C145.477 114.138 146.057 114.138 146.511 114.428L150.923 117.241L155.335 114.428C155.789 114.138 156.37 114.138 156.824 114.428L161.236 117.241L165.648 114.428C166.102 114.138 166.682 114.138 167.136 114.428L171.548 117.241L175.961 114.428C176.414 114.138 176.995 114.138 177.449 114.428L181.861 117.241L186.273 114.428C186.727 114.138 187.308 114.138 187.762 114.428L192.174 117.241L196.586 114.428C197.037 114.14 197.614 114.138 198.068 114.424L199.936 115.6C200.35 115.861 200.596 116.321 200.582 116.81C200.513 119.312 200.409 121.857 200.234 124.373C200.011 127.897 197.03 130.606 193.471 130.649L193.454 130.649L128.983 130.649C123.362 130.649 118.378 126.965 116.854 121.546C116.456 120.167 116.167 118.795 115.952 117.397C115.87 116.86 116.109 116.325 116.564 116.028C117.019 115.731 117.605 115.727 118.064 116.019L119.984 117.241L124.397 114.428ZM197.335 117.234L192.918 120.05C192.464 120.339 191.883 120.339 191.43 120.05L187.017 117.237L182.605 120.05C182.151 120.339 181.571 120.339 181.117 120.05L176.705 117.237L172.293 120.05C171.839 120.339 171.258 120.339 170.804 120.05L166.392 117.237L161.98 120.05C161.526 120.339 160.945 120.339 160.492 120.05L156.079 117.237L151.667 120.05C151.213 120.339 150.633 120.339 150.179 120.05L145.767 117.237L141.355 120.05C140.901 120.339 140.32 120.339 139.866 120.05L135.454 117.237L131.042 120.05C130.588 120.339 130.008 120.339 129.554 120.05L125.142 117.237L120.729 120.05C120.304 120.321 119.767 120.338 119.328 120.101C119.387 120.328 119.45 120.555 119.515 120.782L119.518 120.793C120.696 124.991 124.57 127.88 128.983 127.88L193.445 127.88C195.625 127.85 197.346 126.202 197.471 124.195L197.472 124.185C197.625 121.98 197.724 119.743 197.792 117.522L197.335 117.234Z" fill="#340600"/>
<path d="M154.764 121.167C159.695 121.167 163.693 117.169 163.693 112.238C163.693 107.307 159.695 103.31 154.764 103.31C149.833 103.31 145.836 107.307 145.836 112.238C145.836 117.169 149.833 121.167 154.764 121.167Z" fill="#CCCC00"/>
<path fill-rule="evenodd" clip-rule="evenodd" d="M154.764 104.694C150.598 104.694 147.22 108.072 147.22 112.238C147.22 116.405 150.598 119.782 154.764 119.782C158.931 119.782 162.309 116.405 162.309 112.238C162.309 108.072 158.931 104.694 154.764 104.694ZM144.452 112.238C144.452 106.543 149.069 101.925 154.764 101.925C160.46 101.925 165.077 106.543 165.077 112.238C165.077 117.934 160.46 122.551 154.764 122.551C149.069 122.551 144.452 117.934 144.452 112.238Z" fill="#340600"/>
<path d="M205.601 119.886L199.406 119.886L199.406 126.357L205.601 126.357L205.601 119.886Z" fill="#245B34"/>
<path fill-rule="evenodd" clip-rule="evenodd" d="M198.022 119.886C198.022 119.122 198.642 118.502 199.406 118.502L205.601 118.502C206.365 118.502 206.985 119.122 206.985 119.886L206.985 126.358C206.985 127.122 206.365 127.742 205.601 127.742L199.406 127.742C198.642 127.742 198.022 127.122 198.022 126.358L198.022 119.886ZM200.791 121.271L200.791 124.974L204.217 124.974L204.217 121.271L200.791 121.271Z" fill="#340600"/>
<path d="M205.601 99.7108L199.406 99.7108L199.406 106.182L205.601 106.182L205.601 99.7108Z" fill="#245B34"/>
<path fill-rule="evenodd" clip-rule="evenodd" d="M198.022 99.7104C198.022 98.9459 198.642 98.3262 199.406 98.3262L205.601 98.3262C206.365 98.3262 206.985 98.9459 206.985 99.7104L206.985 106.182C206.985 106.946 206.365 107.566 205.601 107.566L199.406 107.566C198.642 107.566 198.022 106.946 198.022 106.182L198.022 99.7104ZM200.791 101.095L200.791 104.798L204.217 104.798L204.217 101.095L200.791 101.095Z" fill="#340600"/>
<path fill-rule="evenodd" clip-rule="evenodd" d="M161.446 104.766C161.846 105.417 161.643 106.27 160.991 106.67L146.907 115.321C146.255 115.722 145.403 115.518 145.003 114.866C144.602 114.215 144.806 113.363 145.458 112.962L159.542 104.311C160.194 103.911 161.046 104.114 161.446 104.766Z" fill="#340600"/>
<path fill-rule="evenodd" clip-rule="evenodd" d="M164.837 109.609C165.238 110.26 165.035 111.113 164.384 111.514L150.334 120.165C149.683 120.566 148.83 120.363 148.429 119.712C148.029 119.061 148.231 118.209 148.882 117.808L162.932 109.156C163.583 108.755 164.436 108.958 164.837 109.609Z" fill="#340600"/>
<path d="M297.792 81.9922L124.622 81.9922C121.439 81.9922 118.843 79.3968 118.843 76.213L118.843 58.3908C118.843 55.207 121.439 52.6116 124.622 52.6116L297.792 52.6116C300.976 52.6116 303.571 55.207 303.571 58.3908L303.571 76.213C303.571 79.4314 300.976 81.9922 297.792 81.9922Z" fill="#7D7D7D"/>
<path fill-rule="evenodd" clip-rule="evenodd" d="M124.622 53.9955C122.203 53.9955 120.227 55.9713 120.227 58.3905L120.227 76.2127C120.227 78.632 122.203 80.6077 124.622 80.6077L297.792 80.6077C300.216 80.6077 302.187 78.6612 302.187 76.2127L302.187 58.3905C302.187 55.9713 300.211 53.9955 297.792 53.9955L124.622 53.9955ZM117.459 58.3905C117.459 54.4423 120.674 51.2271 124.622 51.2271L297.792 51.2271C301.74 51.2271 304.955 54.4423 304.955 58.3905L304.955 76.2127C304.955 80.201 301.735 83.3762 297.792 83.3762L124.622 83.3762C120.674 83.3762 117.459 80.161 117.459 76.2127L117.459 58.3905Z" fill="#7D7D7D"/>
<path d="M293.501 77.5629L120.331 77.5629C117.147 77.5629 114.552 74.9674 114.552 71.7837L114.552 53.9615C114.552 50.7777 117.147 48.1823 120.331 48.1823L293.501 48.1823C296.684 48.1823 299.28 50.7777 299.28 53.9615L299.28 71.7837C299.28 74.9674 296.684 77.5629 293.501 77.5629Z" fill="#FF9E03"/>
<path fill-rule="evenodd" clip-rule="evenodd" d="M120.331 49.5663C117.912 49.5663 115.936 51.5421 115.936 53.9613L115.936 71.7835C115.936 74.2028 117.912 76.1785 120.331 76.1785L293.501 76.1785C295.92 76.1785 297.896 74.2028 297.896 71.7835L297.896 53.9613C297.896 51.5421 295.92 49.5663 293.501 49.5663L120.331 49.5663ZM113.168 53.9613C113.168 50.0131 116.383 46.7979 120.331 46.7979L293.501 46.7979C297.449 46.7979 300.664 50.0131 300.664 53.9613L300.664 71.7835C300.664 75.7318 297.449 78.947 293.501 78.947L120.331 78.947C116.383 78.947 113.168 75.7318 113.168 71.7835L113.168 53.9613Z" fill="#340600"/>
<path fill-rule="evenodd" clip-rule="evenodd" d="M122.581 63.27C122.581 62.3144 123.355 61.5397 124.311 61.5397L287.445 61.5397C288.4 61.5397 289.175 62.3144 289.175 63.27C289.175 64.2256 288.4 65.0003 287.445 65.0003L124.311 65.0003C123.355 65.0003 122.581 64.2256 122.581 63.27Z" fill="#340600"/>
<path fill-rule="evenodd" clip-rule="evenodd" d="M238.511 54.0998L238.511 48.1821L239.55 48.1821L239.55 54.0998L238.511 54.0998Z" fill="#340600"/>
<path fill-rule="evenodd" clip-rule="evenodd" d="M242.733 51.262L242.733 48.182L243.772 48.182L243.772 51.262L242.733 51.262Z" fill="#340600"/>
<path fill-rule="evenodd" clip-rule="evenodd" d="M222.454 54.0998L222.454 48.1821L223.492 48.1821L223.492 54.0998L222.454 54.0998Z" fill="#340600"/>
<path fill-rule="evenodd" clip-rule="evenodd" d="M226.676 51.262L226.676 48.182L227.714 48.182L227.714 51.262L226.676 51.262Z" fill="#340600"/>
<path fill-rule="evenodd" clip-rule="evenodd" d="M234.393 51.262L234.393 48.182L235.431 48.182L235.431 51.262L234.393 51.262Z" fill="#340600"/>
<path fill-rule="evenodd" clip-rule="evenodd" d="M230.517 52.4732L230.517 48.182L231.556 48.182L231.556 52.4732L230.517 52.4732Z" fill="#340600"/>
<path fill-rule="evenodd" clip-rule="evenodd" d="M206.397 54.0998L206.397 48.1821L207.435 48.1821L207.435 54.0998L206.397 54.0998Z" fill="#340600"/>
<path fill-rule="evenodd" clip-rule="evenodd" d="M210.619 51.262L210.619 48.182L211.657 48.182L211.657 51.262L210.619 51.262Z" fill="#340600"/>
<path fill-rule="evenodd" clip-rule="evenodd" d="M218.336 51.262L218.336 48.182L219.374 48.182L219.374 51.262L218.336 51.262Z" fill="#340600"/>
<path fill-rule="evenodd" clip-rule="evenodd" d="M214.495 52.4732L214.495 48.182L215.533 48.182L215.533 52.4732L214.495 52.4732Z" fill="#340600"/>
<path fill-rule="evenodd" clip-rule="evenodd" d="M190.34 54.0998L190.34 48.1821L191.378 48.1821L191.378 54.0998L190.34 54.0998Z" fill="#340600"/>
<path fill-rule="evenodd" clip-rule="evenodd" d="M194.562 51.262L194.562 48.182L195.6 48.182L195.6 51.262L194.562 51.262Z" fill="#340600"/>
<path fill-rule="evenodd" clip-rule="evenodd" d="M202.279 51.262L202.279 48.182L203.317 48.182L203.317 51.262L202.279 51.262Z" fill="#340600"/>
<path fill-rule="evenodd" clip-rule="evenodd" d="M198.437 52.4732L198.437 48.182L199.476 48.182L199.476 52.4732L198.437 52.4732Z" fill="#340600"/>
<path fill-rule="evenodd" clip-rule="evenodd" d="M174.282 54.0998L174.282 48.1821L175.32 48.1821L175.32 54.0998L174.282 54.0998Z" fill="#340600"/>
<path fill-rule="evenodd" clip-rule="evenodd" d="M178.504 51.262L178.504 48.182L179.542 48.182L179.542 51.262L178.504 51.262Z" fill="#340600"/>
<path fill-rule="evenodd" clip-rule="evenodd" d="M186.221 51.262L186.221 48.182L187.26 48.182L187.26 51.262L186.221 51.262Z" fill="#340600"/>
<path fill-rule="evenodd" clip-rule="evenodd" d="M182.38 52.4732L182.38 48.182L183.418 48.182L183.418 52.4732L182.38 52.4732Z" fill="#340600"/>
<path fill-rule="evenodd" clip-rule="evenodd" d="M158.225 54.0998L158.225 48.1821L159.263 48.1821L159.263 54.0998L158.225 54.0998Z" fill="#340600"/>
<path fill-rule="evenodd" clip-rule="evenodd" d="M162.447 51.262L162.447 48.182L163.485 48.182L163.485 51.262L162.447 51.262Z" fill="#340600"/>
<path fill-rule="evenodd" clip-rule="evenodd" d="M170.199 51.262L170.199 48.182L171.237 48.182L171.237 51.262L170.199 51.262Z" fill="#340600"/>
<path fill-rule="evenodd" clip-rule="evenodd" d="M166.323 52.4732L166.323 48.182L167.361 48.182L167.361 52.4732L166.323 52.4732Z" fill="#340600"/>
<path fill-rule="evenodd" clip-rule="evenodd" d="M142.168 54.0998L142.168 48.1821L143.206 48.1821L143.206 54.0998L142.168 54.0998Z" fill="#340600"/>
<path fill-rule="evenodd" clip-rule="evenodd" d="M146.39 51.262L146.39 48.182L147.428 48.182L147.428 51.262L146.39 51.262Z" fill="#340600"/>
<path fill-rule="evenodd" clip-rule="evenodd" d="M154.141 51.262L154.141 48.182L155.18 48.182L155.18 51.262L154.141 51.262Z" fill="#340600"/>
<path fill-rule="evenodd" clip-rule="evenodd" d="M150.266 52.4732L150.266 48.182L151.304 48.182L151.304 52.4732L150.266 52.4732Z" fill="#340600"/>
<path fill-rule="evenodd" clip-rule="evenodd" d="M126.11 54.0999L126.11 48.1823L127.149 48.1823L127.149 54.0999L126.11 54.0999Z" fill="#340600"/>
<path fill-rule="evenodd" clip-rule="evenodd" d="M130.332 51.2621L130.332 48.1821L131.371 48.1821L131.371 51.2621L130.332 51.2621Z" fill="#340600"/>
<path fill-rule="evenodd" clip-rule="evenodd" d="M138.084 51.2621L138.084 48.1821L139.122 48.1821L139.122 51.2621L138.084 51.2621Z" fill="#340600"/>
<path fill-rule="evenodd" clip-rule="evenodd" d="M134.208 52.4733L134.208 48.1821L135.247 48.1821L135.247 52.4733L134.208 52.4733Z" fill="#340600"/>
<path d="M300.318 120.613L178.573 205.121C176.878 206.263 177.674 208.928 179.715 208.928L302.187 208.928C302.948 208.928 303.571 208.305 303.571 207.544L303.571 122.343C303.571 120.682 301.702 119.713 300.318 120.613ZM229.687 191.694L286.303 150.755L286.303 191.694L229.687 191.694Z" fill="#7D7D7D"/>
<path fill-rule="evenodd" clip-rule="evenodd" d="M299.564 119.452C301.829 117.98 304.955 119.537 304.955 122.343L304.955 207.544C304.955 209.069 303.713 210.312 302.187 210.312L179.715 210.312C176.277 210.312 175.002 205.869 177.791 203.979C177.794 203.977 177.797 203.975 177.8 203.973L299.529 119.476C299.54 119.468 299.552 119.46 299.564 119.452ZM301.086 121.765L179.363 206.258C179.357 206.262 179.352 206.266 179.347 206.269C178.756 206.667 179.074 207.544 179.715 207.544L302.184 207.544C302.185 207.543 302.185 207.543 302.186 207.542C302.186 207.542 302.186 207.542 302.187 207.541L302.187 122.343C302.187 121.832 301.586 121.453 301.086 121.765ZM286.932 149.522C287.395 149.759 287.687 150.235 287.687 150.755L287.687 191.694C287.687 192.459 287.067 193.078 286.303 193.078L229.687 193.078C229.087 193.078 228.555 192.691 228.37 192.12C228.185 191.549 228.389 190.924 228.876 190.572L285.491 149.633C285.913 149.328 286.469 149.286 286.932 149.522ZM233.963 190.31L284.918 190.31L284.918 153.464L233.963 190.31Z" fill="#7D7D7D"/>
<path d="M296.511 116.46L174.767 200.969C173.071 202.111 173.867 204.775 175.909 204.775L298.38 204.775C299.141 204.775 299.764 204.152 299.764 203.391L299.764 118.191C299.764 116.53 297.896 115.561 296.511 116.46ZM225.88 187.541L282.496 146.602L282.496 187.541L225.88 187.541Z" fill="#FF9E03"/>
<path fill-rule="evenodd" clip-rule="evenodd" d="M295.757 115.3C298.022 113.827 301.149 115.384 301.149 118.19L301.149 203.391C301.149 204.917 299.906 206.159 298.38 206.159L175.909 206.159C172.47 206.159 171.196 201.716 173.985 199.826C173.988 199.824 173.991 199.822 173.994 199.82L295.722 115.323C295.734 115.315 295.745 115.307 295.757 115.3ZM297.279 117.612L175.556 202.106C175.551 202.109 175.545 202.113 175.54 202.117C174.949 202.514 175.267 203.391 175.909 203.391L298.378 203.391C298.378 203.391 298.378 203.39 298.379 203.39C298.379 203.389 298.38 203.389 298.38 203.388L298.38 118.19C298.38 117.679 297.78 117.301 297.279 117.612ZM283.126 145.37C283.589 145.606 283.88 146.082 283.88 146.602L283.88 187.541C283.88 188.306 283.26 188.926 282.496 188.926L225.88 188.926C225.28 188.926 224.748 188.539 224.563 187.968C224.378 187.396 224.583 186.771 225.069 186.42L281.685 145.48C282.106 145.176 282.663 145.133 283.126 145.37ZM230.157 186.157L281.112 186.157L281.112 149.311L230.157 186.157Z" fill="#340600"/>
<path fill-rule="evenodd" clip-rule="evenodd" d="M230.69 198.996L230.69 204.706L229.652 204.706L229.652 198.996L230.69 198.996Z" fill="#340600"/>
<path fill-rule="evenodd" clip-rule="evenodd" d="M234.774 201.73L234.774 204.706L233.736 204.706L233.736 201.73L234.774 201.73Z" fill="#340600"/>
<path fill-rule="evenodd" clip-rule="evenodd" d="M242.283 201.73L242.283 204.706L241.245 204.706L241.245 201.73L242.283 201.73Z" fill="#340600"/>
<path fill-rule="evenodd" clip-rule="evenodd" d="M238.511 200.553L238.511 204.706L237.473 204.706L237.473 200.553L238.511 200.553Z" fill="#340600"/>
<path fill-rule="evenodd" clip-rule="evenodd" d="M215.118 198.996L215.118 204.706L214.079 204.706L214.079 198.996L215.118 198.996Z" fill="#340600"/>
<path fill-rule="evenodd" clip-rule="evenodd" d="M219.201 201.73L219.201 204.706L218.163 204.706L218.163 201.73L219.201 201.73Z" fill="#340600"/>
<path fill-rule="evenodd" clip-rule="evenodd" d="M226.711 201.73L226.711 204.706L225.672 204.706L225.672 201.73L226.711 201.73Z" fill="#340600"/>
<path fill-rule="evenodd" clip-rule="evenodd" d="M222.939 200.553L222.939 204.706L221.9 204.706L221.9 200.553L222.939 200.553Z" fill="#340600"/>
<path fill-rule="evenodd" clip-rule="evenodd" d="M199.545 198.996L199.545 204.706L198.507 204.706L198.507 198.996L199.545 198.996Z" fill="#340600"/>
<path fill-rule="evenodd" clip-rule="evenodd" d="M203.628 201.73L203.628 204.706L202.59 204.706L202.59 201.73L203.628 201.73Z" fill="#340600"/>
<path fill-rule="evenodd" clip-rule="evenodd" d="M211.138 201.73L211.138 204.706L210.1 204.706L210.1 201.73L211.138 201.73Z" fill="#340600"/>
<path fill-rule="evenodd" clip-rule="evenodd" d="M207.366 200.553L207.366 204.706L206.328 204.706L206.328 200.553L207.366 200.553Z" fill="#340600"/>
<path fill-rule="evenodd" clip-rule="evenodd" d="M183.972 198.996L183.972 204.706L182.934 204.706L182.934 198.996L183.972 198.996Z" fill="#340600"/>
<path fill-rule="evenodd" clip-rule="evenodd" d="M188.056 201.729L188.056 204.706L187.017 204.706L187.017 201.729L188.056 201.729Z" fill="#340600"/>
<path fill-rule="evenodd" clip-rule="evenodd" d="M195.565 201.729L195.565 204.706L194.527 204.706L194.527 201.729L195.565 201.729Z" fill="#340600"/>
<path fill-rule="evenodd" clip-rule="evenodd" d="M191.793 200.553L191.793 204.705L190.755 204.705L190.755 200.553L191.793 200.553Z" fill="#340600"/>
<path d="M173.971 179.443L125.141 179.443C123.1 179.443 121.439 177.782 121.439 175.74L121.439 156.499C121.439 154.457 123.1 152.796 125.141 152.796L174.005 152.796C176.047 152.796 177.708 154.457 177.708 156.499L177.708 175.74C177.674 177.782 176.013 179.443 173.971 179.443Z" fill="#7D7D7D"/>
<path fill-rule="evenodd" clip-rule="evenodd" d="M125.141 154.181C123.864 154.181 122.823 155.222 122.823 156.499L122.823 175.74C122.823 177.018 123.864 178.059 125.141 178.059L173.971 178.059C175.24 178.059 176.297 177.023 176.324 175.727L176.324 156.499C176.324 155.222 175.283 154.181 174.005 154.181L125.141 154.181ZM120.054 156.499C120.054 153.693 122.335 151.412 125.141 151.412L174.005 151.412C176.812 151.412 179.093 153.693 179.093 156.499L179.093 175.74C179.093 175.748 179.092 175.756 179.092 175.764C179.045 178.547 176.782 180.827 173.971 180.827L125.141 180.827C122.335 180.827 120.054 178.547 120.054 175.74L120.054 156.499Z" fill="#7D7D7D"/>
<path d="M163.035 181.623L130.263 181.623C129.225 181.623 128.36 180.758 128.36 179.72L128.36 152.139C128.36 151.101 129.225 150.235 130.263 150.235L163.035 150.235C164.073 150.235 164.939 151.101 164.939 152.139L164.939 179.72C164.939 180.758 164.108 181.623 163.035 181.623Z" fill="#7D7D7D"/>
<path fill-rule="evenodd" clip-rule="evenodd" d="M130.263 151.62C129.989 151.62 129.744 151.865 129.744 152.139L129.744 179.72C129.744 179.994 129.989 180.239 130.263 180.239L163.035 180.239C163.327 180.239 163.554 180.01 163.554 179.72L163.554 152.139C163.554 151.865 163.309 151.62 163.035 151.62L130.263 151.62ZM126.976 152.139C126.976 150.336 128.46 148.851 130.263 148.851L163.035 148.851C164.838 148.851 166.323 150.336 166.323 152.139L166.323 179.72C166.323 181.506 164.889 183.008 163.035 183.008L130.263 183.008C128.46 183.008 126.976 181.523 126.976 179.72L126.976 152.139Z" fill="#7D7D7D"/>
<path d="M170.856 175.983L122.027 175.983C119.985 175.983 118.324 174.322 118.324 172.28L118.324 153.039C118.324 150.997 119.985 149.336 122.027 149.336L170.891 149.336C172.933 149.336 174.594 150.997 174.594 153.039L174.594 172.28C174.559 174.322 172.898 175.983 170.856 175.983Z" fill="white"/>
<path d="M161.582 175.983L125.591 175.983C123.55 175.983 121.888 174.322 121.888 172.28L121.888 153.039C121.888 150.997 123.55 149.336 125.591 149.336L161.582 149.336C163.624 149.336 165.285 150.997 165.285 153.039L165.285 172.28C165.285 174.322 163.624 175.983 161.582 175.983Z" fill="#BFBFBF"/>
<path fill-rule="evenodd" clip-rule="evenodd" d="M122.027 150.72C120.75 150.72 119.708 151.762 119.708 153.039L119.708 172.28C119.708 173.557 120.75 174.599 122.027 174.599L170.856 174.599C172.126 174.599 173.182 173.562 173.209 172.267L173.209 153.039C173.209 151.762 172.168 150.72 170.891 150.72L122.027 150.72ZM116.94 153.039C116.94 150.233 119.221 147.952 122.027 147.952L170.891 147.952C173.697 147.952 175.978 150.233 175.978 153.039L175.978 172.28C175.978 172.288 175.978 172.296 175.978 172.303C175.931 175.087 173.667 177.367 170.856 177.367L122.027 177.367C119.221 177.367 116.94 175.086 116.94 172.28L116.94 153.039Z" fill="#340600"/>
<path d="M159.921 178.163L127.149 178.163C126.11 178.163 125.245 177.298 125.245 176.26L125.245 148.678C125.245 147.64 126.11 146.775 127.149 146.775L159.921 146.775C160.959 146.775 161.824 147.64 161.824 148.678L161.824 176.26C161.824 177.298 160.994 178.163 159.921 178.163Z" fill="#06A0FF"/>
<path opacity="0.27" d="M159.921 178.163L127.149 178.163C126.11 178.163 125.245 177.298 125.245 176.26L125.245 175.81C125.245 174.772 126.11 173.907 127.149 173.907L159.921 173.907C160.959 173.907 161.824 174.772 161.824 175.81L161.824 176.26C161.824 177.298 160.994 178.163 159.921 178.163Z" fill="#06A0FF"/>
<path opacity="0.38" d="M159.921 151.482L127.149 151.482C126.11 151.482 125.245 150.617 125.245 149.578L125.245 149.128C125.245 148.09 126.11 147.225 127.149 147.225L159.921 147.225C160.959 147.225 161.824 148.09 161.824 149.128L161.824 149.578C161.824 150.617 160.994 151.482 159.921 151.482Z" fill="#06A0FF"/>
<path fill-rule="evenodd" clip-rule="evenodd" d="M127.149 148.159C126.875 148.159 126.63 148.405 126.63 148.679L126.63 176.26C126.63 176.533 126.875 176.779 127.149 176.779L159.921 176.779C160.213 176.779 160.44 176.55 160.44 176.26L160.44 148.679C160.44 148.405 160.194 148.159 159.921 148.159L127.149 148.159ZM123.861 148.679C123.861 146.876 125.346 145.391 127.149 145.391L159.921 145.391C161.723 145.391 163.208 146.876 163.208 148.679L163.208 176.26C163.208 178.046 161.774 179.547 159.921 179.547L127.149 179.547C125.346 179.547 123.861 178.062 123.861 176.26L123.861 148.679Z" fill="#340600"/>
<path opacity="0.58" fill-rule="evenodd" clip-rule="evenodd" d="M131.267 156.569C131.267 155.804 131.887 155.184 132.651 155.184L151.684 155.184C152.449 155.184 153.069 155.804 153.069 156.569C153.069 157.333 152.449 157.953 151.684 157.953L132.651 157.953C131.887 157.953 131.267 157.333 131.267 156.569Z" fill="#340600"/>
<path opacity="0.58" fill-rule="evenodd" clip-rule="evenodd" d="M131.267 162.659C131.267 161.895 131.887 161.275 132.651 161.275L140.61 161.275C141.375 161.275 141.995 161.895 141.995 162.659C141.995 163.424 141.375 164.044 140.61 164.044L132.651 164.044C131.887 164.044 131.267 163.424 131.267 162.659Z" fill="#340600"/>
</g>
</svg>
