<svg width="195" height="186" viewBox="0 0 195 186" fill="none" xmlns="http://www.w3.org/2000/svg">
<g opacity="0.3">
<g opacity="0.4">
<g opacity="0.4">
<path opacity="0.4" d="M178.394 82.5217L167.491 63.5887L178.394 44.6558H200.232L211.168 63.5887L200.232 82.5217H178.394Z" fill="#424242"/>
<path opacity="0.4" fill-rule="evenodd" clip-rule="evenodd" d="M177.828 43.6765H200.798L212.299 63.5888L200.798 83.501H177.828L166.361 63.5888L177.828 43.6765ZM178.96 45.6351L168.621 63.5888L178.96 81.5424H199.667L210.037 63.5888L199.667 45.6351H178.96Z" fill="#424242"/>
</g>
<g opacity="0.4">
<path opacity="0.4" fill-rule="evenodd" clip-rule="evenodd" d="M177.828 0H200.798L212.299 19.9123L200.798 39.8245H177.828L166.361 19.9123L177.828 0ZM178.96 1.95858L168.621 19.9123L178.96 37.8659H199.667L210.037 19.9123L199.667 1.95858H178.96Z" fill="#424242"/>
</g>
</g>
<g opacity="0.4">
<g opacity="0.4">
<path opacity="0.4" fill-rule="evenodd" clip-rule="evenodd" d="M139.962 65.5143H162.932L174.433 85.4265L162.932 105.339H139.962L128.495 85.4265L139.962 65.5143ZM141.094 67.4729L130.756 85.4265L141.094 103.38H161.801L172.171 85.4265L161.801 67.4729H141.094Z" fill="#424242"/>
</g>
<g opacity="0.4">
<path opacity="0.4" d="M140.528 60.6833L129.625 41.7503L140.528 22.8174H162.366L173.302 41.7503L162.366 60.6833H140.528Z" fill="#424242"/>
<path opacity="0.4" fill-rule="evenodd" clip-rule="evenodd" d="M139.962 21.838H162.932L174.433 41.7503L162.932 61.6625H139.962L128.495 41.7503L139.962 21.838ZM141.094 23.7966L130.756 41.7503L141.094 59.7039H161.801L172.171 41.7503L161.801 23.7966H141.094Z" fill="#424242"/>
</g>
</g>
<g opacity="0.4">
<g opacity="0.4">
<path opacity="0.4" d="M102.695 126.198L91.7596 107.265L102.695 88.332H124.533L135.436 107.265L124.533 126.198H102.695Z" fill="#424242"/>
<path opacity="0.4" fill-rule="evenodd" clip-rule="evenodd" d="M102.13 87.3525H125.099L136.566 107.265L125.099 127.177H102.13L90.6287 107.265L102.13 87.3525ZM103.26 89.3111L92.8905 107.265L103.26 125.218H123.967L134.306 107.265L123.967 89.3111H103.26Z" fill="#424242"/>
</g>
<g opacity="0.4">
<path opacity="0.4" fill-rule="evenodd" clip-rule="evenodd" d="M102.13 43.6765H125.099L136.566 63.5888L125.099 83.501H102.13L90.6287 63.5888L102.13 43.6765ZM103.26 45.6351L92.8905 63.5888L103.26 81.5424H123.967L134.306 63.5888L123.967 45.6351H103.26Z" fill="#424242"/>
</g>
<g opacity="0.4">
<path opacity="0.4" fill-rule="evenodd" clip-rule="evenodd" d="M102.13 0H125.099L136.566 19.9123L125.099 39.8245H102.13L90.6287 19.9123L102.13 0ZM103.26 1.95858L92.8905 19.9123L103.26 37.8659H123.967L134.306 19.9123L123.967 1.95858H103.26Z" fill="#424242"/>
</g>
</g>
<g opacity="0.4">
<g opacity="0.4">
<path opacity="0.4" d="M64.8291 60.6833L53.8936 41.7503L64.8291 22.8174H86.6673L97.57 41.7503L86.6673 60.6833H64.8291Z" fill="#424242"/>
<path opacity="0.4" fill-rule="evenodd" clip-rule="evenodd" d="M64.2638 21.838H87.2334L98.7001 41.7503L87.2334 61.6625H64.2638L52.7627 41.7503L64.2638 21.838ZM65.3943 23.7966L55.0245 41.7503L65.3943 59.7039H86.1011L96.4399 41.7503L86.1011 23.7966H65.3943Z" fill="#424242"/>
</g>
</g>
<g opacity="0.4">
<g opacity="0.4">
<path opacity="0.4" d="M26.9631 126.198L16.0277 107.265L26.9631 88.3324H48.8013L59.7367 107.265L48.8013 126.198H26.9631Z" fill="#424242"/>
<path opacity="0.4" fill-rule="evenodd" clip-rule="evenodd" d="M26.3978 87.353H49.3666L60.8676 107.265L49.3666 127.178H26.3978L14.8968 107.265L26.3978 87.353ZM27.5284 89.3116L17.1586 107.265L27.5284 125.219H48.236L58.6058 107.265L48.236 89.3116H27.5284Z" fill="#424242"/>
</g>
<g opacity="0.4">
<path opacity="0.4" fill-rule="evenodd" clip-rule="evenodd" d="M26.3979 43.6765H49.3666L60.8677 63.5888L49.3666 83.501H26.3979L14.8968 63.5888L26.3979 43.6765ZM27.5284 45.6351L17.1586 63.5888L27.5284 81.5424H48.236L58.6058 63.5888L48.236 45.6351H27.5284Z" fill="#424242"/>
</g>
</g>
<path fill-rule="evenodd" clip-rule="evenodd" d="M0 184.694C0 183.973 0.584591 183.389 1.30572 183.389H246.128C246.85 183.389 247.434 183.973 247.434 184.694C247.434 185.416 246.85 186 246.128 186H1.30572C0.584591 186 0 185.416 0 184.694Z" fill="#3F2975"/>
<path d="M147.024 179.145C144.935 176.892 142.324 174.934 139.059 173.465V55.7213L142.813 49.2253C144.478 46.3201 142.389 42.7294 139.059 42.7294H136.774H113.369C110.986 42.7294 109.028 44.6553 109.028 47.0709V173.497C105.764 174.966 102.956 176.925 100.867 179.177H100.769C99.2023 179.177 97.9619 180.45 97.9619 181.985V184.4H149.864V181.985C149.832 180.418 148.559 179.145 147.024 179.145Z" fill="white"/>
<path fill-rule="evenodd" clip-rule="evenodd" d="M107.722 47.2017C107.722 44.3432 110.021 42.0441 112.88 42.0441H139.059C143.089 42.0441 145.584 46.4746 143.451 49.9352L143.451 49.936L140.027 55.4795C139.822 55.8229 139.712 56.2029 139.712 56.6029V172.84C142.697 174.266 145.144 176.1 147.146 178.192C149.015 178.417 150.476 180.026 150.517 181.931C150.517 181.938 150.517 181.945 150.517 181.952V184.694C150.517 185.235 150.079 185.673 149.538 185.673H97.6354C97.0945 185.673 96.6561 185.235 96.6561 184.694V182.605C96.6561 180.45 98.315 178.681 100.425 178.506C102.378 176.409 104.715 174.316 107.722 172.843V47.2017ZM112.88 44.0026C111.103 44.0026 109.681 45.4249 109.681 47.2017V173.465C109.681 173.85 109.455 174.2 109.103 174.358C106.013 175.749 103.638 177.892 101.59 180.132C101.404 180.335 101.142 180.451 100.867 180.451H100.769C99.5799 180.451 98.6147 181.416 98.6147 182.605V183.715H148.559V181.964C148.532 180.954 147.684 180.124 146.698 180.124C146.425 180.124 146.165 180.011 145.98 179.811C143.978 177.652 141.473 175.772 138.331 174.358C137.98 174.2 137.754 173.85 137.754 173.465V56.6029C137.754 55.8296 137.969 55.1015 138.35 54.4669L138.357 54.4561L141.784 48.9076" fill="#3F2975"/>
<path d="M137.166 177.643L134.489 176.436V83.8273H134.424C134.424 80.3671 131.617 77.5598 128.157 77.5598C125.317 77.5598 122.934 79.4531 122.15 82.0319C121.661 81.7055 121.073 81.5423 120.453 81.5423C119.017 81.5423 117.809 82.5216 117.45 83.8273H113.598V176.403L110.921 177.611C109.517 178.231 108.244 178.982 107.069 179.765H140.92C139.778 178.982 138.537 178.264 137.166 177.643Z" fill="#EC1CE4"/>
<path fill-rule="evenodd" clip-rule="evenodd" d="M121.612 80.7208C122.779 78.2822 125.259 76.5803 128.157 76.5803C132.031 76.5803 135.198 79.6245 135.394 83.4508C135.442 83.5666 135.469 83.6938 135.469 83.8271V175.803L137.57 176.751C138.998 177.397 140.288 178.144 141.474 178.957C141.828 179.2 141.983 179.645 141.855 180.055C141.728 180.465 141.349 180.744 140.92 180.744H107.069C106.638 180.744 106.257 180.462 106.132 180.049C106.007 179.636 106.167 179.19 106.526 178.95C107.731 178.147 109.053 177.366 110.521 176.717C110.522 176.716 110.524 176.715 110.525 176.715L112.619 175.77V83.8271C112.619 83.2862 113.057 82.8478 113.598 82.8478H116.78C117.445 81.5025 118.837 80.5628 120.453 80.5628C120.846 80.5628 121.237 80.6143 121.612 80.7208ZM133.51 84.1794C133.468 84.0701 133.445 83.9513 133.445 83.8271C133.445 80.9078 131.076 78.5389 128.157 78.5389C125.766 78.5389 123.751 80.1327 123.087 82.3164C122.997 82.6128 122.772 82.8492 122.481 82.9537C122.189 83.0581 121.865 83.0184 121.607 82.8465C121.296 82.6389 120.902 82.5214 120.453 82.5214C119.471 82.5214 118.64 83.193 118.394 84.0867C118.277 84.5118 117.891 84.8064 117.45 84.8064H114.577V176.403C114.577 176.788 114.352 177.137 114.001 177.295L111.324 178.503L111.317 178.506C111.113 178.596 110.911 178.69 110.712 178.786H137.297C137.121 178.701 136.944 178.617 136.763 178.536C136.763 178.536 136.763 178.536 136.763 178.536C136.763 178.536 136.763 178.536 136.762 178.535L134.087 177.328C133.736 177.17 133.51 176.82 133.51 176.435V84.1794Z" fill="#3F2975"/>
<path d="M119.637 67.5055C121.35 67.5055 122.738 66.1171 122.738 64.4044C122.738 62.6917 121.35 61.3033 119.637 61.3033C117.924 61.3033 116.536 62.6917 116.536 64.4044C116.536 66.1171 117.924 67.5055 119.637 67.5055Z" fill="#EC1CE4"/>
<path fill-rule="evenodd" clip-rule="evenodd" d="M119.637 62.2829C118.465 62.2829 117.515 63.2329 117.515 64.4047C117.515 65.5766 118.465 66.5265 119.637 66.5265C120.809 66.5265 121.759 65.5766 121.759 64.4047C121.759 63.2329 120.809 62.2829 119.637 62.2829ZM115.556 64.4047C115.556 62.1512 117.383 60.3243 119.637 60.3243C121.89 60.3243 123.717 62.1512 123.717 64.4047C123.717 66.6583 121.89 68.4851 119.637 68.4851C117.383 68.4851 115.556 66.6583 115.556 64.4047Z" fill="#3F2975"/>
<path d="M122.901 36.821C125.876 36.821 128.287 34.4096 128.287 31.4349C128.287 28.4603 125.876 26.0488 122.901 26.0488C119.926 26.0488 117.515 28.4603 117.515 31.4349C117.515 34.4096 119.926 36.821 122.901 36.821Z" fill="#EC1CE4"/>
<path fill-rule="evenodd" clip-rule="evenodd" d="M122.901 27.028C120.467 27.028 118.494 29.001 118.494 31.4348C118.494 33.8687 120.467 35.8417 122.901 35.8417C125.335 35.8417 127.308 33.8687 127.308 31.4348C127.308 29.001 125.335 27.028 122.901 27.028ZM116.536 31.4348C116.536 27.9193 119.386 25.0695 122.901 25.0695C126.417 25.0695 129.267 27.9193 129.267 31.4348C129.267 34.9504 126.417 37.8002 122.901 37.8002C119.386 37.8002 116.536 34.9504 116.536 31.4348Z" fill="#3F2975"/>
<path d="M129.756 22.0992C130.91 22.0992 131.845 21.1639 131.845 20.0101C131.845 18.8562 130.91 17.9209 129.756 17.9209C128.602 17.9209 127.667 18.8562 127.667 20.0101C127.667 21.1639 128.602 22.0992 129.756 22.0992Z" fill="#EC1CE4"/>
<path fill-rule="evenodd" clip-rule="evenodd" d="M129.756 18.9C129.143 18.9 128.646 19.3969 128.646 20.0098C128.646 20.6228 129.143 21.1197 129.756 21.1197C130.369 21.1197 130.866 20.6228 130.866 20.0098C130.866 19.3969 130.369 18.9 129.756 18.9ZM126.688 20.0098C126.688 18.3152 128.062 16.9414 129.756 16.9414C131.451 16.9414 132.825 18.3152 132.825 20.0098C132.825 21.7045 131.451 23.0783 129.756 23.0783C128.062 23.0783 126.688 21.7045 126.688 20.0098Z" fill="#3F2975"/>
<path d="M128.777 57.8761C129.498 57.8761 130.083 57.2915 130.083 56.5704C130.083 55.8492 129.498 55.2646 128.777 55.2646C128.056 55.2646 127.471 55.8492 127.471 56.5704C127.471 57.2915 128.056 57.8761 128.777 57.8761Z" fill="#EC1CE4"/>
<path fill-rule="evenodd" clip-rule="evenodd" d="M128.777 56.2437C128.597 56.2437 128.45 56.3899 128.45 56.5702C128.45 56.7505 128.597 56.8966 128.777 56.8966C128.957 56.8966 129.103 56.7505 129.103 56.5702C129.103 56.3899 128.957 56.2437 128.777 56.2437ZM126.492 56.5702C126.492 55.3082 127.515 54.2852 128.777 54.2852C130.039 54.2852 131.062 55.3082 131.062 56.5702C131.062 57.8321 130.039 58.8552 128.777 58.8552C127.515 58.8552 126.492 57.8321 126.492 56.5702Z" fill="#3F2975"/>
<path d="M124.631 115.817C125.208 115.817 125.676 115.35 125.676 114.773C125.676 114.196 125.208 113.728 124.631 113.728C124.054 113.728 123.587 114.196 123.587 114.773C123.587 115.35 124.054 115.817 124.631 115.817Z" fill="#3F2975"/>
<path d="M122.934 132.987C124.737 132.987 126.198 131.526 126.198 129.723C126.198 127.92 124.737 126.459 122.934 126.459C121.131 126.459 119.669 127.92 119.669 129.723C119.669 131.526 121.131 132.987 122.934 132.987Z" fill="#3F2975"/>
<path d="M127.177 147.808C127.971 147.808 128.614 147.164 128.614 146.371C128.614 145.578 127.971 144.935 127.177 144.935C126.384 144.935 125.741 145.578 125.741 146.371C125.741 147.164 126.384 147.808 127.177 147.808Z" fill="#3F2975"/>
<path d="M93.6856 120.812V71.7493H76.0583V120.812C60.7161 124.729 49.1278 138.994 49.1278 155.805C49.1278 167.557 54.9383 177.839 63.654 184.694H106.743C115.458 177.839 120.943 167.557 120.943 155.805C120.943 139.027 109.354 124.762 93.6856 120.812Z" fill="white"/>
<path fill-rule="evenodd" clip-rule="evenodd" d="M75.079 71.7496C75.079 71.2087 75.5175 70.7703 76.0583 70.7703H93.6856C94.2264 70.7703 94.6649 71.2087 94.6649 71.7496V120.057C110.383 124.371 121.922 138.834 121.922 155.805C121.922 167.876 116.284 178.436 107.348 185.464C107.176 185.6 106.962 185.674 106.743 185.674H63.654C63.4344 185.674 63.2212 185.6 63.0486 185.464C54.1281 178.448 48.1485 167.895 48.1485 155.805C48.1485 138.811 59.6762 124.349 75.079 120.06V71.7496ZM77.0376 72.7288V120.812C77.0376 121.26 76.7342 121.65 76.3006 121.761C61.3868 125.569 50.1071 139.447 50.1071 155.805C50.1071 167.1 55.6319 177.023 63.9952 183.715H106.401C114.743 177.035 119.963 167.118 119.963 155.805C119.963 139.485 108.689 125.604 93.4462 121.762C93.0112 121.652 92.7063 121.261 92.7063 120.812V72.7288H77.0376Z" fill="#3F2975"/>
<path d="M113.696 142.585H104.98C104.849 140.757 103.315 139.321 101.455 139.321C99.5939 139.321 98.0597 140.757 97.9291 142.585H97.5701C97.4069 139.321 94.6975 136.709 91.4005 136.709C90.356 136.709 89.3767 136.97 88.528 137.427C87.3528 134.032 84.1211 131.584 80.3019 131.584C76.1236 131.584 72.5982 134.555 71.7821 138.504C70.9986 137.982 70.052 137.688 69.0401 137.688C66.298 137.688 64.0783 139.875 63.9804 142.585H56.701C54.8403 146.665 53.8611 151.17 53.8611 155.642C53.8611 165.043 58.0067 173.824 65.2208 179.798H105.143C112.39 173.824 116.503 165.043 116.503 155.642C116.536 151.17 115.556 146.665 113.696 142.585Z" fill="#FF5959"/>
<path fill-rule="evenodd" clip-rule="evenodd" d="M71.1591 137.091C72.4787 133.314 76.0915 130.605 80.3019 130.605C84.174 130.605 87.5031 132.867 89.0528 136.128C89.7859 135.87 90.5768 135.73 91.4006 135.73C94.3183 135.73 96.8354 137.492 97.9481 140.007C98.7776 138.989 100.044 138.341 101.455 138.341C103.51 138.341 105.257 139.715 105.797 141.605H113.696C114.079 141.605 114.428 141.829 114.587 142.178C116.505 146.385 117.516 151.029 117.482 155.646C117.481 165.336 113.239 174.393 105.766 180.553C105.591 180.698 105.371 180.777 105.143 180.777H65.2208C64.9928 180.777 64.7719 180.698 64.5963 180.552C57.1579 174.393 52.8818 165.335 52.8818 155.642C52.8818 151.029 53.8913 146.386 55.81 142.178C55.9691 141.829 56.3174 141.605 56.701 141.605H63.1099C63.6513 138.827 66.0892 136.709 69.0401 136.709C69.7814 136.709 70.4974 136.842 71.1591 137.091ZM80.3019 132.563C76.5948 132.563 73.4646 135.201 72.7411 138.703C72.6752 139.021 72.4552 139.287 72.154 139.41C71.8528 139.534 71.5098 139.5 71.2389 139.319C70.6183 138.905 69.861 138.668 69.0401 138.668C66.8332 138.668 65.0382 140.429 64.9591 142.62C64.94 143.147 64.5075 143.564 63.9804 143.564H57.338C55.7004 147.364 54.8404 151.519 54.8404 155.642C54.8404 164.634 58.7528 173.036 65.5768 178.819H104.789C111.641 173.038 115.524 164.636 115.524 155.642L115.524 155.635C115.554 151.516 114.696 147.364 113.059 143.564H104.98C104.466 143.564 104.04 143.167 104.003 142.655C103.909 141.341 102.803 140.3 101.455 140.3C100.106 140.3 98.9998 141.341 98.906 142.655C98.8694 143.167 98.4429 143.564 97.9292 143.564H97.5701C97.0482 143.564 96.6181 143.155 96.592 142.634C96.4546 139.886 94.1713 137.688 91.4006 137.688C90.5207 137.688 89.7007 137.908 88.9923 138.289C88.7395 138.425 88.4397 138.444 88.1722 138.34C87.9047 138.235 87.6965 138.019 87.6026 137.747C86.5599 134.735 83.6916 132.563 80.3019 132.563Z" fill="#3F2975"/>
<path fill-rule="evenodd" clip-rule="evenodd" d="M80.3019 132.563C76.014 132.563 72.5655 136.04 72.5655 140.3C72.5655 141.279 72.7681 142.266 73.1157 143.135C73.3166 143.637 73.0723 144.207 72.5701 144.408C72.068 144.609 71.4981 144.365 71.2972 143.862C70.8613 142.773 70.6069 141.54 70.6069 140.3C70.6069 134.963 74.9275 130.605 80.3019 130.605C84.5217 130.605 88.1104 133.332 89.4506 137.099C89.6319 137.608 89.3658 138.168 88.8562 138.35C88.3467 138.531 87.7866 138.265 87.6053 137.755C86.53 134.733 83.6553 132.563 80.3019 132.563Z" fill="#3F2975"/>
<path fill-rule="evenodd" clip-rule="evenodd" d="M91.4006 137.689C89.2324 137.689 87.3889 139.004 86.5889 140.88C86.3767 141.378 85.8014 141.609 85.3039 141.397C84.8064 141.184 84.5751 140.609 84.7873 140.112C85.8806 137.548 88.4112 135.73 91.4006 135.73C95.369 135.73 98.5821 138.943 98.5821 142.911C98.5821 143.452 98.1436 143.891 97.6028 143.891C97.0619 143.891 96.6235 143.452 96.6235 142.911C96.6235 140.025 94.2873 137.689 91.4006 137.689Z" fill="#3F2975"/>
<path fill-rule="evenodd" clip-rule="evenodd" d="M101.455 140.3C100.064 140.3 98.9085 141.434 98.9085 142.846C98.9085 143.387 98.4701 143.825 97.9292 143.825C97.3884 143.825 96.9499 143.387 96.9499 142.846C96.9499 140.341 98.9938 138.341 101.455 138.341C103.96 138.341 105.959 140.385 105.959 142.846C105.959 143.387 105.521 143.825 104.98 143.825C104.439 143.825 104.001 143.387 104.001 142.846C104.001 141.455 102.867 140.3 101.455 140.3Z" fill="#3F2975"/>
<path d="M90.9109 59.0187H78.833V79.2574H90.9109V59.0187Z" fill="#D29C5E"/>
<path fill-rule="evenodd" clip-rule="evenodd" d="M77.8537 59.0186C77.8537 58.4778 78.2921 58.0393 78.833 58.0393H90.9109C91.4518 58.0393 91.8902 58.4778 91.8902 59.0186V79.2573C91.8902 79.7981 91.4518 80.2366 90.9109 80.2366H78.833C78.2921 80.2366 77.8537 79.7981 77.8537 79.2573V59.0186ZM79.8123 59.9979V78.278H89.9316V59.9979H79.8123Z" fill="#3F2975"/>
<path d="M94.8281 71.423H75.2423C73.0879 71.423 71.3251 69.6602 71.3251 67.5058C71.3251 65.3513 73.0879 63.5886 75.2423 63.5886H94.8281C96.9826 63.5886 98.7453 65.3513 98.7453 67.5058C98.7453 69.6602 96.9826 71.423 94.8281 71.423Z" fill="#D9D6E5"/>
<path fill-rule="evenodd" clip-rule="evenodd" d="M75.2423 64.5682C73.6287 64.5682 72.3044 65.8925 72.3044 67.5061C72.3044 69.1197 73.6287 70.4439 75.2423 70.4439H94.8281C96.4417 70.4439 97.766 69.1197 97.766 67.5061C97.766 65.8925 96.4417 64.5682 94.8281 64.5682H75.2423ZM70.3458 67.5061C70.3458 64.8108 72.547 62.6096 75.2423 62.6096H94.8281C97.5234 62.6096 99.7246 64.8108 99.7246 67.5061C99.7246 70.2014 97.5234 72.4025 94.8281 72.4025H75.2423C72.547 72.4025 70.3458 70.2014 70.3458 67.5061Z" fill="#3F2975"/>
<path d="M90.0295 130.866C92.2289 130.866 94.012 129.083 94.012 126.884C94.012 124.684 92.2289 122.901 90.0295 122.901C87.8301 122.901 86.0471 124.684 86.0471 126.884C86.0471 129.083 87.8301 130.866 90.0295 130.866Z" fill="#FF5959"/>
<path d="M85.8513 94.8279C86.8429 94.8279 87.6467 94.0241 87.6467 93.0325C87.6467 92.041 86.8429 91.2372 85.8513 91.2372C84.8598 91.2372 84.0559 92.041 84.0559 93.0325C84.0559 94.0241 84.8598 94.8279 85.8513 94.8279Z" fill="#FF5959"/>
<path d="M82.4237 108.179C83.6857 108.179 84.7088 107.156 84.7088 105.894C84.7088 104.632 83.6857 103.609 82.4237 103.609C81.1618 103.609 80.1387 104.632 80.1387 105.894C80.1387 107.156 81.1618 108.179 82.4237 108.179Z" fill="#FF5959"/>
<path fill-rule="evenodd" clip-rule="evenodd" d="M90.0296 123.88C88.371 123.88 87.0264 125.225 87.0264 126.884C87.0264 128.542 88.371 129.887 90.0296 129.887C91.6882 129.887 93.0327 128.542 93.0327 126.884C93.0327 125.225 91.6882 123.88 90.0296 123.88ZM85.0678 126.884C85.0678 124.143 87.2893 121.922 90.0296 121.922C92.7699 121.922 94.9913 124.143 94.9913 126.884C94.9913 129.624 92.7699 131.845 90.0296 131.845C87.2893 131.845 85.0678 129.624 85.0678 126.884Z" fill="#3F2975"/>
<path fill-rule="evenodd" clip-rule="evenodd" d="M85.8512 92.7063C85.671 92.7063 85.5248 92.8524 85.5248 93.0327C85.5248 93.213 85.671 93.3591 85.8512 93.3591C86.0315 93.3591 86.1777 93.213 86.1777 93.0327C86.1777 92.8524 86.0315 92.7063 85.8512 92.7063ZM83.5662 93.0327C83.5662 91.7707 84.5893 90.7477 85.8512 90.7477C87.1132 90.7477 88.1362 91.7707 88.1362 93.0327C88.1362 94.2947 87.1132 95.3177 85.8512 95.3177C84.5893 95.3177 83.5662 94.2947 83.5662 93.0327Z" fill="#3F2975"/>
<path fill-rule="evenodd" clip-rule="evenodd" d="M82.4238 104.588C81.7026 104.588 81.118 105.173 81.118 105.894C81.118 106.615 81.7026 107.2 82.4238 107.2C83.1449 107.2 83.7295 106.615 83.7295 105.894C83.7295 105.173 83.1449 104.588 82.4238 104.588ZM79.1595 105.894C79.1595 104.091 80.6209 102.63 82.4238 102.63C84.2266 102.63 85.6881 104.091 85.6881 105.894C85.6881 107.697 84.2266 109.158 82.4238 109.158C80.6209 109.158 79.1595 107.697 79.1595 105.894Z" fill="#3F2975"/>
<path d="M102.271 132.661C102.812 132.661 103.25 132.223 103.25 131.682C103.25 131.141 102.812 130.703 102.271 130.703C101.73 130.703 101.291 131.141 101.291 131.682C101.291 132.223 101.73 132.661 102.271 132.661Z" fill="#FF5959"/>
<path fill-rule="evenodd" clip-rule="evenodd" d="M102.271 131.519C102.181 131.519 102.108 131.592 102.108 131.682C102.108 131.772 102.181 131.845 102.271 131.845C102.361 131.845 102.434 131.772 102.434 131.682C102.434 131.592 102.361 131.519 102.271 131.519ZM100.475 131.682C100.475 130.69 101.279 129.887 102.271 129.887C103.262 129.887 104.066 130.69 104.066 131.682C104.066 132.674 103.262 133.477 102.271 133.477C101.279 133.477 100.475 132.674 100.475 131.682Z" fill="#3F2975"/>
<path fill-rule="evenodd" clip-rule="evenodd" d="M96.395 135.175C96.7014 135.175 96.9499 134.927 96.9499 134.62C96.9499 134.314 96.7015 134.065 96.395 134.065C96.0884 134.065 95.84 134.314 95.84 134.62C95.84 134.927 96.0885 135.175 96.395 135.175ZM95.3177 134.62C95.3177 134.025 95.8 133.543 96.395 133.543C96.9899 133.543 97.4722 134.025 97.4722 134.62C97.4722 135.215 96.9899 135.697 96.395 135.697C95.8 135.697 95.3177 135.215 95.3177 134.62Z" fill="#3F2975"/>
<path d="M78.3434 164.782C78.8842 164.782 79.3227 164.344 79.3227 163.803C79.3227 163.262 78.8842 162.824 78.3434 162.824C77.8025 162.824 77.3641 163.262 77.3641 163.803C77.3641 164.344 77.8025 164.782 78.3434 164.782Z" fill="#3F2975"/>
<path d="M85.5249 173.727C86.6787 173.727 87.614 172.791 87.614 171.638C87.614 170.484 86.6787 169.548 85.5249 169.548C84.371 169.548 83.4357 170.484 83.4357 171.638C83.4357 172.791 84.371 173.727 85.5249 173.727Z" fill="#3F2975"/>
<path d="M88.4627 161.191C89.0036 161.191 89.442 160.753 89.442 160.212C89.442 159.671 89.0036 159.233 88.4627 159.233C87.9219 159.233 87.4834 159.671 87.4834 160.212C87.4834 160.753 87.9219 161.191 88.4627 161.191Z" fill="#3F2975"/>
<path d="M95.3177 171.768C95.9306 171.768 96.4275 171.271 96.4275 170.658C96.4275 170.045 95.9306 169.548 95.3177 169.548C94.7047 169.548 94.2078 170.045 94.2078 170.658C94.2078 171.271 94.7047 171.768 95.3177 171.768Z" fill="#3F2975"/>
<path d="M169.972 87.7442H149.309C147.155 87.7442 145.392 85.9815 145.392 83.8271C145.392 81.6726 147.155 79.9099 149.309 79.9099H169.972C172.127 79.9099 173.889 81.6726 173.889 83.8271C173.889 85.9815 172.127 87.7442 169.972 87.7442Z" fill="#D9D6E5"/>
<path fill-rule="evenodd" clip-rule="evenodd" d="M149.309 80.8895C147.696 80.8895 146.371 82.2138 146.371 83.8274C146.371 85.441 147.696 86.7652 149.309 86.7652H169.972C171.586 86.7652 172.91 85.441 172.91 83.8274C172.91 82.2138 171.586 80.8895 169.972 80.8895H149.309ZM144.413 83.8274C144.413 81.1321 146.614 78.9309 149.309 78.9309H169.972C172.668 78.9309 174.869 81.1321 174.869 83.8274C174.869 86.5227 172.668 88.7238 169.972 88.7238H149.309C146.614 88.7238 144.413 86.5227 144.413 83.8274Z" fill="#3F2975"/>
<path d="M168.438 129.527V87.7444H150.811V129.527L122.215 174.346C119.441 178.688 122.509 184.368 127.667 184.368H191.353C196.511 184.368 199.71 178.688 196.935 174.346L168.438 129.527Z" fill="white"/>
<path fill-rule="evenodd" clip-rule="evenodd" d="M149.831 87.7442C149.831 87.2033 150.27 86.7649 150.811 86.7649H168.438C168.979 86.7649 169.417 87.2033 169.417 87.7442V129.242L197.761 173.819C197.761 173.819 197.761 173.82 197.761 173.82C200.964 178.834 197.26 185.347 191.353 185.347H127.667C121.725 185.347 118.205 178.804 121.39 173.819M121.39 173.819L149.831 129.241V87.7442M151.79 88.7235V129.527C151.79 129.714 151.737 129.897 151.636 130.054L123.041 174.873L123.041 174.874C120.677 178.572 123.293 183.388 127.667 183.388H191.353C195.762 183.388 198.455 178.543 196.11 174.874L196.109 174.872L167.612 130.053C167.512 129.896 167.459 129.713 167.459 129.527V88.7235H151.79Z" fill="#3F2975"/>
<path d="M193.051 176.762L181.561 158.678C180.353 155.806 177.741 153.847 174.705 153.847C173.171 153.847 171.702 154.369 170.527 155.251C169.156 153.782 167.296 152.868 165.239 152.868C162.366 152.868 159.853 154.663 158.58 157.274H157.209C155.838 155.773 153.945 154.826 151.855 154.826C149.766 154.826 147.873 155.773 146.502 157.274H145.914C144.87 157.895 143.662 158.254 142.356 158.254C141.051 158.254 139.875 157.895 138.798 157.274H138.472L126.035 176.762C125.415 177.742 125.774 178.525 125.904 178.754C126.1 179.145 126.622 179.766 127.634 179.766H191.321C192.398 179.766 192.92 179.047 193.084 178.754C193.345 178.297 193.541 177.578 193.051 176.762Z" fill="#0CF9C3"/>
<path fill-rule="evenodd" clip-rule="evenodd" d="M157.99 156.295C159.479 153.691 162.151 151.888 165.239 151.888C167.303 151.888 169.178 152.693 170.643 153.996C171.843 153.28 173.246 152.867 174.705 152.867C178.162 152.867 181.077 155.079 182.43 158.22L193.877 176.237C193.88 176.241 193.883 176.245 193.885 176.25C193.887 176.253 193.889 176.255 193.891 176.258C194.613 177.462 194.316 178.568 193.936 179.235C193.69 179.674 192.905 180.745 191.321 180.745H127.634C126.164 180.745 125.357 179.832 125.04 179.215C124.81 178.799 124.333 177.619 125.207 176.238L125.209 176.235L137.646 156.747C137.826 156.465 138.137 156.295 138.472 156.295H138.798C138.97 156.295 139.138 156.34 139.287 156.425C140.233 156.97 141.241 157.274 142.356 157.274C143.478 157.274 144.514 156.967 145.414 156.432C145.566 156.342 145.738 156.295 145.914 156.295H146.084C147.592 154.797 149.615 153.847 151.855 153.847C154.096 153.847 156.119 154.797 157.626 156.295H157.99ZM165.239 153.847C162.795 153.847 160.594 155.377 159.46 157.703C159.296 158.04 158.954 158.253 158.58 158.253H157.209C156.934 158.253 156.671 158.138 156.486 157.934C155.278 156.612 153.638 155.805 151.855 155.805C150.073 155.805 148.433 156.612 147.225 157.934C147.039 158.138 146.777 158.253 146.502 158.253H146.174C145.041 158.875 143.746 159.233 142.356 159.233C141.097 159.233 139.947 158.94 138.894 158.432L126.862 177.286C126.862 177.286 126.861 177.287 126.861 177.287C126.67 177.59 126.652 177.817 126.664 177.959C126.677 178.119 126.734 178.232 126.754 178.267C126.763 178.283 126.772 178.299 126.78 178.315C126.863 178.482 127.099 178.786 127.634 178.786H191.321C191.884 178.786 192.143 178.429 192.227 178.278L192.233 178.267C192.309 178.135 192.362 177.987 192.371 177.833C192.38 177.694 192.355 177.51 192.217 177.275L180.734 159.203C180.704 159.157 180.679 159.108 180.658 159.057C179.58 156.495 177.292 154.826 174.705 154.826C173.393 154.826 172.128 155.274 171.115 156.034C170.715 156.334 170.152 156.284 169.811 155.918C168.603 154.624 166.993 153.847 165.239 153.847Z" fill="#3F2975"/>
<path d="M156.262 147.644C158.065 147.644 159.526 146.183 159.526 144.38C159.526 142.577 158.065 141.116 156.262 141.116C154.459 141.116 152.998 142.577 152.998 144.38C152.998 146.183 154.459 147.644 156.262 147.644Z" fill="#0CF9C3"/>
<path fill-rule="evenodd" clip-rule="evenodd" d="M156.262 142.095C155 142.095 153.977 143.118 153.977 144.38C153.977 145.642 155 146.665 156.262 146.665C157.524 146.665 158.547 145.642 158.547 144.38C158.547 143.118 157.524 142.095 156.262 142.095ZM152.019 144.38C152.019 142.037 153.918 140.137 156.262 140.137C158.606 140.137 160.506 142.037 160.506 144.38C160.506 146.724 158.606 148.624 156.262 148.624C153.918 148.624 152.019 146.724 152.019 144.38Z" fill="#3F2975"/>
<path d="M167.557 148.689C168.747 148.689 169.711 147.724 169.711 146.534C169.711 145.344 168.747 144.38 167.557 144.38C166.367 144.38 165.402 145.344 165.402 146.534C165.402 147.724 166.367 148.689 167.557 148.689Z" fill="#0CF9C3"/>
<path fill-rule="evenodd" clip-rule="evenodd" d="M167.557 145.359C166.908 145.359 166.381 145.886 166.381 146.535C166.381 147.184 166.908 147.71 167.557 147.71C168.206 147.71 168.732 147.184 168.732 146.535C168.732 145.886 168.206 145.359 167.557 145.359ZM164.423 146.535C164.423 144.804 165.826 143.401 167.557 143.401C169.287 143.401 170.69 144.804 170.69 146.535C170.69 148.265 169.287 149.668 167.557 149.668C165.826 149.668 164.423 148.265 164.423 146.535Z" fill="#3F2975"/>
<path d="M160.669 128.222C161.606 128.222 162.366 127.462 162.366 126.525C162.366 125.587 161.606 124.827 160.669 124.827C159.731 124.827 158.971 125.587 158.971 126.525C158.971 127.462 159.731 128.222 160.669 128.222Z" fill="#0CF9C3"/>
<path fill-rule="evenodd" clip-rule="evenodd" d="M160.669 125.806C160.272 125.806 159.951 126.128 159.951 126.525C159.951 126.921 160.272 127.243 160.669 127.243C161.066 127.243 161.387 126.921 161.387 126.525C161.387 126.128 161.066 125.806 160.669 125.806ZM157.992 126.525C157.992 125.046 159.191 123.848 160.669 123.848C162.147 123.848 163.346 125.046 163.346 126.525C163.346 128.003 162.147 129.201 160.669 129.201C159.191 129.201 157.992 128.003 157.992 126.525Z" fill="#3F2975"/>
<path d="M155.054 166.871C156.208 166.871 157.143 165.936 157.143 164.782C157.143 163.628 156.208 162.693 155.054 162.693C153.901 162.693 152.965 163.628 152.965 164.782C152.965 165.936 153.901 166.871 155.054 166.871Z" fill="#3F2975"/>
<path d="M168.699 170.658C169.276 170.658 169.744 170.19 169.744 169.613C169.744 169.037 169.276 168.569 168.699 168.569C168.122 168.569 167.655 169.037 167.655 169.613C167.655 170.19 168.122 170.658 168.699 170.658Z" fill="#3F2975"/>
<path fill-rule="evenodd" clip-rule="evenodd" d="M162.268 107.494C162.431 107.494 162.562 107.362 162.562 107.2C162.562 107.038 162.431 106.906 162.268 106.906C162.106 106.906 161.975 107.038 161.975 107.2C161.975 107.362 162.106 107.494 162.268 107.494ZM160.604 107.2C160.604 106.281 161.349 105.535 162.268 105.535C163.188 105.535 163.933 106.28 163.933 107.2C163.933 108.119 163.188 108.865 162.268 108.865C161.349 108.865 160.604 108.119 160.604 107.2Z" fill="#3F2975"/>
<path fill-rule="evenodd" clip-rule="evenodd" d="M157.046 92.1512C157.208 92.1512 157.339 92.0197 157.339 91.8574C157.339 91.6952 157.208 91.5636 157.046 91.5636C156.883 91.5636 156.752 91.6952 156.752 91.8574C156.752 92.0197 156.883 92.1512 157.046 92.1512ZM155.381 91.8574C155.381 90.938 156.126 90.1926 157.046 90.1926C157.965 90.1926 158.71 90.938 158.71 91.8574C158.71 92.7769 157.965 93.5222 157.046 93.5222C156.126 93.5222 155.381 92.7768 155.381 91.8574Z" fill="#3F2975"/>
</g>
</svg>
