<svg width="251" height="147" viewBox="0 0 251 147" fill="none" xmlns="http://www.w3.org/2000/svg">
<g opacity="0.4">
<path opacity="0.32" d="M220.536 128.154H152.358C151.139 128.154 150.124 127.139 150.124 125.92C150.124 124.702 151.139 123.687 152.358 123.687H220.536C221.754 123.687 222.769 124.702 222.769 125.92C222.769 127.139 221.754 128.154 220.536 128.154Z" fill="#1C1C1C"/>
<path opacity="0.32" d="M268.167 145.167H125.314C124.096 145.167 123.08 144.152 123.08 142.934C123.08 141.716 124.096 140.701 125.314 140.701H268.167C269.385 140.701 270.4 141.716 270.4 142.934C270.4 144.193 269.385 145.167 268.167 145.167Z" fill="#1C1C1C"/>
<path d="M257.893 84.0957H114.959V7.59346C114.959 4.06071 117.802 1.21826 121.334 1.21826H251.315C254.929 1.21826 257.893 4.18253 257.893 7.79649V84.0957Z" fill="#383939"/>
<path d="M117.396 78.0046V7.34964C117.396 5.31932 119.02 3.69507 121.05 3.69507H251.802C253.833 3.69507 255.457 5.31932 255.457 7.34964V78.0046C255.457 80.0349 253.833 81.6592 251.802 81.6592H121.05C119.06 81.6592 117.396 79.9943 117.396 78.0046Z" fill="#3A3A3A"/>
<path fill-rule="evenodd" clip-rule="evenodd" d="M121.334 2.43638C118.475 2.43638 116.177 4.73342 116.177 7.59338V82.8775H256.675V7.79641C256.675 4.85524 254.256 2.43638 251.315 2.43638H121.334ZM113.741 7.59338C113.741 3.38785 117.129 0 121.334 0H251.315C255.602 0 259.112 3.50967 259.112 7.79641V84.0956C259.112 84.7684 258.566 85.3138 257.893 85.3138H114.959C114.286 85.3138 113.741 84.7684 113.741 84.0956V7.59338Z" fill="#383939"/>
<path d="M249.766 75.9422V9.3479L123.074 9.3479L123.074 75.9422L249.766 75.9422Z" fill="#4F4F4F"/>
<path d="M251.275 103.587H121.375C117.842 103.587 114.959 100.704 114.959 97.1712V84.0959H257.893V96.9681C257.893 100.582 254.929 103.587 251.275 103.587Z" fill="#D4E8DC"/>
<path d="M121.375 100.338C119.629 100.338 118.208 98.9171 118.208 97.171V85.4358H254.645V96.968C254.645 98.8359 253.143 100.338 251.275 100.338H121.375Z" fill="#EBF2EE"/>
<path fill-rule="evenodd" clip-rule="evenodd" d="M113.741 84.0956C113.741 83.4228 114.286 82.8774 114.959 82.8774H257.893C258.566 82.8774 259.112 83.4228 259.112 84.0956V96.9678C259.112 101.25 255.607 104.805 251.275 104.805H121.375C117.17 104.805 113.741 101.376 113.741 97.1709V84.0956ZM116.177 85.3138V97.1709C116.177 100.031 118.515 102.368 121.375 102.368H251.275C254.252 102.368 256.675 99.9139 256.675 96.9678V85.3138H116.177Z" fill="#383939"/>
<path d="M207.948 118.205H164.905L171.28 103.587H201.573L207.948 118.205Z" fill="#CAD8D0"/>
<path d="M204.415 110.084L201.572 103.587H171.28L168.438 110.084H204.415Z" fill="#A1ADA6"/>
<path fill-rule="evenodd" clip-rule="evenodd" d="M170.164 103.099C170.357 102.655 170.796 102.368 171.28 102.368H201.573C202.057 102.368 202.495 102.655 202.689 103.099L209.064 117.718C209.229 118.094 209.192 118.528 208.967 118.872C208.742 119.216 208.359 119.423 207.948 119.423H164.905C164.494 119.423 164.111 119.216 163.886 118.872C163.661 118.528 163.624 118.094 163.788 117.718L170.164 103.099ZM172.078 104.805L166.765 116.986H206.087L200.775 104.805H172.078Z" fill="#383939"/>
<path d="M216.069 124.702H156.784L157.393 122.55C158.124 119.992 160.519 118.205 163.281 118.205H209.572C212.333 118.205 214.769 119.992 215.46 122.55L216.069 124.702Z" fill="#DAEDE2"/>
<path fill-rule="evenodd" clip-rule="evenodd" d="M158.565 122.883C158.564 122.884 158.564 122.884 158.564 122.884L158.395 123.484H214.458L214.288 122.882L214.284 122.867C213.747 120.877 211.821 119.423 209.572 119.423H163.281C161.045 119.423 159.142 120.866 158.565 122.883ZM156.222 122.215C157.107 119.116 159.994 116.987 163.281 116.987H209.572C212.842 116.987 215.788 119.103 216.634 122.225C216.635 122.228 216.635 122.23 216.636 122.232L217.241 124.37C217.345 124.737 217.271 125.132 217.041 125.437C216.81 125.741 216.451 125.92 216.069 125.92H156.784C156.402 125.92 156.042 125.741 155.812 125.437C155.582 125.132 155.508 124.737 155.612 124.37L156.222 122.215Z" fill="#383939"/>
<path d="M133.598 141.31H236.616C238.118 141.31 239.336 140.092 239.336 138.589C239.336 137.087 238.118 135.869 236.616 135.869H133.598C132.095 135.869 130.877 137.087 130.877 138.589C130.836 140.092 132.055 141.31 133.598 141.31Z" fill="#DAEDE2"/>
<path fill-rule="evenodd" clip-rule="evenodd" d="M129.659 138.573C129.668 136.405 131.428 134.651 133.598 134.651H236.616C238.791 134.651 240.555 136.414 240.555 138.59C240.555 140.765 238.791 142.528 236.616 142.528H133.598C131.406 142.528 129.608 140.784 129.659 138.573ZM133.598 137.087C132.768 137.087 132.095 137.76 132.095 138.59C132.095 138.601 132.095 138.612 132.095 138.622C132.074 139.408 132.709 140.092 133.598 140.092H236.616C237.446 140.092 238.118 139.419 238.118 138.59C238.118 137.76 237.446 137.087 236.616 137.087H133.598Z" fill="#383939"/>
<path d="M165.189 135.828H214.729V134.204C214.729 132.864 213.633 131.768 212.293 131.768H167.626C166.286 131.768 165.189 132.864 165.189 134.204V135.828Z" fill="#383939"/>
<path d="M155.362 135.828H163.971V134.204C163.971 132.864 162.875 131.768 161.535 131.768H157.799C156.459 131.768 155.362 132.864 155.362 134.204V135.828Z" fill="#383939"/>
<path d="M145.333 135.828H153.941V134.204C153.941 132.864 152.845 131.768 151.505 131.768H147.769C146.429 131.768 145.333 132.864 145.333 134.204V135.828Z" fill="#383939"/>
<path d="M226.221 135.828H234.829V134.204C234.829 132.864 233.733 131.768 232.393 131.768H228.657C227.317 131.768 226.221 132.864 226.221 134.204V135.828Z" fill="#383939"/>
<path d="M216.231 135.828H224.84V134.204C224.84 132.864 223.744 131.768 222.404 131.768H218.668C217.328 131.768 216.231 132.864 216.231 134.204V135.828Z" fill="#383939"/>
<path d="M135.344 135.828H143.952V134.204C143.952 132.864 142.856 131.768 141.516 131.768H137.78C136.44 131.768 135.344 132.864 135.344 134.204V135.828Z" fill="#383939"/>
<path d="M263.781 141.309C263.741 138.223 260.37 135.137 254.401 135.137C248.473 135.137 245.062 138.223 245.021 141.309H263.781Z" fill="#DAEDE2"/>
<path fill-rule="evenodd" clip-rule="evenodd" d="M243.803 141.294C243.857 137.222 248.179 133.92 254.401 133.92C260.668 133.92 264.946 137.225 264.999 141.294C265.004 141.62 264.877 141.934 264.648 142.166C264.419 142.398 264.107 142.528 263.781 142.528H245.021C244.695 142.528 244.383 142.398 244.154 142.166C243.925 141.934 243.799 141.62 243.803 141.294ZM246.518 140.092H262.288C261.504 138.252 259.014 136.356 254.401 136.356C249.819 136.356 247.311 138.253 246.518 140.092Z" fill="#383939"/>
<path d="M192.192 92.826C190.325 92.826 188.782 91.4454 188.538 89.6182C188.497 89.6182 188.497 89.6182 188.457 89.6182C186.142 89.6182 184.274 91.486 184.274 93.8006C184.274 96.1152 186.142 97.9831 188.457 97.9831C190.771 97.9831 192.639 96.1152 192.639 93.8006C192.639 93.4352 192.599 93.1103 192.517 92.7855C192.395 92.8261 192.314 92.826 192.192 92.826Z" fill="#383939"/>
<path d="M190.852 42.0274C189.675 42.0274 188.66 41.134 188.538 39.9971H188.497C187.035 39.9971 185.817 41.2153 185.817 42.6771C185.817 44.1389 187.035 45.3571 188.497 45.3571C189.959 45.3571 191.177 44.1389 191.177 42.6771C191.177 42.4335 191.137 42.2304 191.096 42.0274C190.974 42.0274 190.934 42.0274 190.852 42.0274Z" fill="#E7F7F7"/>
<path opacity="0.16" d="M137.455 75.9745H152.967L186.914 9.38013H171.402L137.455 75.9745Z" fill="#C2D3C9"/>
<path opacity="0.16" d="M165.514 75.9745L199.461 9.38013H193.654L159.707 75.9745H165.514Z" fill="#C2D3C9"/>
<g opacity="0.38">
<path opacity="0.38" d="M195.887 52.7883H179.564C179.239 52.7883 178.955 52.504 178.955 52.1792C178.955 51.8543 179.239 51.5701 179.564 51.5701H195.887C196.212 51.5701 196.497 51.8543 196.497 52.1792C196.497 52.504 196.212 52.7883 195.887 52.7883Z" fill="#C2D3C9"/>
</g>
<path d="M185.208 51.5701H179.564C179.239 51.5701 178.955 51.8543 178.955 52.1792C178.955 52.504 179.239 52.7883 179.564 52.7883H185.208V51.5701Z" fill="#C2D3C9"/>
</g>
<g opacity="0.4">
<path opacity="0.2" d="M70.4337 173.237L9.22796 162.552C4.92899 161.802 2.0621 157.723 2.81254 153.424L15.5786 80.2924C16.329 75.9934 20.4085 73.1266 24.7075 73.877L85.9132 84.5613C90.2121 85.3117 93.079 89.3912 92.3286 93.6902L79.5626 166.821C78.8121 171.12 74.7326 173.987 70.4337 173.237Z" fill="#241228"/>
<path opacity="0.2" fill-rule="evenodd" clip-rule="evenodd" d="M24.5803 74.6055C20.6837 73.9253 16.9874 76.5229 16.3072 80.4195L3.54119 153.551C2.86099 157.447 5.4586 161.143 9.35516 161.824L70.5609 172.508C74.4574 173.188 78.1537 170.591 78.8339 166.694L91.5999 93.5629C92.2801 89.6663 89.6825 85.97 85.786 85.2898L24.5803 74.6055ZM14.8499 80.1651C15.6706 75.4637 20.1333 72.3275 24.8347 73.1482L86.0404 83.8325C90.7418 84.6532 93.8779 89.1159 93.0572 93.8172L80.2912 166.948C79.4705 171.65 75.0079 174.786 70.3065 173.965L9.10077 163.281C4.39938 162.46 1.26322 157.998 2.08391 153.296L14.8499 80.1651Z" fill="#241228"/>
<path d="M75.304 163.976L14.0983 153.291C9.79931 152.541 6.93242 148.462 7.68286 144.163L19.16 78.415C19.9104 74.116 23.9899 71.2491 28.2889 71.9996L89.4946 82.6838C93.7936 83.4343 96.6604 87.5138 95.91 91.8127L84.4329 157.56C83.6824 161.859 79.603 164.726 75.304 163.976Z" fill="#FDA22F"/>
<path d="M75.304 163.976L14.0983 153.291C9.79931 152.541 6.93242 148.462 7.68286 144.163L19.16 78.415C19.9104 74.116 23.9899 71.2491 28.2889 71.9996L89.4946 82.6838C93.7936 83.4343 96.6604 87.5138 95.91 91.8127L84.4329 157.56C83.6824 161.859 79.603 164.726 75.304 163.976Z" fill="#FDA22F"/>
<path d="M12.2247 144.955L23.7018 79.2078C24.4523 74.9088 28.5318 72.042 32.8307 72.7924L28.2889 71.9996C23.9899 71.2491 19.9104 74.116 19.16 78.415L7.68286 144.163C6.93242 148.462 9.79931 152.541 14.0983 153.291L18.6401 154.084C14.3412 153.334 11.4743 149.254 12.2247 144.955Z" fill="#FC9435"/>
<path d="M89.4946 82.6832L84.9528 81.8904C89.2517 82.6408 92.1186 86.7203 91.3682 91.0193L79.8911 156.767C79.1406 161.066 75.0611 163.933 70.7622 163.182L75.304 163.975C79.603 164.726 83.6824 161.859 84.4329 157.56L95.91 91.8121C96.6605 87.5131 93.7936 83.4337 89.4946 82.6832Z" fill="#FFB331"/>
<path fill-rule="evenodd" clip-rule="evenodd" d="M28.1617 72.7276C24.2651 72.0474 20.5688 74.645 19.8886 78.5416L8.4115 144.289C7.73131 148.186 10.3289 151.882 14.2255 152.562L75.4312 163.246C79.3277 163.927 83.024 161.329 83.7042 157.433L95.1814 91.6849C95.8616 87.7884 93.264 84.0921 89.3674 83.4119L28.1617 72.7276ZM18.4314 78.2872C19.252 73.5858 23.7147 70.4496 28.4161 71.2703L89.6218 81.9546C94.3232 82.7753 97.4593 87.2379 96.6387 91.9393L85.1615 157.687C84.3408 162.388 79.8782 165.524 75.1768 164.704L13.9711 154.019C9.2697 153.199 6.13354 148.736 6.95422 144.035L18.4314 78.2872Z" fill="#511C64"/>
<path d="M81.6129 107.762L27.2078 98.2652C26.1391 98.0786 25.4174 97.0516 25.6039 95.9829L27.8086 83.3532C27.9952 82.2845 29.0222 81.5628 30.0909 81.7493L84.4959 91.2465C85.5646 91.433 86.2863 92.46 86.0998 93.5287L83.8951 106.158C83.7086 107.227 82.6816 107.949 81.6129 107.762Z" fill="#A5F3FF"/>
<path d="M76.826 94.0369L76.4493 93.4706L76.9913 93.0897L80.5616 93.713L80.9553 94.1821L80.372 94.656L76.826 94.0369Z" fill="#511C64"/>
<path opacity="0.2" d="M75.1125 97.5427L75.7358 93.9723L76.2778 93.5914L76.6587 94.1334L76.0354 97.7038L75.4934 98.0847L75.1125 97.5427Z" fill="#511C64"/>
<path d="M79.873 98.3738L80.4962 94.8035L81.0552 94.3254L81.4192 94.9646L80.7959 98.5349L80.2539 98.9159L79.873 98.3738Z" fill="#511C64"/>
<path opacity="0.2" d="M75.9991 98.7735L75.6182 98.2315L76.1602 97.8506L79.7062 98.4696L80.1115 99.0159L79.5451 99.3925L75.9991 98.7735Z" fill="#511C64"/>
<path opacity="0.2" d="M74.269 102.376L74.8922 98.8053L75.4343 98.4244L75.8152 98.9665L75.1919 102.537L74.6499 102.918L74.269 102.376Z" fill="#511C64"/>
<path d="M79.0295 103.206L79.6528 99.6361L80.2075 99.1824L80.5757 99.7973L79.9525 103.368L79.4105 103.749L79.0295 103.206Z" fill="#511C64"/>
<path opacity="0.2" d="M75.1513 103.631L74.7746 103.065L75.3167 102.684L78.8627 103.303L79.2679 103.849L78.6974 104.25L75.1513 103.631Z" fill="#511C64"/>
<path d="M68.4224 92.5705L68.0214 91.9999L68.5877 91.6232L72.1338 92.2423L72.5274 92.7114L71.9684 93.1895L68.4224 92.5705Z" fill="#511C64"/>
<path opacity="0.2" d="M66.7094 96.0758L67.3327 92.5054L67.8747 92.1245L68.2556 92.6665L67.6323 96.2369L67.0903 96.6178L66.7094 96.0758Z" fill="#511C64"/>
<path d="M71.4695 96.9073L72.0928 93.3369L72.6518 92.8589L73.0157 93.4981L72.3925 97.0684L71.8505 97.4493L71.4695 96.9073Z" fill="#511C64"/>
<path d="M67.5955 97.3067L67.1903 96.7604L67.7566 96.3837L71.3026 97.0028L71.6835 97.5448L71.1415 97.9257L67.5955 97.3067Z" fill="#511C64"/>
<path opacity="0.2" d="M65.8655 100.909L66.4888 97.3389L67.0308 96.958L67.4117 97.5L66.7885 101.07L66.2464 101.451L65.8655 100.909Z" fill="#511C64"/>
<path d="M70.6258 101.74L71.249 98.1697L71.8038 97.7159L72.172 98.3308L71.5487 101.901L71.0067 102.282L70.6258 101.74Z" fill="#511C64"/>
<path d="M66.7477 102.164L66.3467 101.594L66.913 101.217L70.4591 101.836L70.84 102.378L70.2937 102.783L66.7477 102.164Z" fill="#511C64"/>
<g opacity="0.2">
<path opacity="0.2" d="M51.542 89.6234L51.1653 89.0571L51.7073 88.6761L55.2777 89.2994L55.6713 89.7686L55.1123 90.2466L51.542 89.6234Z" fill="#511C64"/>
<path opacity="0.2" d="M49.8285 93.1291L50.4518 89.5588L51.0181 89.1821L51.399 89.7241L50.7757 93.2944L50.2337 93.6754L49.8285 93.1291Z" fill="#511C64"/>
<path opacity="0.2" d="M54.5893 93.9603L55.2125 90.3899L55.7715 89.9119L56.1598 90.5553L55.5365 94.1256L54.9702 94.5023L54.5893 93.9603Z" fill="#511C64"/>
<path opacity="0.2" d="M50.7151 94.3602L50.3342 93.8182L50.8762 93.4372L54.4465 94.0605L54.8275 94.6025L54.2854 94.9834L50.7151 94.3602Z" fill="#511C64"/>
<path opacity="0.2" d="M48.985 97.9621L49.6082 94.3918L50.1745 94.0151L50.5555 94.5571L49.9322 98.1275L49.3902 98.5084L48.985 97.9621Z" fill="#511C64"/>
<path opacity="0.2" d="M53.7455 98.7934L54.3688 95.2231L54.9235 94.7693L55.316 95.3884L54.6927 98.9587L54.1264 99.3354L53.7455 98.7934Z" fill="#511C64"/>
<path opacity="0.2" d="M49.8673 99.2175L49.4906 98.6512L50.0327 98.2703L53.603 98.8935L53.9839 99.4355L53.4377 99.8407L49.8673 99.2175Z" fill="#511C64"/>
</g>
<g opacity="0.2">
<path opacity="0.2" d="M59.9698 91.0948L59.5932 90.5285L60.1352 90.1476L63.7055 90.7708L64.0991 91.24L63.5159 91.7138L59.9698 91.0948Z" fill="#511C64"/>
<path opacity="0.2" d="M58.2564 94.6005L58.8796 91.0302L59.4217 90.6493L59.8269 91.1955L59.2036 94.7659L58.6373 95.1426L58.2564 94.6005Z" fill="#511C64"/>
<path opacity="0.2" d="M63.0172 95.4312L63.6404 91.8609L64.1994 91.3828L64.5877 92.0262L63.9644 95.5966L63.3981 95.9732L63.0172 95.4312Z" fill="#511C64"/>
<path opacity="0.2" d="M59.143 95.8314L58.762 95.2894L59.3041 94.9084L62.8744 95.5317L63.2553 96.0737L62.7133 96.4546L59.143 95.8314Z" fill="#511C64"/>
<path opacity="0.2" d="M57.4132 99.4335L58.0364 95.8632L58.5785 95.4823L58.9837 96.0286L58.3604 99.5989L57.7941 99.9756L57.4132 99.4335Z" fill="#511C64"/>
<path opacity="0.2" d="M62.1734 100.264L62.7966 96.694L63.3514 96.2402L63.7439 96.8593L63.1206 100.43L62.5543 100.806L62.1734 100.264Z" fill="#511C64"/>
<path opacity="0.2" d="M58.2951 100.688L57.9185 100.122L58.4605 99.7412L62.0308 100.364L62.4117 100.906L61.8655 101.312L58.2951 100.688Z" fill="#511C64"/>
</g>
<g opacity="0.2">
<path opacity="0.2" d="M34.7105 86.6857L34.3095 86.1152L34.8758 85.7385L38.4219 86.3575L38.8155 86.8267L38.2565 87.3047L34.7105 86.6857Z" fill="#511C64"/>
<path opacity="0.2" d="M32.9975 90.1911L33.6208 86.6208L34.1628 86.2399L34.5437 86.7819L33.9205 90.3522L33.3785 90.7331L32.9975 90.1911Z" fill="#511C64"/>
<path opacity="0.2" d="M37.7577 91.0225L38.3809 87.4522L38.9399 86.9741L39.3038 87.6133L38.6806 91.1836L38.1386 91.5645L37.7577 91.0225Z" fill="#511C64"/>
<path opacity="0.2" d="M33.8836 91.4219L33.4784 90.8757L34.0447 90.499L37.5907 91.118L37.9717 91.66L37.4296 92.0409L33.8836 91.4219Z" fill="#511C64"/>
<path opacity="0.2" d="M32.1536 95.0245L32.7769 91.4541L33.3189 91.0732L33.6998 91.6153L33.0766 95.1856L32.5345 95.5665L32.1536 95.0245Z" fill="#511C64"/>
<path opacity="0.2" d="M36.9139 95.8556L37.5371 92.2853L38.0919 91.8315L38.4601 92.4464L37.8368 96.0168L37.2948 96.3977L36.9139 95.8556Z" fill="#511C64"/>
<path opacity="0.2" d="M33.0358 96.2796L32.6348 95.709L33.2011 95.3324L36.7472 95.9514L37.1281 96.4934L36.5818 96.8986L33.0358 96.2796Z" fill="#511C64"/>
</g>
<g opacity="0.2">
<path opacity="0.2" d="M43.1141 88.1521L42.7374 87.5857L43.2794 87.2048L46.8497 87.8281L47.2434 88.2972L46.6844 88.7753L43.1141 88.1521Z" fill="#511C64"/>
<path opacity="0.2" d="M41.4251 91.6619L42.0483 88.0916L42.5904 87.7107L42.9713 88.2527L42.348 91.823L41.806 92.204L41.4251 91.6619Z" fill="#511C64"/>
<path opacity="0.2" d="M46.161 92.4886L46.7843 88.9182L47.3676 88.4444L47.7315 89.0836L47.1083 92.6539L46.5662 93.0348L46.161 92.4886Z" fill="#511C64"/>
<path opacity="0.2" d="M42.2872 92.8883L41.9063 92.3462L42.4483 91.9653L46.0186 92.5886L46.3995 93.1306L45.8575 93.5115L42.2872 92.8883Z" fill="#511C64"/>
<path opacity="0.2" d="M40.5812 96.4949L41.2044 92.9246L41.7465 92.5437L42.1274 93.0857L41.5041 96.6561L40.9621 97.037L40.5812 96.4949Z" fill="#511C64"/>
<path opacity="0.2" d="M45.3176 97.3217L45.9408 93.7514L46.5199 93.3018L46.8881 93.9167L46.2648 97.4871L45.7228 97.868L45.3176 97.3217Z" fill="#511C64"/>
<path opacity="0.2" d="M41.4394 97.7462L41.0627 97.1799L41.6047 96.7989L45.175 97.4222L45.556 97.9642L45.0097 98.3694L41.4394 97.7462Z" fill="#511C64"/>
</g>
<path opacity="0.43" d="M83.5632 96.5898L29.1581 87.0927C28.0894 86.9061 27.3677 85.8791 27.5543 84.8105L27.8086 83.3532C27.9952 82.2845 29.0222 81.5628 30.0909 81.7493L84.4959 91.2465C85.5646 91.433 86.2863 92.46 86.0998 93.5287L85.8454 94.986C85.6589 96.0547 84.6319 96.7764 83.5632 96.5898Z" fill="#D2FCFB"/>
<path fill-rule="evenodd" clip-rule="evenodd" d="M29.9637 82.4781C29.2974 82.3618 28.6536 82.8143 28.5373 83.4805L26.3326 96.1103C26.2163 96.7765 26.6687 97.4203 27.335 97.5366L81.7401 107.034C82.4063 107.15 83.0502 106.698 83.1665 106.031L85.3712 93.4016C85.4875 92.7354 85.035 92.0915 84.3688 91.9752L29.9637 82.4781ZM27.08 83.2261C27.3368 81.755 28.747 80.764 30.2181 81.0208L84.6231 90.518C86.0942 90.7748 87.0852 92.1849 86.8284 93.656L84.6237 106.286C84.3669 107.757 82.9568 108.748 81.4857 108.491L27.0806 98.9939C25.6095 98.7371 24.6185 97.327 24.8753 95.8559L27.08 83.2261Z" fill="#511C64"/>
<path d="M32.8922 124.486L21.234 122.451C20.1653 122.264 19.4436 121.237 19.6301 120.169L21.6652 108.51C21.8518 107.442 22.8788 106.72 23.9474 106.907L35.6057 108.942C36.6743 109.128 37.3961 110.155 37.2095 111.224L35.1744 122.882C34.9836 123.975 33.9609 124.673 32.8922 124.486Z" fill="#FC9435"/>
<path fill-rule="evenodd" clip-rule="evenodd" d="M23.8202 107.635C23.154 107.519 22.5102 107.971 22.3939 108.637L20.3588 120.296C20.2425 120.962 20.6949 121.606 21.3612 121.722L33.0194 123.757C33.6916 123.875 34.3263 123.439 34.4458 122.755L36.4809 111.097C36.5972 110.43 36.1447 109.786 35.4785 109.67L23.8202 107.635ZM20.9366 108.383C21.1934 106.912 22.6035 105.921 24.0746 106.178L35.7329 108.213C37.2039 108.47 38.195 109.88 37.9382 111.351L35.9031 123.009C35.641 124.511 34.2301 125.47 32.765 125.214L21.1068 123.179C19.6357 122.923 18.6447 121.512 18.9015 120.041L20.9366 108.383Z" fill="#FC9435"/>
<path d="M54.4115 128.243L42.7533 126.207C41.6846 126.021 40.9628 124.994 41.1494 123.925L43.1845 112.267C43.371 111.198 44.398 110.477 45.4667 110.663L57.125 112.698C58.1936 112.885 58.9154 113.912 58.7288 114.98L56.6937 126.639C56.5029 127.732 55.4802 128.429 54.4115 128.243Z" fill="#FC9435"/>
<path fill-rule="evenodd" clip-rule="evenodd" d="M45.3395 111.392C44.6733 111.275 44.0294 111.728 43.9131 112.394L41.878 124.052C41.7617 124.719 42.2142 125.362 42.8805 125.479L54.5387 127.514C55.2109 127.631 55.8456 127.196 55.9651 126.511L58.0002 114.853C58.1165 114.187 57.664 113.543 56.9978 113.427L45.3395 111.392ZM42.4559 112.14C42.7127 110.669 44.1228 109.678 45.5939 109.934L57.2521 111.969C58.7232 112.226 59.7142 113.636 59.4574 115.108L57.4223 126.766C57.1603 128.267 55.7494 129.227 54.2843 128.971L42.6261 126.936C41.155 126.679 40.164 125.269 40.4208 123.798L42.4559 112.14Z" fill="#FC9435"/>
<path d="M29.1398 145.981L17.4815 143.946C16.4129 143.759 15.6911 142.732 15.8777 141.663L17.9128 130.005C18.0993 128.936 19.1263 128.215 20.195 128.401L31.8532 130.436C32.9219 130.623 33.6436 131.65 33.4571 132.719L31.422 144.377C31.2312 145.47 30.2084 146.167 29.1398 145.981Z" fill="#FC9435"/>
<path fill-rule="evenodd" clip-rule="evenodd" d="M20.0682 129.13C19.4019 129.013 18.7581 129.466 18.6418 130.132L16.6067 141.79C16.4904 142.457 16.9428 143.1 17.6091 143.217L29.2673 145.252C29.9395 145.369 30.5742 144.934 30.6937 144.249L32.7288 132.591C32.8451 131.925 32.3927 131.281 31.7264 131.165L20.0682 129.13ZM17.1845 129.878C17.4413 128.407 18.8515 127.416 20.3226 127.672L31.9808 129.708C33.4519 129.964 34.4429 131.375 34.1861 132.846L32.151 144.504C31.8889 146.005 30.4781 146.965 29.0129 146.709L17.3547 144.674C15.8836 144.417 14.8926 143.007 15.1494 141.536L17.1845 129.878Z" fill="#FC9435"/>
<path d="M50.659 149.737L39.0008 147.702C37.9321 147.516 37.2104 146.489 37.397 145.42L39.4321 133.762C39.6186 132.693 40.6456 131.971 41.7143 132.158L53.3725 134.193C54.4412 134.379 55.1629 135.406 54.9764 136.475L52.9413 148.133C52.7505 149.226 51.7277 149.924 50.659 149.737Z" fill="#FC9435"/>
<path fill-rule="evenodd" clip-rule="evenodd" d="M41.5871 132.886C40.9208 132.77 40.277 133.222 40.1607 133.889L38.1256 145.547C38.0093 146.213 38.4618 146.857 39.128 146.973L50.7862 149.008C51.4585 149.126 52.0931 148.691 52.2126 148.006L54.2477 136.348C54.364 135.682 53.9116 135.038 53.2453 134.921L41.5871 132.886ZM38.7034 133.634C38.9602 132.163 40.3704 131.172 41.8415 131.429L53.4997 133.464C54.9708 133.721 55.9618 135.131 55.705 136.602L53.6699 148.26C53.4078 149.762 51.997 150.721 50.5319 150.466L38.8736 148.431C37.4025 148.174 36.4115 146.764 36.6683 145.293L38.7034 133.634Z" fill="#FC9435"/>
<path d="M72.0326 153.468L60.3743 151.433C59.3057 151.247 58.5839 150.22 58.7705 149.151L64.5578 115.998C64.7443 114.929 65.7713 114.208 66.84 114.394L78.4982 116.429C79.5669 116.616 80.2886 117.643 80.1021 118.711L74.3148 151.865C74.124 152.957 73.1012 153.655 72.0326 153.468Z" fill="#FC9435"/>
<path fill-rule="evenodd" clip-rule="evenodd" d="M66.7128 115.122C66.0466 115.006 65.4027 115.459 65.2864 116.125L59.4991 149.278C59.3828 149.944 59.8353 150.588 60.5015 150.704L72.1598 152.739C72.832 152.857 73.4666 152.422 73.5861 151.737L79.3735 118.584C79.4898 117.918 79.0373 117.274 78.3711 117.157L66.7128 115.122ZM63.8292 115.87C64.086 114.399 65.4961 113.408 66.9672 113.665L78.6254 115.7C80.0965 115.957 81.0875 117.367 80.8307 118.838L75.0434 151.991C74.7813 153.493 73.3705 154.452 71.9054 154.197L60.2471 152.162C58.776 151.905 57.785 150.495 58.0418 149.024L63.8292 115.87Z" fill="#FC9435"/>
<path d="M56.2203 127.056L44.5621 125.021C43.4934 124.835 42.7717 123.808 42.9582 122.739L44.9933 111.081C45.1799 110.012 46.2069 109.29 47.2756 109.477L58.9338 111.512C60.0025 111.699 60.7242 112.726 60.5376 113.794L58.5025 125.452C58.3117 126.545 57.289 127.243 56.2203 127.056Z" fill="#FF82A0"/>
<path d="M73.8626 152.161L62.2044 150.126C61.1357 149.939 60.414 148.912 60.6005 147.843L66.3666 114.812C66.5532 113.743 67.5802 113.021 68.6488 113.208L80.3071 115.243C81.3758 115.43 82.0975 116.457 81.9109 117.525L76.1448 150.557C75.954 151.65 74.9313 152.347 73.8626 152.161Z" fill="#B078FD"/>
<path d="M63.4484 148.591C62.9383 148.502 62.5732 148.013 62.6665 147.478L68.6488 113.208C67.5802 113.021 66.5532 113.743 66.3666 114.812L60.6005 147.843C60.414 148.912 61.1357 149.939 62.2044 150.126L73.8626 152.161C74.8584 152.335 75.7913 151.722 76.0781 150.796L63.4484 148.591Z" fill="#A270F2"/>
<path fill-rule="evenodd" clip-rule="evenodd" d="M68.5217 113.936C67.8554 113.82 67.2116 114.273 67.0953 114.939L61.3291 147.97C61.2128 148.637 61.6653 149.281 62.3316 149.397L73.9898 151.432C74.662 151.549 75.2967 151.114 75.4162 150.43L81.1823 117.398C81.2986 116.732 80.8461 116.088 80.1799 115.971L68.5217 113.936ZM65.638 114.684C65.8948 113.213 67.305 112.222 68.776 112.479L80.4343 114.514C81.9054 114.771 82.8964 116.181 82.6396 117.652L76.8735 150.684C76.6114 152.185 75.2005 153.145 73.7354 152.889L62.0772 150.854C60.6061 150.597 59.6151 149.187 59.8719 147.716L65.638 114.684Z" fill="#511C64"/>
<path d="M75.2957 130.186L68.3007 128.965L67.9955 130.714L74.9904 131.935L75.2957 130.186Z" fill="#511C64"/>
<path d="M74.8377 132.809L67.8427 131.588L67.5375 133.337L74.5324 134.558L74.8377 132.809Z" fill="#511C64"/>
<path fill-rule="evenodd" clip-rule="evenodd" d="M76.5136 116.759C76.5487 116.557 76.7403 116.423 76.9415 116.458L78.1073 116.661C79.2072 116.853 79.9433 117.901 79.7513 119.001L78.9161 123.785C78.8809 123.987 78.6894 124.121 78.4881 124.086C78.2869 124.051 78.1523 123.859 78.1874 123.658L79.0227 118.873C79.1444 118.176 78.6776 117.512 77.9802 117.39L76.8143 117.187C76.6131 117.151 76.4785 116.96 76.5136 116.759Z" fill="white"/>
<path d="M45.8061 123.486C45.296 123.397 44.9309 122.908 45.0242 122.374L47.2755 109.477C46.2069 109.29 45.1799 110.012 44.9933 111.081L42.9582 122.739C42.7717 123.808 43.4934 124.835 44.5621 125.021L56.2203 127.056C57.2161 127.23 58.149 126.617 58.4358 125.691L45.8061 123.486Z" fill="#F27095"/>
<path fill-rule="evenodd" clip-rule="evenodd" d="M47.1484 110.205C46.4821 110.089 45.8383 110.542 45.722 111.208L43.6869 122.866C43.5706 123.532 44.023 124.176 44.6893 124.292L56.3475 126.328C57.0197 126.445 57.6544 126.01 57.7739 125.325L59.809 113.667C59.9253 113.001 59.4728 112.357 58.8066 112.24L47.1484 110.205ZM44.2647 110.953C44.5215 109.482 45.9317 108.491 47.4028 108.748L59.061 110.783C60.5321 111.04 61.5231 112.45 61.2663 113.921L59.2312 125.58C58.9691 127.081 57.5582 128.041 56.0931 127.785L44.4349 125.75C42.9638 125.493 41.9728 124.083 42.2296 122.612L44.2647 110.953Z" fill="#511C64"/>
<path d="M54.9153 118.044L48.8191 116.979L48.552 118.51L54.6482 119.574L54.9153 118.044Z" fill="#511C64"/>
<path fill-rule="evenodd" clip-rule="evenodd" d="M56.3063 113.231C56.3414 113.03 56.533 112.895 56.7342 112.93L57.2685 113.024C58.0769 113.165 58.6326 113.955 58.4915 114.764L58.1989 116.44C58.1638 116.641 57.9722 116.775 57.771 116.74C57.5698 116.705 57.4352 116.514 57.4703 116.312L57.7628 114.637C57.8337 114.231 57.5473 113.823 57.1413 113.752L56.607 113.659C56.4058 113.624 56.2712 113.432 56.3063 113.231Z" fill="white"/>
<path d="M34.8467 123.325L23.1884 121.29C22.1198 121.103 21.398 120.076 21.5846 119.008L23.6197 107.35C23.8062 106.281 24.8332 105.559 25.9019 105.746L37.5601 107.781C38.6288 107.967 39.3505 108.994 39.164 110.063L37.1289 121.721C36.9381 122.814 35.9153 123.512 34.8467 123.325Z" fill="#FF82A0"/>
<path d="M24.4324 119.755C23.9224 119.666 23.5573 119.177 23.6506 118.643L25.9019 105.746C24.8332 105.559 23.8062 106.281 23.6197 107.35L21.5846 119.008C21.398 120.076 22.1198 121.103 23.1884 121.29L34.8467 123.325C35.8425 123.499 36.7754 122.886 37.0622 121.96L24.4324 119.755Z" fill="#F27095"/>
<path fill-rule="evenodd" clip-rule="evenodd" d="M25.7747 106.474C25.1085 106.358 24.4646 106.811 24.3483 107.477L22.3132 119.135C22.1969 119.801 22.6494 120.445 23.3156 120.561L34.9739 122.597C35.6461 122.714 36.2807 122.279 36.4002 121.594L38.4354 109.936C38.5517 109.27 38.0992 108.626 37.4329 108.51L25.7747 106.474ZM22.891 107.222C23.1478 105.751 24.558 104.76 26.0291 105.017L37.6873 107.052C39.1584 107.309 40.1494 108.719 39.8926 110.19L37.8575 121.849C37.5955 123.35 36.1846 124.31 34.7195 124.054L23.0612 122.019C21.5902 121.762 20.5991 120.352 20.8559 118.881L22.891 107.222Z" fill="#511C64"/>
<path d="M33.2018 114.253L27.1055 113.189L26.8384 114.719L32.9347 115.783L33.2018 114.253Z" fill="#511C64"/>
<path d="M30.247 117.669L31.3112 111.573L29.781 111.306L28.7168 117.402L30.247 117.669Z" fill="#511C64"/>
<path fill-rule="evenodd" clip-rule="evenodd" d="M34.8113 109.479C34.8464 109.277 35.038 109.143 35.2392 109.178L35.7735 109.271C36.5819 109.412 37.1376 110.203 36.9965 111.011L36.7039 112.687C36.6688 112.888 36.4772 113.023 36.276 112.988C36.0748 112.953 35.9402 112.761 35.9753 112.56L36.2678 110.884C36.3387 110.478 36.0523 110.071 35.6463 110L35.112 109.906C34.9108 109.871 34.7762 109.68 34.8113 109.479Z" fill="white"/>
<path d="M31.1154 144.699L19.4571 142.663C18.3885 142.477 17.6667 141.45 17.8533 140.381L19.8884 128.723C20.0749 127.654 21.1019 126.933 22.1706 127.119L33.8288 129.154C34.8975 129.341 35.6192 130.368 35.4327 131.436L33.3976 143.095C33.2068 144.188 32.184 144.885 31.1154 144.699Z" fill="#FF82A0"/>
<path d="M20.7012 141.129C20.1911 141.04 19.826 140.55 19.9193 140.016L22.1706 127.119C21.1019 126.933 20.0749 127.654 19.8884 128.723L17.8533 140.381C17.6667 141.45 18.3885 142.477 19.4571 142.663L31.1154 144.699C32.1112 144.872 33.0441 144.259 33.3309 143.333L20.7012 141.129Z" fill="#F27095"/>
<path fill-rule="evenodd" clip-rule="evenodd" d="M22.0435 127.848C21.3773 127.732 20.7334 128.184 20.6171 128.851L18.582 140.509C18.4657 141.175 18.9182 141.819 19.5844 141.935L31.2427 143.97C31.9149 144.088 32.5495 143.653 32.669 142.968L34.7042 131.31C34.8205 130.643 34.368 130 33.7017 129.883L22.0435 127.848ZM19.1598 128.596C19.4166 127.125 20.8268 126.134 22.2979 126.391L33.9561 128.426C35.4272 128.683 36.4182 130.093 36.1614 131.564L34.1263 143.222C33.8643 144.724 32.4534 145.683 30.9883 145.428L19.33 143.393C17.859 143.136 16.8679 141.726 17.1247 140.254L19.1598 128.596Z" fill="#511C64"/>
<path d="M29.0471 137.995L25.4889 132.932L24.218 133.825L27.7762 138.888L29.0471 137.995Z" fill="#511C64"/>
<path d="M24.5637 138.327L29.6269 134.769L28.7338 133.498L23.6706 137.056L24.5637 138.327Z" fill="#511C64"/>
<path fill-rule="evenodd" clip-rule="evenodd" d="M31.05 131.022C31.0851 130.821 31.2767 130.686 31.4779 130.721L32.0122 130.815C32.8206 130.956 33.3763 131.746 33.2352 132.555L32.9426 134.231C32.9075 134.432 32.7159 134.567 32.5147 134.531C32.3135 134.496 32.1789 134.305 32.214 134.104L32.5065 132.428C32.5774 132.022 32.291 131.614 31.8851 131.543L31.3507 131.45C31.1495 131.415 31.0149 131.223 31.05 131.022Z" fill="white"/>
<path d="M52.4893 148.43L40.8311 146.395C39.7624 146.208 39.0407 145.181 39.2272 144.113L41.2623 132.454C41.4489 131.386 42.4759 130.664 43.5445 130.851L55.2028 132.886C56.2714 133.072 56.9932 134.099 56.8066 135.168L54.7715 146.826C54.5807 147.919 53.558 148.616 52.4893 148.43Z" fill="#FF82A0"/>
<path d="M42.0751 144.86C41.565 144.771 41.1999 144.282 41.2932 143.747L43.5445 130.851C42.4759 130.664 41.4489 131.386 41.2623 132.454L39.2272 144.113C39.0407 145.181 39.7624 146.208 40.8311 146.395L52.4893 148.43C53.4851 148.604 54.418 147.991 54.7048 147.065L42.0751 144.86Z" fill="#F27095"/>
<path fill-rule="evenodd" clip-rule="evenodd" d="M43.4173 131.579C42.751 131.463 42.1072 131.915 41.9909 132.581L39.9558 144.24C39.8395 144.906 40.292 145.55 40.9582 145.666L52.6164 147.701C53.2886 147.818 53.9233 147.383 54.0428 146.699L56.0779 135.04C56.1942 134.374 55.7418 133.73 55.0755 133.614L43.4173 131.579ZM40.5336 132.327C40.7904 130.856 42.2006 129.865 43.6717 130.122L55.3299 132.157C56.801 132.414 57.792 133.824 57.5352 135.295L55.5001 146.953C55.238 148.454 53.8272 149.414 52.362 149.158L40.7038 147.123C39.2327 146.866 38.2417 145.456 38.4985 143.985L40.5336 132.327Z" fill="#511C64"/>
<path d="M51.1842 139.417L45.0879 138.353L44.8208 139.883L50.9171 140.947L51.1842 139.417Z" fill="#511C64"/>
<path d="M48.2522 142.829L48.5193 141.299L46.9891 141.032L46.722 142.562L48.2522 142.829Z" fill="#511C64"/>
<path d="M49.0377 138.247L49.3048 136.716L47.7747 136.449L47.5076 137.979L49.0377 138.247Z" fill="#511C64"/>
<path fill-rule="evenodd" clip-rule="evenodd" d="M52.5453 134.774C52.5804 134.573 52.772 134.438 52.9732 134.473L53.5075 134.567C54.316 134.708 54.8716 135.498 54.7305 136.307L54.4379 137.983C54.4028 138.184 54.2112 138.318 54.01 138.283C53.8088 138.248 53.6742 138.057 53.7093 137.855L54.0018 136.18C54.0727 135.774 53.7863 135.366 53.3804 135.295L52.846 135.202C52.6448 135.167 52.5102 134.975 52.5453 134.774Z" fill="white"/>
</g>
</svg>
