<svg width="68" height="21" viewBox="0 0 68 21" fill="none" xmlns="http://www.w3.org/2000/svg">
<rect opacity="0.7" width="17" height="21" rx="1" fill="#EEEEEE"/>
<rect opacity="0.7" x="19" width="14" height="21" rx="1" fill="#EEEEEE"/>
<rect opacity="0.7" x="35" width="14" height="21" rx="1" fill="#EEEEEE"/>
<rect opacity="0.7" x="51" width="17" height="21" rx="1" fill="#EEEEEE"/>
<path d="M0 8C1.96019 8 3.32263 8.50461 4.43602 9.2405C5.59086 10.0038 6.50121 11.0242 7.57756 12.1811C8.62686 13.309 9.80943 14.5348 11.4188 15.4606C13.0493 16.3984 15.0632 17 17.7612 17V15C15.3846 15 13.7193 14.4766 12.416 13.7269C11.0917 12.9652 10.0858 11.941 9.04185 10.8189C8.02491 9.72578 6.93713 8.49622 5.5388 7.572C4.09902 6.62039 2.35324 6 0 6V8ZM17.7612 17C20.417 17 22.3203 16.5411 23.8111 15.8022C25.2959 15.0664 26.2984 14.0861 27.1662 13.1994C28.0529 12.2934 28.7606 11.5327 29.7514 10.9592C30.7094 10.4048 31.9898 10 34 10V8C31.6968 8 30.0592 8.47025 28.7495 9.22826C27.4726 9.96733 26.5628 10.9566 25.7368 11.8006C24.8919 12.6639 24.0865 13.4336 22.923 14.0103C21.7656 14.5839 20.18 15 17.7612 15V17ZM34 10C38.503 10 41.2728 8.9457 43.7208 7.92267C46.1322 6.91489 48.113 6 51.2537 6V4C47.6565 4 45.3238 5.08511 42.9496 6.07733C40.6119 7.0543 38.1239 8 34 8V10ZM51.2537 6C52.6176 6 53.7387 6.48637 54.821 7.28798C55.9382 8.11541 56.9437 9.21999 58.1245 10.4442C60.4335 12.8382 63.2416 15.5 68 15.5V13.5C64.1316 13.5 61.8364 11.4118 59.564 9.05578C58.4541 7.90501 57.2992 6.63459 56.0113 5.68077C54.6886 4.70113 53.1598 4 51.2537 4V6Z" fill="#EB5757"/>
</svg>
