<svg width="68" height="21" viewBox="0 0 68 21" fill="none" xmlns="http://www.w3.org/2000/svg">
<rect opacity="0.7" width="17" height="21" rx="1" fill="#EEEEEE"/>
<rect opacity="0.7" x="19" width="14" height="21" rx="1" fill="#EEEEEE"/>
<rect opacity="0.7" x="35" width="14" height="21" rx="1" fill="#EEEEEE"/>
<rect opacity="0.7" x="51" width="17" height="21" rx="1" fill="#EEEEEE"/>
<path d="M0 13.929C4.53693 13.929 6.5956 13.0099 8.75011 12.1279C10.767 11.3022 12.9379 10.4758 17.8928 10.4758V8.47584C12.6231 8.47584 10.1931 9.37604 7.9924 10.2769C5.92934 11.1215 4.15384 11.929 0 11.929V13.929ZM17.8928 10.4758C20.3413 10.4758 21.9507 10.8631 23.1259 11.398C24.3029 11.9337 25.1146 12.647 25.9631 13.4433C26.7965 14.2254 27.7135 15.1408 28.9978 15.8234C30.3095 16.5207 31.9463 16.9524 34.2519 16.9524V14.9524C32.212 14.9524 30.9093 14.5745 29.9365 14.0574C28.9362 13.5257 28.2238 12.822 27.3317 11.9849C26.4549 11.1621 25.4454 10.2563 23.9544 9.57765C22.4617 8.89818 20.5564 8.47584 17.8928 8.47584V10.4758ZM34.2519 16.9524C38.8332 16.9524 41.6512 15.6128 44.1182 14.3275C46.5591 13.0559 48.521 11.929 51.6334 11.929V9.92896C47.9579 9.92896 45.5743 11.3138 43.1942 12.5538C40.84 13.7803 38.3612 14.9524 34.2519 14.9524V16.9524ZM51.6334 11.929C55.2834 11.929 57.4522 10.2441 59.5902 8.79165C61.7004 7.35801 63.9447 6 68 6V4C63.3645 4 60.7196 5.60647 58.4663 7.13731C56.2407 8.64931 54.5717 9.92896 51.6334 9.92896V11.929Z" fill="#0BC073"/>
</svg>
