<svg width="32" height="32" viewBox="0 0 32 32" fill="none" xmlns="http://www.w3.org/2000/svg">
<path d="M16 29.3333C12.4628 29.3365 9.06954 27.9327 6.56836 25.4315C4.06718 22.9304 2.66345 19.5371 2.66663 15.9999V15.7333C2.77568 10.3896 6.0637 5.6268 11.0218 3.63068C15.9799 1.63455 21.6507 2.79045 25.432 6.56793C29.2486 10.3814 30.3909 16.119 28.3257 21.1034C26.2606 26.0878 21.3952 29.3364 16 29.3333ZM16 17.8799L19.4533 21.3333L21.3333 19.4533L17.88 15.9999L21.3333 12.5466L19.4533 10.6666L16 14.1199L12.5466 10.6666L10.6666 12.5466L14.12 15.9999L10.6666 19.4533L12.5466 21.3333L16 17.8813V17.8799Z" fill="white"/>
</svg>
