<svg width="48" height="48" viewBox="0 0 48 48" fill="none" xmlns="http://www.w3.org/2000/svg">
<rect x="36" y="6" width="6" height="6" rx="3" fill="white"/>
<path d="M0 35.2C0 39.6804 0 41.9206 0.871948 43.6319C1.63893 45.1372 2.86278 46.3611 4.36808 47.1281C6.07937 48 8.31958 48 12.8 48H35.2C39.6804 48 41.9206 48 43.6319 47.1281C45.1372 46.3611 46.3611 45.1372 47.1281 43.6319C48 41.9206 48 39.6804 48 35.2V12.8C48 8.31958 48 6.07937 47.1281 4.36808C46.3611 2.86278 45.1372 1.63894 43.6319 0.871948C41.9206 0 39.6804 0 35.2 0H12.8C8.31958 0 6.07937 0 4.36808 0.871948C2.86278 1.63894 1.63893 2.86278 0.871948 4.36808C0 6.07937 0 8.31958 0 12.8V35.2Z" fill="white"/>
<path d="M30 32C28.8954 32 28 31.1046 28 30C28 28.8954 28.8954 28 30 28C31.1046 28 32 28.8954 32 30C32 31.1046 31.1046 32 30 32ZM24 32C22.8954 32 22 31.1046 22 30C22 28.8954 22.8954 28 24 28C25.1046 28 26 28.8954 26 30C26 31.1046 25.1046 32 24 32ZM18 32C16.8954 32 16 31.1046 16 30C16 28.8954 16.8954 28 18 28C19.1046 28 20 28.8954 20 30C20 31.1046 19.1046 32 18 32ZM30 26C28.8954 26 28 25.1046 28 24C28 22.8954 28.8954 22 30 22C31.1046 22 32 22.8954 32 24C32 24.5304 31.7893 25.0391 31.4142 25.4142C31.0391 25.7893 30.5304 26 30 26ZM24 26C22.8954 26 22 25.1046 22 24C22 22.8954 22.8954 22 24 22C25.1046 22 26 22.8954 26 24C26 24.5304 25.7893 25.0391 25.4142 25.4142C25.0391 25.7893 24.5304 26 24 26ZM18 26C16.8954 26 16 25.1046 16 24C16 22.8954 16.8954 22 18 22C19.1046 22 20 22.8954 20 24C20 24.5304 19.7893 25.0391 19.4142 25.4142C19.0391 25.7893 18.5304 26 18 26ZM30 20C28.8954 20 28 19.1046 28 18C28 16.8954 28.8954 16 30 16C31.1046 16 32 16.8954 32 18C32 18.5304 31.7893 19.0391 31.4142 19.4142C31.0391 19.7893 30.5304 20 30 20ZM24 20C22.8954 20 22 19.1046 22 18C22 16.8954 22.8954 16 24 16C25.1046 16 26 16.8954 26 18C26 18.5304 25.7893 19.0391 25.4142 19.4142C25.0391 19.7893 24.5304 20 24 20ZM18 20C16.8954 20 16 19.1046 16 18C16 16.8954 16.8954 16 18 16C19.1046 16 20 16.8954 20 18C20 18.5304 19.7893 19.0391 19.4142 19.4142C19.0391 19.7893 18.5304 20 18 20Z" fill="#6B408C"/>
</svg>
