<svg width="28" height="28" viewBox="0 0 28 28" fill="none" xmlns="http://www.w3.org/2000/svg">
<circle cx="14" cy="14" r="13.5" stroke="#DDDFE5"/>
<path d="M10.3608 19V17.9773L14.2017 13.7727C14.6525 13.2803 15.0237 12.8523 15.3153 12.4886C15.607 12.1212 15.8229 11.7765 15.9631 11.4545C16.107 11.1288 16.179 10.7879 16.179 10.4318C16.179 10.0227 16.0805 9.66856 15.8835 9.36932C15.6903 9.07008 15.4252 8.83901 15.0881 8.67614C14.7509 8.51326 14.3722 8.43182 13.9517 8.43182C13.5047 8.43182 13.1146 8.52462 12.7812 8.71023C12.4517 8.89205 12.196 9.14773 12.0142 9.47727C11.8362 9.80682 11.7472 10.1932 11.7472 10.6364H10.4062C10.4062 9.95455 10.5634 9.35606 10.8778 8.84091C11.1922 8.32576 11.6203 7.92424 12.1619 7.63636C12.7074 7.34848 13.3191 7.20455 13.9972 7.20455C14.679 7.20455 15.2831 7.34848 15.8097 7.63636C16.3362 7.92424 16.7491 8.3125 17.0483 8.80114C17.3475 9.28977 17.4972 9.83333 17.4972 10.4318C17.4972 10.8598 17.4195 11.2784 17.2642 11.6875C17.1127 12.0928 16.8475 12.5455 16.4688 13.0455C16.0938 13.5417 15.5729 14.1477 14.9062 14.8636L12.2926 17.6591V17.75H17.7017V19H10.3608Z" fill="#DDDFE5"/>
</svg>
