<svg width="48" height="48" viewBox="0 0 48 48" fill="none" xmlns="http://www.w3.org/2000/svg">
<path d="M0 8C0 3.58172 3.58172 0 8 0H40C44.4183 0 48 3.58172 48 8V40C48 44.4183 44.4183 48 40 48H8C3.58172 48 0 44.4183 0 40V8Z" fill="#EFEFEF"/>
<path fill-rule="evenodd" clip-rule="evenodd" d="M20 29C20 28.4477 20.4477 28 21 28H27C27.5523 28 28 28.4477 28 29V30C28 32.2091 26.2091 34 24 34C21.7909 34 20 32.2091 20 30V29ZM22 30C22 31.1046 22.8954 32 24 32C25.1046 32 26 31.1046 26 30H22Z" fill="#222222"/>
<path fill-rule="evenodd" clip-rule="evenodd" d="M24 15.9999C20.6863 15.9999 18 18.6862 18 21.9999V25.7224C18 26.1653 17.824 26.5901 17.5108 26.9033L16.8161 26.2086L17.5108 26.9033L17 27.4142L17 28H31V27.4142L30.4892 26.9033C30.176 26.5901 30 26.1653 30 25.7223V21.9999C30 18.6862 27.3137 15.9999 24 15.9999ZM16 21.9999C16 17.5817 19.5817 13.9999 24 13.9999C28.4183 13.9999 32 17.5817 32 21.9999V25.5857L32.4142 26C32.7893 26.375 33 26.8837 33 27.4142V28C33 29.1045 32.1046 30 31 30H17C15.8954 30 15 29.1045 15 28V27.4142C15 26.8837 15.2107 26.375 15.5858 26L16.2255 26.6397L15.5858 26L16 25.5857V21.9999Z" fill="#222222"/>
</svg>
