<svg width="12" height="16" viewBox="0 0 12 16" fill="none" xmlns="http://www.w3.org/2000/svg">
<path fill-rule="evenodd" clip-rule="evenodd" d="M7.66675 3.83333C7.66675 2.91417 6.91925 2.16667 6.00008 2.16667C5.08091 2.16667 4.33341 2.91417 4.33341 3.83333C4.33341 4.7525 5.08091 5.5 6.00008 5.5C6.91925 5.5 7.66675 4.7525 7.66675 3.83333ZM9.33342 3.83333C9.33342 5.67167 7.83842 7.16667 6.00008 7.16667C4.16175 7.16667 2.66675 5.67167 2.66675 3.83333C2.66675 1.995 4.16175 0.5 6.00008 0.5C7.83842 0.5 9.33342 1.995 9.33342 3.83333ZM0.166748 14.6667C0.166748 11.45 2.78425 8.83333 6.00008 8.83333C9.21592 8.83333 11.8334 11.45 11.8334 14.6667C11.8334 15.1267 11.4609 15.5 11.0001 15.5C10.5392 15.5 10.1667 15.1267 10.1667 14.6667C10.1667 12.3692 8.29758 10.5 6.00008 10.5C3.70258 10.5 1.83341 12.3692 1.83341 14.6667C1.83341 15.1267 1.46091 15.5 1.00008 15.5C0.539248 15.5 0.166748 15.1267 0.166748 14.6667Z" fill="#6B408C"/>
</svg>
