<svg width="12" height="16" viewBox="0 0 12 16" fill="none" xmlns="http://www.w3.org/2000/svg">
<path fill-rule="evenodd" clip-rule="evenodd" d="M7.66669 3.83333C7.66669 2.91417 6.91919 2.16667 6.00002 2.16667C5.08085 2.16667 4.33335 2.91417 4.33335 3.83333C4.33335 4.7525 5.08085 5.5 6.00002 5.5C6.91919 5.5 7.66669 4.7525 7.66669 3.83333ZM9.33335 3.83333C9.33335 5.67167 7.83835 7.16667 6.00002 7.16667C4.16169 7.16667 2.66669 5.67167 2.66669 3.83333C2.66669 1.995 4.16169 0.5 6.00002 0.5C7.83835 0.5 9.33335 1.995 9.33335 3.83333ZM0.166687 14.6667C0.166687 11.45 2.78419 8.83333 6.00002 8.83333C9.21585 8.83333 11.8334 11.45 11.8334 14.6667C11.8334 15.1267 11.4609 15.5 11 15.5C10.5392 15.5 10.1667 15.1267 10.1667 14.6667C10.1667 12.3692 8.29752 10.5 6.00002 10.5C3.70252 10.5 1.83335 12.3692 1.83335 14.6667C1.83335 15.1267 1.46085 15.5 1.00002 15.5C0.539187 15.5 0.166687 15.1267 0.166687 14.6667Z" fill="#939DA8"/>
</svg>
