<svg width="48" height="48" viewBox="0 0 48 48" fill="none" xmlns="http://www.w3.org/2000/svg">
<path d="M25 33H17C15.8954 33 15 32.1046 15 31V17C15 15.8954 15.8954 15 17 15H31C32.1046 15 33 15.8954 33 17V25C32.9996 25.0116 32.9975 25.023 32.994 25.034C32.9911 25.0431 32.9891 25.0525 32.988 25.062C32.9823 25.1502 32.9652 25.2373 32.937 25.321L32.928 25.348C32.9213 25.3706 32.9129 25.3926 32.903 25.414C32.8546 25.5229 32.7868 25.6222 32.703 25.707L25.703 32.707C25.5165 32.8936 25.2638 32.9989 25 33ZM17 17V31H24V25C24 24.4477 24.4477 24 25 24H31V17H17ZM26 26V29.587L29.586 26H26Z" fill="white"/>
</svg>
