<svg width="16" height="18" viewBox="0 0 16 18" fill="none" xmlns="http://www.w3.org/2000/svg">
<path fill-rule="evenodd" clip-rule="evenodd" d="M8 2.4556L2.16667 5.73727V5.8581C2.16667 9.8081 4.305 13.4656 7.74833 15.4031L8 15.5448L8.25167 15.4031C11.695 13.4656 13.8333 9.8081 13.8333 5.8581V5.73727L8 2.4556ZM8 17.2089C7.7175 17.2089 7.435 17.1389 7.18417 16.9973L6.93167 16.8548C2.96417 14.6239 0.5 10.4098 0.5 5.8581V5.73727C0.5 5.1381 0.825 4.58143 1.34833 4.2856L7.18333 1.00393C7.6875 0.720599 8.31333 0.719766 8.81583 1.0031L14.65 4.28477C15.175 4.58143 15.5 5.1381 15.5 5.73727V5.8581C15.5 10.4098 13.0358 14.6239 9.06833 16.8548L8.81667 16.9964C8.565 17.1381 8.2825 17.2089 8 17.2089Z" fill="#939DA8"/>
</svg>
