<svg width="48" height="48" viewBox="0 0 48 48" fill="none" xmlns="http://www.w3.org/2000/svg">
<path d="M24 35L14.5 29.5V18.5L24 13L33.5 18.5V29.5L24 35ZM24 15.312L16.5 19.653V28.347L24 32.689L31.5 28.347V19.653L24 15.311V15.312ZM24 28C22.9395 27.997 21.9229 27.5759 21.171 26.828C20.0272 25.6839 19.6852 23.9635 20.3045 22.4689C20.9237 20.9744 22.3822 20 24 20C25.0603 20.0028 26.0765 20.424 26.828 21.172C28.3895 22.734 28.3895 25.266 26.828 26.828C26.0764 27.5757 25.0602 27.9968 24 28ZM24 22C23.0458 21.9998 22.2244 22.6736 22.0381 23.6094C21.8517 24.5452 22.3524 25.4823 23.2339 25.8476C24.1153 26.2129 25.1321 25.9047 25.6623 25.1114C26.1926 24.3182 26.0886 23.2608 25.414 22.586C25.0398 22.2098 24.5307 21.9988 24 22Z" fill="white"/>
</svg>
