<svg width="20" height="20" viewBox="0 0 20 20" fill="none" xmlns="http://www.w3.org/2000/svg">
<path fill-rule="evenodd" clip-rule="evenodd" d="M10.0001 8.74995C9.31091 8.74995 8.75008 9.31078 8.75008 9.99995C8.75008 10.6891 9.31091 11.2499 10.0001 11.2499C10.6892 11.2499 11.2501 10.6891 11.2501 9.99995C11.2501 9.31078 10.6892 8.74995 10.0001 8.74995ZM10.0001 12.9166C8.39175 12.9166 7.08341 11.6083 7.08341 9.99995C7.08341 8.39161 8.39175 7.08328 10.0001 7.08328C11.6084 7.08328 12.9167 8.39161 12.9167 9.99995C12.9167 11.6083 11.6084 12.9166 10.0001 12.9166ZM18.2234 9.58495C17.6909 8.65828 14.7551 4.01328 9.77425 4.16911C5.16842 4.28661 2.48841 8.34495 1.77675 9.58495C1.63008 9.84245 1.63008 10.1574 1.77675 10.4149C2.30175 11.3291 5.13508 15.8333 10.0209 15.8333C10.0884 15.8333 10.1567 15.8324 10.2259 15.8308C14.8317 15.7133 17.5117 11.6549 18.2234 10.4149C18.3701 10.1574 18.3701 9.84245 18.2234 9.58495Z" fill="#5F6264"/>
</svg>
