<svg width="48" height="48" viewBox="0 0 48 48" fill="none" xmlns="http://www.w3.org/2000/svg">
<path d="M0 35.2C0 39.6804 0 41.9206 0.871948 43.6319C1.63893 45.1372 2.86278 46.3611 4.36808 47.1281C6.07937 48 8.31958 48 12.8 48H35.2C39.6804 48 41.9206 48 43.6319 47.1281C45.1372 46.3611 46.3611 45.1372 47.1281 43.6319C48 41.9206 48 39.6804 48 35.2V12.8C48 8.31958 48 6.07937 47.1281 4.36808C46.3611 2.86278 45.1372 1.63894 43.6319 0.871948C41.9206 0 39.6804 0 35.2 0H12.8C8.31958 0 6.07937 0 4.36808 0.871948C2.86278 1.63894 1.63893 2.86278 0.871948 4.36808C0 6.07937 0 8.31958 0 12.8V35.2Z" fill="white"/>
<path d="M33 33H16C15.4477 33 15 32.5523 15 32V15H17V31H33V33ZM20.373 28L19 26.656L23.856 21.9C24.2383 21.5285 24.8467 21.5285 25.229 21.9L27.456 24.081L31.627 20L33 21.344L28.144 26.1C27.7617 26.4715 27.1533 26.4715 26.771 26.1L24.543 23.918L20.373 28Z" fill="#6B408C"/>
</svg>
