<svg width="48" height="48" viewBox="0 0 48 48" fill="none" xmlns="http://www.w3.org/2000/svg">
<path d="M24 33C19.5817 33 16 29.4183 16 25C16 20.5817 19.5817 17 24 17C28.4183 17 32 20.5817 32 25C31.995 29.4162 28.4162 32.995 24 33ZM24 19C20.6863 19 18 21.6863 18 25C18 28.3137 20.6863 31 24 31C27.3137 31 30 28.3137 30 25C29.9961 21.6879 27.3121 19.0039 24 19ZM25 26H23V21H25V26ZM31.293 19.707L29.293 17.707L30.707 16.293L32.707 18.293L31.294 19.706L31.293 19.707ZM27 16H21V14H27V16Z" fill="white"/>
</svg>
