<svg width="48" height="48" viewBox="0 0 48 48" fill="none" xmlns="http://www.w3.org/2000/svg">
<path d="M0 35.2C0 39.6804 0 41.9206 0.871948 43.6319C1.63893 45.1372 2.86278 46.3611 4.36808 47.1281C6.07937 48 8.31958 48 12.8 48H35.2C39.6804 48 41.9206 48 43.6319 47.1281C45.1372 46.3611 46.3611 45.1372 47.1281 43.6319C48 41.9206 48 39.6804 48 35.2V12.8C48 8.31958 48 6.07937 47.1281 4.36808C46.3611 2.86278 45.1372 1.63894 43.6319 0.871948C41.9206 0 39.6804 0 35.2 0H12.8C8.31958 0 6.07937 0 4.36808 0.871948C2.86278 1.63894 1.63893 2.86278 0.871948 4.36808C0 6.07937 0 8.31958 0 12.8V35.2Z" fill="white"/>
<path d="M24 33C19.5817 33 16 29.4183 16 25C16 20.5817 19.5817 17 24 17C28.4183 17 32 20.5817 32 25C31.995 29.4162 28.4162 32.995 24 33ZM24 19C20.6863 19 18 21.6863 18 25C18 28.3137 20.6863 31 24 31C27.3137 31 30 28.3137 30 25C29.9961 21.6879 27.3121 19.0039 24 19ZM25 26H23V21H25V26ZM31.293 19.707L29.293 17.707L30.707 16.293L32.707 18.293L31.294 19.706L31.293 19.707ZM27 16H21V14H27V16Z" fill="#6B408C"/>
</svg>
